#N canvas 2 23 1547 1005 10;
#X declare -stdpath extra/list-abs -stdpath extra/moocow -stdpath extra/zexy
;
#X declare -stdpath extra/mrpeach;
#X declare -stdpath extra/list-abs -stdpath extra/moocow -stdpath extra/zexy
;
#X declare -stdpath extra/mrpeach;
#X declare -stdpath extra/list-abs -stdpath extra/moocow -stdpath extra/zexy
;
#X declare -stdpath extra/mrpeach;
#X declare -stdpath extra/list-abs -stdpath extra/moocow -stdpath extra/zexy
;
#X declare -stdpath extra/mrpeach;
#X declare -stdpath extra/list-abs -stdpath extra/moocow -stdpath extra/zexy
;
#X declare -stdpath extra/mrpeach;
#X declare -stdpath extra/list-abs -stdpath extra/moocow -stdpath extra/zexy
;
#X declare -stdpath extra/mrpeach;
#X declare -stdpath extra/list-abs -stdpath extra/moocow -stdpath extra/zexy
;
#X declare -stdpath extra/mrpeach;
#X declare -stdpath extra/list-abs -stdpath extra/moocow -stdpath extra/zexy
;
#X declare -stdpath extra/mrpeach;
#X obj 728 1141 hsl 128 15 0 1 0 0 empty empty empty -2 -8 0 10 -262144
-1 -1 12700 1;
#X floatatom 725 1169 5 0 0 0 - - -;
#X obj 609 996 sig~;
#X obj 501 1035 *~;
#X obj 531 1034 *~;
#X floatatom 14 28 5 0 0 0 - - -;
#X text 10 2 Fundamental;
#X obj 14 52 * 1;
#X obj 14 92 osc~;
#X obj 14 153 *~;
#X obj 54 72 random 100;
#X obj 54 92 / 100;
#X floatatom 14 72 5 0 0 0 - - -;
#X floatatom 54 113 5 0 0 0 - - -;
#X msg 54 132 \$1 3000;
#X obj 54 153 line~;
#X obj 132 152 *~;
#X obj 172 71 random 100;
#X obj 172 91 / 100;
#X floatatom 132 71 5 0 0 0 - - -;
#X floatatom 172 112 5 0 0 0 - - -;
#X msg 172 131 \$1 3000;
#X obj 172 152 line~;
#X obj 253 91 osc~;
#X obj 253 152 *~;
#X obj 293 71 random 100;
#X obj 293 91 / 100;
#X floatatom 253 71 5 0 0 0 - - -;
#X floatatom 293 112 5 0 0 0 - - -;
#X msg 293 131 \$1 3000;
#X obj 293 152 line~;
#X obj 372 152 *~;
#X obj 412 71 random 100;
#X obj 412 91 / 100;
#X floatatom 372 71 5 0 0 0 - - -;
#X floatatom 412 112 5 0 0 0 - - -;
#X msg 412 131 \$1 3000;
#X obj 412 152 line~;
#X obj 492 91 osc~;
#X obj 492 152 *~;
#X obj 532 71 random 100;
#X obj 532 91 / 100;
#X floatatom 492 71 5 0 0 0 - - -;
#X floatatom 532 112 5 0 0 0 - - -;
#X msg 532 131 \$1 3000;
#X obj 532 152 line~;
#X obj 132 51 * 2;
#X obj 253 51 * 3;
#X obj 372 51 * 4;
#X obj 492 51 * 5;
#X obj 94 18 bng 15 250 50 0 empty empty empty 17 7 0 10 -262144 -1
-1;
#X floatatom 16 204 5 0 0 0 - - -;
#X text 12 178 Fundamental;
#X obj 16 228 * 1;
#X obj 16 268 osc~;
#X obj 16 329 *~;
#X obj 56 248 random 100;
#X obj 56 268 / 100;
#X floatatom 16 248 5 0 0 0 - - -;
#X floatatom 56 289 5 0 0 0 - - -;
#X msg 56 308 \$1 3000;
#X obj 56 329 line~;
#X obj 134 328 *~;
#X obj 174 247 random 100;
#X obj 174 267 / 100;
#X floatatom 134 247 5 0 0 0 - - -;
#X floatatom 174 288 5 0 0 0 - - -;
#X msg 174 307 \$1 3000;
#X obj 174 328 line~;
#X obj 255 267 osc~;
#X obj 255 328 *~;
#X obj 295 247 random 100;
#X obj 295 267 / 100;
#X floatatom 255 247 5 0 0 0 - - -;
#X floatatom 295 288 5 0 0 0 - - -;
#X msg 295 307 \$1 3000;
#X obj 295 328 line~;
#X obj 374 328 *~;
#X obj 414 247 random 100;
#X obj 414 267 / 100;
#X floatatom 374 247 5 0 0 0 - - -;
#X floatatom 414 288 5 0 0 0 - - -;
#X msg 414 307 \$1 3000;
#X obj 414 328 line~;
#X obj 494 267 osc~;
#X obj 494 328 *~;
#X obj 534 247 random 100;
#X obj 534 267 / 100;
#X floatatom 494 247 5 0 0 0 - - -;
#X floatatom 534 288 5 0 0 0 - - -;
#X msg 534 307 \$1 3000;
#X obj 534 328 line~;
#X obj 134 227 * 2;
#X obj 255 227 * 3;
#X obj 374 227 * 4;
#X obj 494 227 * 5;
#X obj 95 202 bng 15 250 50 0 empty empty empty 17 7 0 10 -262144 -1
-1;
#X floatatom 17 379 5 0 0 0 - - -;
#X text 13 353 Fundamental;
#X obj 17 403 * 1;
#X obj 17 443 osc~;
#X obj 17 504 *~;
#X obj 57 423 random 100;
#X obj 57 443 / 100;
#X floatatom 17 423 5 0 0 0 - - -;
#X floatatom 57 464 5 0 0 0 - - -;
#X msg 57 483 \$1 3000;
#X obj 57 504 line~;
#X obj 135 503 *~;
#X obj 175 422 random 100;
#X obj 175 442 / 100;
#X floatatom 135 422 5 0 0 0 - - -;
#X floatatom 175 463 5 0 0 0 - - -;
#X msg 175 482 \$1 3000;
#X obj 175 503 line~;
#X obj 256 442 osc~;
#X obj 256 503 *~;
#X obj 296 422 random 100;
#X obj 296 442 / 100;
#X floatatom 256 422 5 0 0 0 - - -;
#X floatatom 296 463 5 0 0 0 - - -;
#X msg 296 482 \$1 3000;
#X obj 296 503 line~;
#X obj 375 503 *~;
#X obj 415 422 random 100;
#X obj 415 442 / 100;
#X floatatom 375 422 5 0 0 0 - - -;
#X floatatom 415 463 5 0 0 0 - - -;
#X msg 415 482 \$1 3000;
#X obj 415 503 line~;
#X obj 495 442 osc~;
#X obj 495 503 *~;
#X obj 535 422 random 100;
#X obj 535 442 / 100;
#X floatatom 495 422 5 0 0 0 - - -;
#X floatatom 535 463 5 0 0 0 - - -;
#X msg 535 482 \$1 3000;
#X obj 535 503 line~;
#X obj 135 402 * 2;
#X obj 256 402 * 3;
#X obj 375 402 * 4;
#X obj 495 402 * 5;
#X obj 96 377 bng 15 250 50 0 empty empty empty 17 7 0 10 -262144 -1
-1;
#X floatatom 16 560 5 0 0 0 - - -;
#X text 12 534 Fundamental;
#X obj 16 584 * 1;
#X obj 16 624 osc~;
#X obj 16 685 *~;
#X obj 56 604 random 100;
#X obj 56 624 / 100;
#X floatatom 16 604 5 0 0 0 - - -;
#X floatatom 56 645 5 0 0 0 - - -;
#X msg 56 664 \$1 3000;
#X obj 56 685 line~;
#X obj 134 684 *~;
#X obj 174 603 random 100;
#X obj 174 623 / 100;
#X floatatom 134 603 5 0 0 0 - - -;
#X floatatom 174 644 5 0 0 0 - - -;
#X msg 174 663 \$1 3000;
#X obj 174 684 line~;
#X obj 255 623 osc~;
#X obj 255 684 *~;
#X obj 295 603 random 100;
#X obj 295 623 / 100;
#X floatatom 255 603 5 0 0 0 - - -;
#X floatatom 295 644 5 0 0 0 - - -;
#X msg 295 663 \$1 3000;
#X obj 295 684 line~;
#X obj 374 684 *~;
#X obj 414 603 random 100;
#X obj 414 623 / 100;
#X floatatom 374 603 5 0 0 0 - - -;
#X floatatom 414 644 5 0 0 0 - - -;
#X msg 414 663 \$1 3000;
#X obj 414 684 line~;
#X obj 494 623 osc~;
#X obj 494 684 *~;
#X obj 534 603 random 100;
#X obj 534 623 / 100;
#X floatatom 494 603 5 0 0 0 - - -;
#X floatatom 534 644 5 0 0 0 - - -;
#X msg 534 663 \$1 3000;
#X obj 534 684 line~;
#X obj 134 583 * 2;
#X obj 255 583 * 3;
#X obj 374 583 * 4;
#X obj 494 583 * 5;
#X obj 95 558 bng 15 250 50 0 empty empty empty 17 7 0 10 -262144 -1
-1;
#X floatatom 1241 39 5 0 0 0 - - -;
#X text 1237 13 Fundamental;
#X obj 1241 63 * 1;
#X obj 1241 103 osc~;
#X obj 1241 164 *~;
#X obj 1281 83 random 100;
#X obj 1281 103 / 100;
#X floatatom 1241 83 5 0 0 0 - - -;
#X floatatom 1281 124 5 0 0 0 - - -;
#X msg 1281 143 \$1 3000;
#X obj 1281 164 line~;
#X obj 1359 163 *~;
#X obj 1399 82 random 100;
#X obj 1399 102 / 100;
#X floatatom 1359 82 5 0 0 0 - - -;
#X floatatom 1399 123 5 0 0 0 - - -;
#X msg 1399 142 \$1 3000;
#X obj 1399 163 line~;
#X obj 1480 102 osc~;
#X obj 1480 163 *~;
#X obj 1520 82 random 100;
#X obj 1520 102 / 100;
#X floatatom 1480 82 5 0 0 0 - - -;
#X floatatom 1520 123 5 0 0 0 - - -;
#X msg 1520 142 \$1 3000;
#X obj 1520 163 line~;
#X obj 1599 163 *~;
#X obj 1639 82 random 100;
#X obj 1639 102 / 100;
#X floatatom 1599 82 5 0 0 0 - - -;
#X floatatom 1639 123 5 0 0 0 - - -;
#X msg 1639 142 \$1 3000;
#X obj 1639 163 line~;
#X obj 1719 102 osc~;
#X obj 1719 163 *~;
#X obj 1759 82 random 100;
#X obj 1759 102 / 100;
#X floatatom 1719 82 5 0 0 0 - - -;
#X floatatom 1759 123 5 0 0 0 - - -;
#X msg 1759 142 \$1 3000;
#X obj 1759 163 line~;
#X obj 1359 62 * 2;
#X obj 1480 62 * 3;
#X obj 1599 62 * 4;
#X obj 1719 62 * 5;
#X obj 1320 37 bng 15 250 50 0 empty empty empty 17 7 0 10 -262144
-1 -1;
#X floatatom 1239 216 5 0 0 0 - - -;
#X text 1235 190 Fundamental;
#X obj 1239 240 * 1;
#X obj 1239 280 osc~;
#X obj 1239 341 *~;
#X obj 1279 260 random 100;
#X obj 1279 280 / 100;
#X floatatom 1239 260 5 0 0 0 - - -;
#X floatatom 1279 301 5 0 0 0 - - -;
#X msg 1279 320 \$1 3000;
#X obj 1279 341 line~;
#X obj 1357 340 *~;
#X obj 1397 259 random 100;
#X obj 1397 279 / 100;
#X floatatom 1357 259 5 0 0 0 - - -;
#X floatatom 1397 300 5 0 0 0 - - -;
#X msg 1397 319 \$1 3000;
#X obj 1397 340 line~;
#X obj 1478 279 osc~;
#X obj 1478 340 *~;
#X obj 1518 259 random 100;
#X obj 1518 279 / 100;
#X floatatom 1478 259 5 0 0 0 - - -;
#X floatatom 1518 300 5 0 0 0 - - -;
#X msg 1518 319 \$1 3000;
#X obj 1518 340 line~;
#X obj 1597 340 *~;
#X obj 1637 259 random 100;
#X obj 1637 279 / 100;
#X floatatom 1597 259 5 0 0 0 - - -;
#X floatatom 1637 300 5 0 0 0 - - -;
#X msg 1637 319 \$1 3000;
#X obj 1637 340 line~;
#X obj 1717 279 osc~;
#X obj 1717 340 *~;
#X obj 1757 259 random 100;
#X obj 1757 279 / 100;
#X floatatom 1717 259 5 0 0 0 - - -;
#X floatatom 1757 300 5 0 0 0 - - -;
#X msg 1757 319 \$1 3000;
#X obj 1757 340 line~;
#X obj 1357 239 * 2;
#X obj 1478 239 * 3;
#X obj 1597 239 * 4;
#X obj 1717 239 * 5;
#X obj 1318 214 bng 15 250 50 0 empty empty empty 17 7 0 10 -262144
-1 -1;
#X floatatom 1238 390 5 0 0 0 - - -;
#X text 1234 364 Fundamental;
#X obj 1238 414 * 1;
#X obj 1238 454 osc~;
#X obj 1238 515 *~;
#X obj 1278 434 random 100;
#X obj 1278 454 / 100;
#X floatatom 1238 434 5 0 0 0 - - -;
#X floatatom 1278 475 5 0 0 0 - - -;
#X msg 1278 494 \$1 3000;
#X obj 1278 515 line~;
#X obj 1356 514 *~;
#X obj 1396 433 random 100;
#X obj 1396 453 / 100;
#X floatatom 1356 433 5 0 0 0 - - -;
#X floatatom 1396 474 5 0 0 0 - - -;
#X msg 1396 493 \$1 3000;
#X obj 1396 514 line~;
#X obj 1477 453 osc~;
#X obj 1477 514 *~;
#X obj 1517 433 random 100;
#X obj 1517 453 / 100;
#X floatatom 1477 433 5 0 0 0 - - -;
#X floatatom 1517 474 5 0 0 0 - - -;
#X msg 1517 493 \$1 3000;
#X obj 1517 514 line~;
#X obj 1596 514 *~;
#X obj 1636 433 random 100;
#X obj 1636 453 / 100;
#X floatatom 1596 433 5 0 0 0 - - -;
#X floatatom 1636 474 5 0 0 0 - - -;
#X msg 1636 493 \$1 3000;
#X obj 1636 514 line~;
#X obj 1716 453 osc~;
#X obj 1716 514 *~;
#X obj 1756 433 random 100;
#X obj 1756 453 / 100;
#X floatatom 1716 433 5 0 0 0 - - -;
#X floatatom 1756 474 5 0 0 0 - - -;
#X msg 1756 493 \$1 3000;
#X obj 1756 514 line~;
#X obj 1356 413 * 2;
#X obj 1477 413 * 3;
#X obj 1596 413 * 4;
#X obj 1716 413 * 5;
#X obj 1317 388 bng 15 250 50 0 empty empty empty 17 7 0 10 -262144
-1 -1;
#X floatatom 1234 566 5 0 0 0 - - -;
#X text 1230 540 Fundamental;
#X obj 1234 590 * 1;
#X obj 1234 630 osc~;
#X obj 1234 691 *~;
#X obj 1274 610 random 100;
#X obj 1274 630 / 100;
#X floatatom 1234 610 5 0 0 0 - - -;
#X floatatom 1274 651 5 0 0 0 - - -;
#X msg 1274 670 \$1 3000;
#X obj 1274 691 line~;
#X obj 1352 690 *~;
#X obj 1392 609 random 100;
#X obj 1392 629 / 100;
#X floatatom 1352 609 5 0 0 0 - - -;
#X floatatom 1392 650 5 0 0 0 - - -;
#X msg 1392 669 \$1 3000;
#X obj 1392 690 line~;
#X obj 1473 629 osc~;
#X obj 1473 690 *~;
#X obj 1513 609 random 100;
#X obj 1513 629 / 100;
#X floatatom 1473 609 5 0 0 0 - - -;
#X floatatom 1513 650 5 0 0 0 - - -;
#X msg 1513 669 \$1 3000;
#X obj 1513 690 line~;
#X obj 1592 690 *~;
#X obj 1632 609 random 100;
#X obj 1632 629 / 100;
#X floatatom 1592 609 5 0 0 0 - - -;
#X floatatom 1632 650 5 0 0 0 - - -;
#X msg 1632 669 \$1 3000;
#X obj 1632 690 line~;
#X obj 1712 629 osc~;
#X obj 1712 690 *~;
#X obj 1752 609 random 100;
#X obj 1752 629 / 100;
#X floatatom 1712 609 5 0 0 0 - - -;
#X floatatom 1752 650 5 0 0 0 - - -;
#X msg 1752 669 \$1 3000;
#X obj 1752 690 line~;
#X obj 1352 589 * 2;
#X obj 1473 589 * 3;
#X obj 1592 589 * 4;
#X obj 1712 589 * 5;
#X obj 1313 564 bng 15 250 50 0 empty empty empty 17 7 0 10 -262144
-1 -1;
#X obj -209 24 csv_file;
#X obj -239 9 bng 15 250 50 0 empty empty empty 17 7 0 10 -262144 -1
-1;
#X obj -164 47 bng 15 250 50 0 empty empty empty 17 7 0 10 -262144
-1 -1;
#X obj -209 48 t a a;
#X obj -209 72 list;
#X msg -109 7 rewind;
#X obj -205 98 packel 1 2 3;
#X msg -237 -110 loadbang;
#X obj -196 219 line;
#X obj -209 381 csv_file;
#X obj -237 332 bng 15 250 50 0 empty empty empty 17 7 0 10 -262144
-1 -1;
#X obj -164 404 bng 15 250 50 0 empty empty empty 17 7 0 10 -262144
-1 -1;
#X obj -209 405 t a a;
#X obj -209 429 list;
#X msg -109 364 rewind;
#X obj -209 456 packel 1 2 3;
#X obj -151 573 line;
#X obj -212 751 csv_file;
#X obj -242 736 bng 15 250 50 0 empty empty empty 17 7 0 10 -262144
-1 -1;
#X obj -167 774 bng 15 250 50 0 empty empty empty 17 7 0 10 -262144
-1 -1;
#X obj -212 775 t a a;
#X obj -212 799 list;
#X msg -112 734 rewind;
#X obj -212 826 packel 1 2 3;
#X obj -178 938 line;
#X obj -211 1072 csv_file;
#X obj -241 1057 bng 15 250 50 0 empty empty empty 17 7 0 10 -262144
-1 -1;
#X obj -166 1095 bng 15 250 50 0 empty empty empty 17 7 0 10 -262144
-1 -1;
#X obj -211 1096 t a a;
#X obj -211 1120 list;
#X msg -111 1055 rewind;
#X obj -211 1147 packel 1 2 3;
#X obj -177 1261 line;
#X obj 550 -117 tgl 15 0 empty empty empty 17 7 0 10 -262144 -1 -1
1 1;
#X msg -159 432 load -1.08 0.28;
#X msg -162 801 load -1.2 0.45;
#X obj 1028 26 csv_file;
#X obj 998 11 bng 15 250 50 0 empty empty empty 17 7 0 10 -262144 -1
-1;
#X obj 1073 49 bng 15 250 50 0 empty empty empty 17 7 0 10 -262144
-1 -1;
#X obj 1028 50 t a a;
#X obj 1028 74 list;
#X msg 1128 9 rewind;
#X obj 1028 101 packel 1 2 3;
#X msg 1000 -108 loadbang;
#X obj 1062 203 line;
#X obj 1033 356 csv_file;
#X obj 1003 341 bng 15 250 50 0 empty empty empty 17 7 0 10 -262144
-1 -1;
#X obj 1078 379 bng 15 250 50 0 empty empty empty 17 7 0 10 -262144
-1 -1;
#X obj 1033 380 t a a;
#X obj 1033 404 list;
#X msg 1133 339 rewind;
#X obj 1033 431 packel 1 2 3;
#X obj 1067 547 line;
#X msg 1083 406 load -0.99 0.27;
#X obj 1024 754 csv_file;
#X obj 994 739 bng 15 250 50 0 empty empty empty 17 7 0 10 -262144
-1 -1;
#X obj 1069 777 bng 15 250 50 0 empty empty empty 17 7 0 10 -262144
-1 -1;
#X obj 1024 778 t a a;
#X obj 1024 802 list;
#X msg 1124 737 rewind;
#X obj 1024 829 packel 1 2 3;
#X obj 1058 927 line;
#X msg 1074 804 load -1.38 0.32;
#X obj 1025 1050 csv_file;
#X obj 995 1035 bng 15 250 50 0 empty empty empty 17 7 0 10 -262144
-1 -1;
#X obj 1070 1073 bng 15 250 50 0 empty empty empty 17 7 0 10 -262144
-1 -1;
#X obj 1025 1074 t a a;
#X obj 1025 1098 list;
#X msg 1125 1033 rewind;
#X obj 1025 1125 packel 1 2 3;
#X obj 1057 1220 line;
#X msg 1075 1100 load -1.23 0.27;
#X msg -175 197 \$1 300000;
#X msg -174 544 \$1 300000;
#X msg -178 916 \$1 300000;
#X msg -177 1239 \$1 300000;
#X msg 1057 1198 \$1 300000;
#X msg 1058 905 \$1 300000;
#X msg 1067 525 \$1 300000;
#X msg 1062 181 \$1 300000;
#X floatatom 849 68 5 0 0 0 - - -;
#X obj 842 100 bp~;
#X floatatom 873 86 5 0 0 0 - - -;
#X obj -98 152 line;
#X msg -121 53 load -2.3 0.47;
#X msg -121 131 \$1 30000;
#X obj 132 91 phasor~;
#X obj 372 91 phasor~;
#X obj 134 267 phasor~;
#X obj 374 267 phasor~;
#X obj 375 442 phasor~;
#X obj 135 442 phasor~;
#X obj 374 623 phasor~;
#X obj 134 623 phasor~;
#X obj 1359 102 phasor~;
#X obj 1599 102 phasor~;
#X obj 1597 279 phasor~;
#X obj 1357 279 phasor~;
#X obj 1356 453 phasor~;
#X obj 1596 453 phasor~;
#X obj 1592 629 phasor~;
#X obj 1352 629 phasor~;
#X floatatom 845 245 5 0 0 0 - - -;
#X obj 838 277 bp~;
#X floatatom 906 256 5 0 0 0 - - -;
#X floatatom 846 421 5 0 0 0 - - -;
#X obj 839 453 bp~;
#X floatatom 870 439 5 0 0 0 - - -;
#X floatatom 846 605 5 0 0 0 - - -;
#X obj 839 637 bp~;
#X floatatom 870 623 5 0 0 0 - - -;
#X obj -122 500 line;
#X msg -122 478 \$1 30000;
#X obj -127 872 line;
#X msg -127 850 \$1 30000;
#X obj -124 1191 line;
#X msg -124 1169 \$1 30000;
#X msg -122 405 load -2.39 0.32;
#X msg -127 776 load -2.34 0.47;
#X msg -125 1099 load -2.4 0.38;
#X floatatom 2080 79 5 0 0 0 - - -;
#X obj 2073 111 bp~;
#X floatatom 2104 97 5 0 0 0 - - -;
#X floatatom 2076 259 5 0 0 0 - - -;
#X obj 2069 291 bp~;
#X floatatom 2100 277 5 0 0 0 - - -;
#X floatatom 2073 432 5 0 0 0 - - -;
#X obj 2066 464 bp~;
#X floatatom 2097 450 5 0 0 0 - - -;
#X floatatom 2071 606 5 0 0 0 - - -;
#X obj 2064 638 bp~;
#X floatatom 2095 624 5 0 0 0 - - -;
#X obj 1117 140 line;
#X msg 1117 118 \$1 30000;
#X msg 1117 43 load -2.78 0.35;
#X obj 1116 477 line;
#X msg 1116 455 \$1 30000;
#X msg 1116 381 load -2.25 0.35;
#X obj 1175 849 line;
#X msg 1111 847 \$1 30000;
#X msg 1112 770 load -2.71 0.41;
#X obj 1186 1142 line;
#X msg 1120 1142 \$1 30000;
#X msg 1116 1068 load -2.45 0.27;
#X text -166 -106 Click me 1st;
#X text 913 -108 Click me 2nd;
#X text 76 -106 Don't forget to turn on DSP and set gain to 0.7.;
#X text 583 -115 Toggle me twice to start processing data;
#X text 723 1127 Gain;
#X text -117 94 log10(abs(curl(v));
#X text -178 159 log10(s);
#X text -213 119 log10(d);
#X text -205 -29 This is where the raw data is read in;
#X obj 460 -84 metro 30000;
#X obj 842 49 noise~;
#X obj 838 226 noise~;
#X obj 839 402 noise~;
#X obj 839 586 noise~;
#X obj 2064 587 noise~;
#X obj 2066 413 noise~;
#X obj 2069 240 noise~;
#X obj 560 1033 *~;
#X obj 586 1033 *~;
#X obj 619 1032 *~;
#X obj 649 1030 *~;
#X obj 677 1030 *~;
#X obj 706 1030 *~;
#X obj 2073 60 noise~;
#X msg -175 74 load -1.2 0.39;
#X obj 550 -85 metro 5000;
#X obj 612 90 osc~;
#X obj 612 151 *~;
#X obj 652 70 random 100;
#X obj 652 90 / 100;
#X floatatom 612 70 5 0 0 0 - - -;
#X floatatom 652 111 5 0 0 0 - - -;
#X msg 652 130 \$1 3000;
#X obj 652 151 line~;
#X obj 724 88 osc~;
#X obj 724 149 *~;
#X obj 764 68 random 100;
#X obj 764 88 / 100;
#X floatatom 724 68 5 0 0 0 - - -;
#X floatatom 764 109 5 0 0 0 - - -;
#X msg 764 128 \$1 3000;
#X obj 764 149 line~;
#X obj 612 50 * 6;
#X obj 724 48 * 7;
#X obj 610 263 osc~;
#X obj 610 324 *~;
#X obj 650 243 random 100;
#X obj 650 263 / 100;
#X floatatom 610 243 5 0 0 0 - - -;
#X floatatom 650 284 5 0 0 0 - - -;
#X msg 650 303 \$1 3000;
#X obj 650 324 line~;
#X obj 722 261 osc~;
#X obj 722 322 *~;
#X obj 762 241 random 100;
#X obj 762 261 / 100;
#X floatatom 722 241 5 0 0 0 - - -;
#X floatatom 762 282 5 0 0 0 - - -;
#X msg 762 301 \$1 3000;
#X obj 762 322 line~;
#X obj 610 223 * 6;
#X obj 722 221 * 7;
#X obj 613 443 osc~;
#X obj 613 504 *~;
#X obj 653 423 random 100;
#X obj 653 443 / 100;
#X floatatom 613 423 5 0 0 0 - - -;
#X floatatom 653 464 5 0 0 0 - - -;
#X msg 653 483 \$1 3000;
#X obj 653 504 line~;
#X obj 725 441 osc~;
#X obj 725 502 *~;
#X obj 765 421 random 100;
#X obj 765 441 / 100;
#X floatatom 725 421 5 0 0 0 - - -;
#X floatatom 765 462 5 0 0 0 - - -;
#X msg 765 481 \$1 3000;
#X obj 765 502 line~;
#X obj 613 403 * 6;
#X obj 725 401 * 7;
#X obj 611 616 osc~;
#X obj 611 677 *~;
#X obj 651 596 random 100;
#X obj 651 616 / 100;
#X floatatom 611 596 5 0 0 0 - - -;
#X floatatom 651 637 5 0 0 0 - - -;
#X msg 651 656 \$1 3000;
#X obj 651 677 line~;
#X obj 723 614 osc~;
#X obj 723 675 *~;
#X obj 763 594 random 100;
#X obj 763 614 / 100;
#X floatatom 723 594 5 0 0 0 - - -;
#X floatatom 763 635 5 0 0 0 - - -;
#X msg 763 654 \$1 3000;
#X obj 763 675 line~;
#X obj 611 576 * 6;
#X obj 723 574 * 7;
#X obj 1841 101 osc~;
#X obj 1841 162 *~;
#X obj 1881 81 random 100;
#X obj 1881 101 / 100;
#X floatatom 1841 81 5 0 0 0 - - -;
#X floatatom 1881 122 5 0 0 0 - - -;
#X msg 1881 141 \$1 3000;
#X obj 1881 162 line~;
#X obj 1953 99 osc~;
#X obj 1953 160 *~;
#X obj 1993 79 random 100;
#X obj 1993 99 / 100;
#X floatatom 1953 79 5 0 0 0 - - -;
#X floatatom 1993 120 5 0 0 0 - - -;
#X msg 1993 139 \$1 3000;
#X obj 1993 160 line~;
#X obj 1841 61 * 6;
#X obj 1953 59 * 7;
#X obj 1839 274 osc~;
#X obj 1839 335 *~;
#X obj 1879 254 random 100;
#X obj 1879 274 / 100;
#X floatatom 1839 254 5 0 0 0 - - -;
#X floatatom 1879 295 5 0 0 0 - - -;
#X msg 1879 314 \$1 3000;
#X obj 1879 335 line~;
#X obj 1951 272 osc~;
#X obj 1951 333 *~;
#X obj 1991 252 random 100;
#X obj 1991 272 / 100;
#X floatatom 1951 252 5 0 0 0 - - -;
#X floatatom 1991 293 5 0 0 0 - - -;
#X msg 1991 312 \$1 3000;
#X obj 1991 333 line~;
#X obj 1839 234 * 6;
#X obj 1951 232 * 7;
#X obj 1842 454 osc~;
#X obj 1842 515 *~;
#X obj 1882 434 random 100;
#X obj 1882 454 / 100;
#X floatatom 1842 434 5 0 0 0 - - -;
#X floatatom 1882 475 5 0 0 0 - - -;
#X msg 1882 494 \$1 3000;
#X obj 1882 515 line~;
#X obj 1954 452 osc~;
#X obj 1954 513 *~;
#X obj 1994 432 random 100;
#X obj 1994 452 / 100;
#X floatatom 1954 432 5 0 0 0 - - -;
#X floatatom 1994 473 5 0 0 0 - - -;
#X msg 1994 492 \$1 3000;
#X obj 1994 513 line~;
#X obj 1842 414 * 6;
#X obj 1954 412 * 7;
#X obj 1840 627 osc~;
#X obj 1840 688 *~;
#X obj 1880 607 random 100;
#X obj 1880 627 / 100;
#X floatatom 1840 607 5 0 0 0 - - -;
#X floatatom 1880 648 5 0 0 0 - - -;
#X msg 1880 667 \$1 3000;
#X obj 1880 688 line~;
#X obj 1952 625 osc~;
#X obj 1952 686 *~;
#X obj 1992 605 random 100;
#X obj 1992 625 / 100;
#X floatatom 1952 605 5 0 0 0 - - -;
#X floatatom 1992 646 5 0 0 0 - - -;
#X msg 1992 665 \$1 3000;
#X obj 1992 686 line~;
#X obj 1840 587 * 6;
#X obj 1952 585 * 7;
#X obj -228 1336 line;
#X msg -228 1314 \$1 3000;
#X obj -216 1002 line;
#X msg -216 980 \$1 3000;
#X obj -212 640 line;
#X msg -212 618 \$1 3000;
#X obj -216 287 line;
#X msg -216 265 \$1 3000;
#X obj 1022 1291 line;
#X msg 1022 1269 \$1 3000;
#X obj 1025 993 line;
#X msg 1025 971 \$1 3000;
#X obj 1026 625 line;
#X msg 1026 603 \$1 3000;
#X obj 1026 284 line;
#X msg 1026 262 \$1 3000;
#X msg -161 1122 load -1.18 0.55;
#X msg -125 1271 load 0 5;
#X msg -71 262 load 0 5;
#X msg -79 622 load 0 5;
#X msg -127 934 load 0 5;
#X msg 1078 76 load -1.14 0.47;
#X msg 1120 208 load 0 5;
#X msg 1130 545 load 0 5;
#X msg 1233 875 load 0 5;
#X msg 1234 1026 load 0 5;
#X obj 476 892 *~ 0.1;
#X obj 503 877 *~ 0.1;
#X obj 537 850 *~ 0.1;
#X obj 568 840 *~ 0.1;
#X obj 621 841 *~ 0.1;
#X obj 651 852 *~ 0.1;
#X obj 679 862 *~ 0.1;
#X obj 709 880 *~ 0.1;
#X obj 1025 949 autoscale 0.5 1;
#X obj 1026 581 autoscale 0.5 1;
#X obj 1026 240 autoscale 0.5 1;
#X obj 1022 1247 autoscale 0.5 1;
#X obj -227 1291 autoscale 0.5 1;
#X obj -216 958 autoscale 0.5 1;
#X obj -212 596 autoscale 0.5 1;
#X obj -216 243 autoscale 0.5 1;
#X obj -175 175 autoscale 20 500;
#X obj -174 522 autoscale 20 500;
#X obj -178 894 autoscale 20 500;
#X obj -177 1217 autoscale 20 500;
#X obj 1057 1176 autoscale 20 500;
#X obj 1058 883 autoscale 20 500;
#X obj 1067 503 autoscale 20 500;
#X obj 1062 159 autoscale 20 500;
#X obj 411 954 overdrive~;
#X obj 411 932 clip~ -1 1;
#X obj 411 976 clip~ -1 1;
#X obj 338 954 overdrive~;
#X obj 338 932 clip~ -1 1;
#X obj 338 976 clip~ -1 1;
#X obj 481 954 overdrive~;
#X obj 481 932 clip~ -1 1;
#X obj 481 976 clip~ -1 1;
#X obj 549 953 overdrive~;
#X obj 549 931 clip~ -1 1;
#X obj 549 975 clip~ -1 1;
#X obj 657 952 overdrive~;
#X obj 657 930 clip~ -1 1;
#X obj 657 974 clip~ -1 1;
#X obj 729 952 overdrive~;
#X obj 729 930 clip~ -1 1;
#X obj 729 974 clip~ -1 1;
#X obj 799 952 overdrive~;
#X obj 799 930 clip~ -1 1;
#X obj 799 974 clip~ -1 1;
#X obj 868 953 overdrive~;
#X obj 868 931 clip~ -1 1;
#X obj 868 975 clip~ -1 1;
#X obj 589 1153 dac~ 1 2;
#X obj 439 724 *~ 1;
#X obj 441 541 *~ 1;
#X obj 438 195 *~ 1;
#X obj 440 368 *~ 1;
#X obj 1565 199 *~ 1;
#X obj 1562 373 *~ 1;
#X obj 1564 543 *~ 1;
#X obj 1559 746 *~ 1;
#X msg -209 -9 read channels_R10_0.csv;
#X msg -209 348 read channels_R10_1.csv;
#X msg -212 718 read channels_R10_2.csv;
#X msg -211 1039 read channels_R10_3.csv;
#X msg 1028 -7 read channels_R10_4.csv;
#X msg 1033 323 read channels_R10_5.csv;
#X msg 1024 721 read channels_R10_6.csv;
#X msg 1025 1017 read channels_R10_7.csv;
#X obj -124 1148 autoscale 0.1 2;
#X obj -127 828 autoscale 0.1 2;
#X obj -122 456 autoscale 0.1 2;
#X obj -121 109 autoscale 0.1 2;
#X obj 1117 96 autoscale 0.1 2;
#X obj 1116 433 autoscale 0.1 2;
#X obj 1111 825 autoscale 0.1 2;
#X obj 1120 1120 autoscale 0.1 2;
#X connect 0 0 1 0;
#X connect 1 0 2 0;
#X connect 2 0 3 1;
#X connect 2 0 4 1;
#X connect 2 0 534 1;
#X connect 2 0 535 1;
#X connect 2 0 536 1;
#X connect 2 0 537 1;
#X connect 2 0 538 1;
#X connect 2 0 539 1;
#X connect 3 0 761 0;
#X connect 5 0 7 0;
#X connect 5 0 46 0;
#X connect 5 0 47 0;
#X connect 5 0 48 0;
#X connect 5 0 49 0;
#X connect 5 0 453 0;
#X connect 5 0 559 0;
#X connect 5 0 560 0;
#X connect 7 0 12 0;
#X connect 8 0 9 0;
#X connect 9 0 764 0;
#X connect 10 0 11 0;
#X connect 11 0 13 0;
#X connect 12 0 8 0;
#X connect 13 0 14 0;
#X connect 14 0 15 0;
#X connect 15 0 9 1;
#X connect 16 0 764 0;
#X connect 17 0 18 0;
#X connect 18 0 20 0;
#X connect 19 0 459 0;
#X connect 20 0 21 0;
#X connect 21 0 22 0;
#X connect 22 0 16 1;
#X connect 23 0 24 0;
#X connect 24 0 764 0;
#X connect 25 0 26 0;
#X connect 26 0 28 0;
#X connect 27 0 23 0;
#X connect 28 0 29 0;
#X connect 29 0 30 0;
#X connect 30 0 24 1;
#X connect 31 0 764 0;
#X connect 32 0 33 0;
#X connect 33 0 35 0;
#X connect 34 0 460 0;
#X connect 35 0 36 0;
#X connect 36 0 37 0;
#X connect 37 0 31 1;
#X connect 38 0 39 0;
#X connect 39 0 764 0;
#X connect 40 0 41 0;
#X connect 41 0 43 0;
#X connect 42 0 38 0;
#X connect 43 0 44 0;
#X connect 44 0 45 0;
#X connect 45 0 39 1;
#X connect 46 0 19 0;
#X connect 47 0 27 0;
#X connect 48 0 34 0;
#X connect 49 0 42 0;
#X connect 50 0 10 0;
#X connect 50 0 17 0;
#X connect 50 0 25 0;
#X connect 50 0 32 0;
#X connect 50 0 40 0;
#X connect 51 0 53 0;
#X connect 51 0 92 0;
#X connect 51 0 93 0;
#X connect 51 0 94 0;
#X connect 51 0 95 0;
#X connect 51 0 577 0;
#X connect 51 0 578 0;
#X connect 53 0 58 0;
#X connect 54 0 55 0;
#X connect 55 0 765 0;
#X connect 56 0 57 0;
#X connect 57 0 59 0;
#X connect 58 0 54 0;
#X connect 59 0 60 0;
#X connect 60 0 61 0;
#X connect 61 0 55 1;
#X connect 62 0 765 0;
#X connect 63 0 64 0;
#X connect 64 0 66 0;
#X connect 65 0 461 0;
#X connect 66 0 67 0;
#X connect 67 0 68 0;
#X connect 68 0 62 1;
#X connect 69 0 70 0;
#X connect 70 0 765 0;
#X connect 71 0 72 0;
#X connect 72 0 74 0;
#X connect 73 0 69 0;
#X connect 74 0 75 0;
#X connect 75 0 76 0;
#X connect 76 0 70 1;
#X connect 77 0 765 0;
#X connect 78 0 79 0;
#X connect 79 0 81 0;
#X connect 80 0 462 0;
#X connect 81 0 82 0;
#X connect 82 0 83 0;
#X connect 83 0 77 1;
#X connect 84 0 85 0;
#X connect 85 0 765 0;
#X connect 86 0 87 0;
#X connect 87 0 89 0;
#X connect 88 0 84 0;
#X connect 89 0 90 0;
#X connect 90 0 91 0;
#X connect 91 0 85 1;
#X connect 92 0 65 0;
#X connect 93 0 73 0;
#X connect 94 0 80 0;
#X connect 95 0 88 0;
#X connect 96 0 56 0;
#X connect 96 0 63 0;
#X connect 96 0 71 0;
#X connect 96 0 78 0;
#X connect 96 0 86 0;
#X connect 97 0 99 0;
#X connect 97 0 138 0;
#X connect 97 0 139 0;
#X connect 97 0 140 0;
#X connect 97 0 141 0;
#X connect 97 0 595 0;
#X connect 97 0 596 0;
#X connect 99 0 104 0;
#X connect 100 0 101 0;
#X connect 101 0 763 0;
#X connect 102 0 103 0;
#X connect 103 0 105 0;
#X connect 104 0 100 0;
#X connect 105 0 106 0;
#X connect 106 0 107 0;
#X connect 107 0 101 1;
#X connect 108 0 763 0;
#X connect 109 0 110 0;
#X connect 110 0 112 0;
#X connect 111 0 464 0;
#X connect 112 0 113 0;
#X connect 113 0 114 0;
#X connect 114 0 108 1;
#X connect 115 0 116 0;
#X connect 116 0 763 0;
#X connect 117 0 118 0;
#X connect 118 0 120 0;
#X connect 119 0 115 0;
#X connect 120 0 121 0;
#X connect 121 0 122 0;
#X connect 122 0 116 1;
#X connect 123 0 763 0;
#X connect 124 0 125 0;
#X connect 125 0 127 0;
#X connect 126 0 463 0;
#X connect 127 0 128 0;
#X connect 128 0 129 0;
#X connect 129 0 123 1;
#X connect 130 0 131 0;
#X connect 131 0 763 0;
#X connect 132 0 133 0;
#X connect 133 0 135 0;
#X connect 134 0 130 0;
#X connect 135 0 136 0;
#X connect 136 0 137 0;
#X connect 137 0 131 1;
#X connect 138 0 111 0;
#X connect 139 0 119 0;
#X connect 140 0 126 0;
#X connect 141 0 134 0;
#X connect 142 0 102 0;
#X connect 142 0 109 0;
#X connect 142 0 117 0;
#X connect 142 0 124 0;
#X connect 142 0 132 0;
#X connect 143 0 145 0;
#X connect 143 0 184 0;
#X connect 143 0 185 0;
#X connect 143 0 186 0;
#X connect 143 0 187 0;
#X connect 143 0 613 0;
#X connect 143 0 614 0;
#X connect 145 0 150 0;
#X connect 146 0 147 0;
#X connect 147 0 762 0;
#X connect 148 0 149 0;
#X connect 149 0 151 0;
#X connect 150 0 146 0;
#X connect 151 0 152 0;
#X connect 152 0 153 0;
#X connect 153 0 147 1;
#X connect 154 0 762 0;
#X connect 155 0 156 0;
#X connect 156 0 158 0;
#X connect 157 0 466 0;
#X connect 158 0 159 0;
#X connect 159 0 160 0;
#X connect 160 0 154 1;
#X connect 161 0 162 0;
#X connect 162 0 762 0;
#X connect 163 0 164 0;
#X connect 164 0 166 0;
#X connect 165 0 161 0;
#X connect 166 0 167 0;
#X connect 167 0 168 0;
#X connect 168 0 162 1;
#X connect 169 0 762 0;
#X connect 170 0 171 0;
#X connect 171 0 173 0;
#X connect 172 0 465 0;
#X connect 173 0 174 0;
#X connect 174 0 175 0;
#X connect 175 0 169 1;
#X connect 176 0 177 0;
#X connect 177 0 762 0;
#X connect 178 0 179 0;
#X connect 179 0 181 0;
#X connect 180 0 176 0;
#X connect 181 0 182 0;
#X connect 182 0 183 0;
#X connect 183 0 177 1;
#X connect 184 0 157 0;
#X connect 185 0 165 0;
#X connect 186 0 172 0;
#X connect 187 0 180 0;
#X connect 188 0 148 0;
#X connect 188 0 155 0;
#X connect 188 0 163 0;
#X connect 188 0 170 0;
#X connect 188 0 178 0;
#X connect 189 0 191 0;
#X connect 189 0 230 0;
#X connect 189 0 231 0;
#X connect 189 0 232 0;
#X connect 189 0 233 0;
#X connect 189 0 631 0;
#X connect 189 0 632 0;
#X connect 191 0 196 0;
#X connect 192 0 193 0;
#X connect 193 0 766 0;
#X connect 194 0 195 0;
#X connect 195 0 197 0;
#X connect 196 0 192 0;
#X connect 197 0 198 0;
#X connect 198 0 199 0;
#X connect 199 0 193 1;
#X connect 200 0 766 0;
#X connect 201 0 202 0;
#X connect 202 0 204 0;
#X connect 203 0 467 0;
#X connect 204 0 205 0;
#X connect 205 0 206 0;
#X connect 206 0 200 1;
#X connect 207 0 208 0;
#X connect 208 0 766 0;
#X connect 209 0 210 0;
#X connect 210 0 212 0;
#X connect 211 0 207 0;
#X connect 212 0 213 0;
#X connect 213 0 214 0;
#X connect 214 0 208 1;
#X connect 215 0 766 0;
#X connect 216 0 217 0;
#X connect 217 0 219 0;
#X connect 218 0 468 0;
#X connect 219 0 220 0;
#X connect 220 0 221 0;
#X connect 221 0 215 1;
#X connect 222 0 223 0;
#X connect 223 0 766 0;
#X connect 224 0 225 0;
#X connect 225 0 227 0;
#X connect 226 0 222 0;
#X connect 227 0 228 0;
#X connect 228 0 229 0;
#X connect 229 0 223 1;
#X connect 230 0 203 0;
#X connect 231 0 211 0;
#X connect 232 0 218 0;
#X connect 233 0 226 0;
#X connect 234 0 194 0;
#X connect 234 0 201 0;
#X connect 234 0 209 0;
#X connect 234 0 216 0;
#X connect 234 0 224 0;
#X connect 235 0 237 0;
#X connect 235 0 276 0;
#X connect 235 0 277 0;
#X connect 235 0 278 0;
#X connect 235 0 279 0;
#X connect 235 0 649 0;
#X connect 235 0 650 0;
#X connect 237 0 242 0;
#X connect 238 0 239 0;
#X connect 239 0 767 0;
#X connect 240 0 241 0;
#X connect 241 0 243 0;
#X connect 242 0 238 0;
#X connect 243 0 244 0;
#X connect 244 0 245 0;
#X connect 245 0 239 1;
#X connect 246 0 767 0;
#X connect 247 0 248 0;
#X connect 248 0 250 0;
#X connect 249 0 470 0;
#X connect 250 0 251 0;
#X connect 251 0 252 0;
#X connect 252 0 246 1;
#X connect 253 0 254 0;
#X connect 254 0 767 0;
#X connect 255 0 256 0;
#X connect 256 0 258 0;
#X connect 257 0 253 0;
#X connect 258 0 259 0;
#X connect 259 0 260 0;
#X connect 260 0 254 1;
#X connect 261 0 767 0;
#X connect 262 0 263 0;
#X connect 263 0 265 0;
#X connect 264 0 469 0;
#X connect 265 0 266 0;
#X connect 266 0 267 0;
#X connect 267 0 261 1;
#X connect 268 0 269 0;
#X connect 269 0 767 0;
#X connect 270 0 271 0;
#X connect 271 0 273 0;
#X connect 272 0 268 0;
#X connect 273 0 274 0;
#X connect 274 0 275 0;
#X connect 275 0 269 1;
#X connect 276 0 249 0;
#X connect 277 0 257 0;
#X connect 278 0 264 0;
#X connect 279 0 272 0;
#X connect 280 0 240 0;
#X connect 280 0 247 0;
#X connect 280 0 255 0;
#X connect 280 0 262 0;
#X connect 280 0 270 0;
#X connect 281 0 283 0;
#X connect 281 0 322 0;
#X connect 281 0 323 0;
#X connect 281 0 324 0;
#X connect 281 0 325 0;
#X connect 281 0 667 0;
#X connect 281 0 668 0;
#X connect 283 0 288 0;
#X connect 284 0 285 0;
#X connect 285 0 768 0;
#X connect 286 0 287 0;
#X connect 287 0 289 0;
#X connect 288 0 284 0;
#X connect 289 0 290 0;
#X connect 290 0 291 0;
#X connect 291 0 285 1;
#X connect 292 0 768 0;
#X connect 293 0 294 0;
#X connect 294 0 296 0;
#X connect 295 0 471 0;
#X connect 296 0 297 0;
#X connect 297 0 298 0;
#X connect 298 0 292 1;
#X connect 299 0 300 0;
#X connect 300 0 768 0;
#X connect 301 0 302 0;
#X connect 302 0 304 0;
#X connect 303 0 299 0;
#X connect 304 0 305 0;
#X connect 305 0 306 0;
#X connect 306 0 300 1;
#X connect 307 0 768 0;
#X connect 308 0 309 0;
#X connect 309 0 311 0;
#X connect 310 0 472 0;
#X connect 311 0 312 0;
#X connect 312 0 313 0;
#X connect 313 0 307 1;
#X connect 314 0 315 0;
#X connect 315 0 768 0;
#X connect 316 0 317 0;
#X connect 317 0 319 0;
#X connect 318 0 314 0;
#X connect 319 0 320 0;
#X connect 320 0 321 0;
#X connect 321 0 315 1;
#X connect 322 0 295 0;
#X connect 323 0 303 0;
#X connect 324 0 310 0;
#X connect 325 0 318 0;
#X connect 326 0 286 0;
#X connect 326 0 293 0;
#X connect 326 0 301 0;
#X connect 326 0 308 0;
#X connect 326 0 316 0;
#X connect 327 0 329 0;
#X connect 327 0 368 0;
#X connect 327 0 369 0;
#X connect 327 0 370 0;
#X connect 327 0 371 0;
#X connect 327 0 685 0;
#X connect 327 0 686 0;
#X connect 329 0 334 0;
#X connect 330 0 331 0;
#X connect 331 0 769 0;
#X connect 332 0 333 0;
#X connect 333 0 335 0;
#X connect 334 0 330 0;
#X connect 335 0 336 0;
#X connect 336 0 337 0;
#X connect 337 0 331 1;
#X connect 338 0 769 0;
#X connect 339 0 340 0;
#X connect 340 0 342 0;
#X connect 341 0 474 0;
#X connect 342 0 343 0;
#X connect 343 0 344 0;
#X connect 344 0 338 1;
#X connect 345 0 346 0;
#X connect 346 0 769 0;
#X connect 347 0 348 0;
#X connect 348 0 350 0;
#X connect 349 0 345 0;
#X connect 350 0 351 0;
#X connect 351 0 352 0;
#X connect 352 0 346 1;
#X connect 353 0 769 0;
#X connect 354 0 355 0;
#X connect 355 0 357 0;
#X connect 356 0 473 0;
#X connect 357 0 358 0;
#X connect 358 0 359 0;
#X connect 359 0 353 1;
#X connect 360 0 361 0;
#X connect 361 0 769 0;
#X connect 362 0 363 0;
#X connect 363 0 365 0;
#X connect 364 0 360 0;
#X connect 365 0 366 0;
#X connect 366 0 367 0;
#X connect 367 0 361 1;
#X connect 368 0 341 0;
#X connect 369 0 349 0;
#X connect 370 0 356 0;
#X connect 371 0 364 0;
#X connect 372 0 332 0;
#X connect 372 0 339 0;
#X connect 372 0 347 0;
#X connect 372 0 354 0;
#X connect 372 0 362 0;
#X connect 373 0 376 0;
#X connect 373 2 375 0;
#X connect 373 2 378 0;
#X connect 374 0 373 0;
#X connect 376 0 377 0;
#X connect 377 0 379 0;
#X connect 378 0 373 0;
#X connect 379 0 728 0;
#X connect 379 1 729 0;
#X connect 379 2 781 0;
#X connect 380 0 770 0;
#X connect 380 0 771 0;
#X connect 380 0 772 0;
#X connect 380 0 773 0;
#X connect 381 0 5 0;
#X connect 382 0 385 0;
#X connect 382 2 384 0;
#X connect 382 2 387 0;
#X connect 383 0 382 0;
#X connect 385 0 386 0;
#X connect 386 0 388 0;
#X connect 387 0 382 0;
#X connect 388 0 727 0;
#X connect 388 1 730 0;
#X connect 388 2 780 0;
#X connect 389 0 51 0;
#X connect 389 0 475 0;
#X connect 390 0 393 0;
#X connect 390 2 392 0;
#X connect 390 2 395 0;
#X connect 391 0 390 0;
#X connect 393 0 394 0;
#X connect 394 0 396 0;
#X connect 395 0 390 0;
#X connect 396 0 726 0;
#X connect 396 1 731 0;
#X connect 396 2 779 0;
#X connect 397 0 97 0;
#X connect 397 0 478 0;
#X connect 398 0 401 0;
#X connect 398 2 400 0;
#X connect 398 2 403 0;
#X connect 399 0 398 0;
#X connect 401 0 402 0;
#X connect 402 0 404 0;
#X connect 403 0 398 0;
#X connect 404 0 725 0;
#X connect 404 1 732 0;
#X connect 404 2 778 0;
#X connect 405 0 143 0;
#X connect 405 0 481 0;
#X connect 406 0 526 0;
#X connect 406 0 542 0;
#X connect 407 0 730 0;
#X connect 408 0 731 0;
#X connect 409 0 412 0;
#X connect 409 2 411 0;
#X connect 409 2 414 0;
#X connect 410 0 409 0;
#X connect 412 0 413 0;
#X connect 413 0 415 0;
#X connect 414 0 409 0;
#X connect 415 0 723 0;
#X connect 415 1 736 0;
#X connect 415 2 782 0;
#X connect 416 0 774 0;
#X connect 416 0 775 0;
#X connect 416 0 776 0;
#X connect 416 0 777 0;
#X connect 417 0 189 0;
#X connect 417 0 493 0;
#X connect 418 0 421 0;
#X connect 418 2 420 0;
#X connect 418 2 423 0;
#X connect 419 0 418 0;
#X connect 421 0 422 0;
#X connect 422 0 424 0;
#X connect 423 0 418 0;
#X connect 424 0 722 0;
#X connect 424 1 735 0;
#X connect 424 2 783 0;
#X connect 425 0 235 0;
#X connect 425 0 496 0;
#X connect 426 0 735 0;
#X connect 427 0 430 0;
#X connect 427 2 429 0;
#X connect 427 2 432 0;
#X connect 428 0 427 0;
#X connect 430 0 431 0;
#X connect 431 0 433 0;
#X connect 432 0 427 0;
#X connect 433 0 721 0;
#X connect 433 1 734 0;
#X connect 433 2 784 0;
#X connect 434 0 281 0;
#X connect 434 0 499 0;
#X connect 435 0 734 0;
#X connect 436 0 439 0;
#X connect 436 2 438 0;
#X connect 436 2 441 0;
#X connect 437 0 436 0;
#X connect 439 0 440 0;
#X connect 440 0 442 0;
#X connect 441 0 436 0;
#X connect 442 0 724 0;
#X connect 442 1 733 0;
#X connect 442 2 785 0;
#X connect 443 0 327 0;
#X connect 443 0 502 0;
#X connect 444 0 733 0;
#X connect 445 0 381 0;
#X connect 446 0 389 0;
#X connect 447 0 397 0;
#X connect 448 0 405 0;
#X connect 449 0 443 0;
#X connect 450 0 434 0;
#X connect 451 0 425 0;
#X connect 452 0 417 0;
#X connect 453 0 454 1;
#X connect 455 0 454 2;
#X connect 456 0 740 0;
#X connect 457 0 781 0;
#X connect 458 0 456 0;
#X connect 459 0 16 0;
#X connect 460 0 31 0;
#X connect 461 0 62 0;
#X connect 462 0 77 0;
#X connect 463 0 123 0;
#X connect 464 0 108 0;
#X connect 465 0 169 0;
#X connect 466 0 154 0;
#X connect 467 0 200 0;
#X connect 468 0 215 0;
#X connect 469 0 261 0;
#X connect 470 0 246 0;
#X connect 471 0 292 0;
#X connect 472 0 307 0;
#X connect 473 0 353 0;
#X connect 474 0 338 0;
#X connect 475 0 476 1;
#X connect 477 0 476 2;
#X connect 478 0 479 1;
#X connect 480 0 479 2;
#X connect 481 0 482 1;
#X connect 483 0 482 2;
#X connect 484 0 737 0;
#X connect 485 0 484 0;
#X connect 486 0 743 0;
#X connect 487 0 486 0;
#X connect 488 0 746 0;
#X connect 489 0 488 0;
#X connect 490 0 780 0;
#X connect 491 0 779 0;
#X connect 492 0 778 0;
#X connect 493 0 494 1;
#X connect 495 0 494 2;
#X connect 496 0 497 1;
#X connect 498 0 497 2;
#X connect 499 0 500 1;
#X connect 501 0 500 2;
#X connect 502 0 503 1;
#X connect 504 0 503 2;
#X connect 505 0 749 0;
#X connect 506 0 505 0;
#X connect 507 0 782 0;
#X connect 508 0 752 0;
#X connect 509 0 508 0;
#X connect 510 0 783 0;
#X connect 511 0 755 0;
#X connect 512 0 511 0;
#X connect 513 0 784 0;
#X connect 514 0 758 0;
#X connect 515 0 514 0;
#X connect 516 0 785 0;
#X connect 526 0 374 0;
#X connect 526 0 383 0;
#X connect 526 0 391 0;
#X connect 526 0 399 0;
#X connect 526 0 410 0;
#X connect 526 0 419 0;
#X connect 526 0 428 0;
#X connect 526 0 437 0;
#X connect 527 0 454 0;
#X connect 528 0 476 0;
#X connect 529 0 479 0;
#X connect 530 0 482 0;
#X connect 531 0 503 0;
#X connect 532 0 500 0;
#X connect 533 0 497 0;
#X connect 539 0 761 1;
#X connect 540 0 494 0;
#X connect 541 0 729 0;
#X connect 542 0 50 0;
#X connect 542 0 96 0;
#X connect 542 0 142 0;
#X connect 542 0 188 0;
#X connect 542 0 234 0;
#X connect 542 0 280 0;
#X connect 542 0 326 0;
#X connect 542 0 372 0;
#X connect 543 0 544 0;
#X connect 544 0 764 0;
#X connect 545 0 546 0;
#X connect 546 0 548 0;
#X connect 547 0 543 0;
#X connect 548 0 549 0;
#X connect 549 0 550 0;
#X connect 550 0 544 1;
#X connect 551 0 552 0;
#X connect 552 0 764 0;
#X connect 553 0 554 0;
#X connect 554 0 556 0;
#X connect 555 0 551 0;
#X connect 556 0 557 0;
#X connect 557 0 558 0;
#X connect 558 0 552 1;
#X connect 559 0 547 0;
#X connect 560 0 555 0;
#X connect 561 0 562 0;
#X connect 562 0 765 0;
#X connect 563 0 564 0;
#X connect 564 0 566 0;
#X connect 565 0 561 0;
#X connect 566 0 567 0;
#X connect 567 0 568 0;
#X connect 568 0 562 1;
#X connect 569 0 570 0;
#X connect 570 0 765 0;
#X connect 571 0 572 0;
#X connect 572 0 574 0;
#X connect 573 0 569 0;
#X connect 574 0 575 0;
#X connect 575 0 576 0;
#X connect 576 0 570 1;
#X connect 577 0 565 0;
#X connect 578 0 573 0;
#X connect 579 0 580 0;
#X connect 580 0 763 0;
#X connect 581 0 582 0;
#X connect 582 0 584 0;
#X connect 583 0 579 0;
#X connect 584 0 585 0;
#X connect 585 0 586 0;
#X connect 586 0 580 1;
#X connect 587 0 588 0;
#X connect 588 0 763 0;
#X connect 589 0 590 0;
#X connect 590 0 592 0;
#X connect 591 0 587 0;
#X connect 592 0 593 0;
#X connect 593 0 594 0;
#X connect 594 0 588 1;
#X connect 595 0 583 0;
#X connect 596 0 591 0;
#X connect 597 0 598 0;
#X connect 598 0 762 0;
#X connect 599 0 600 0;
#X connect 600 0 602 0;
#X connect 601 0 597 0;
#X connect 602 0 603 0;
#X connect 603 0 604 0;
#X connect 604 0 598 1;
#X connect 605 0 606 0;
#X connect 606 0 762 0;
#X connect 607 0 608 0;
#X connect 608 0 610 0;
#X connect 609 0 605 0;
#X connect 610 0 611 0;
#X connect 611 0 612 0;
#X connect 612 0 606 1;
#X connect 613 0 601 0;
#X connect 614 0 609 0;
#X connect 615 0 616 0;
#X connect 616 0 766 0;
#X connect 617 0 618 0;
#X connect 618 0 620 0;
#X connect 619 0 615 0;
#X connect 620 0 621 0;
#X connect 621 0 622 0;
#X connect 622 0 616 1;
#X connect 623 0 624 0;
#X connect 625 0 626 0;
#X connect 626 0 628 0;
#X connect 627 0 623 0;
#X connect 628 0 629 0;
#X connect 629 0 630 0;
#X connect 630 0 624 1;
#X connect 631 0 619 0;
#X connect 632 0 627 0;
#X connect 633 0 634 0;
#X connect 634 0 767 0;
#X connect 635 0 636 0;
#X connect 636 0 638 0;
#X connect 637 0 633 0;
#X connect 638 0 639 0;
#X connect 639 0 640 0;
#X connect 640 0 634 1;
#X connect 641 0 642 0;
#X connect 642 0 767 0;
#X connect 643 0 644 0;
#X connect 644 0 646 0;
#X connect 645 0 641 0;
#X connect 646 0 647 0;
#X connect 647 0 648 0;
#X connect 648 0 642 1;
#X connect 649 0 637 0;
#X connect 650 0 645 0;
#X connect 651 0 652 0;
#X connect 652 0 768 0;
#X connect 653 0 654 0;
#X connect 654 0 656 0;
#X connect 655 0 651 0;
#X connect 656 0 657 0;
#X connect 657 0 658 0;
#X connect 658 0 652 1;
#X connect 659 0 660 0;
#X connect 660 0 768 0;
#X connect 661 0 662 0;
#X connect 662 0 664 0;
#X connect 663 0 659 0;
#X connect 664 0 665 0;
#X connect 665 0 666 0;
#X connect 666 0 660 1;
#X connect 667 0 655 0;
#X connect 668 0 663 0;
#X connect 669 0 670 0;
#X connect 670 0 769 0;
#X connect 671 0 672 0;
#X connect 672 0 674 0;
#X connect 673 0 669 0;
#X connect 674 0 675 0;
#X connect 675 0 676 0;
#X connect 676 0 670 1;
#X connect 677 0 678 0;
#X connect 678 0 769 0;
#X connect 679 0 680 0;
#X connect 680 0 682 0;
#X connect 681 0 677 0;
#X connect 682 0 683 0;
#X connect 683 0 684 0;
#X connect 684 0 678 1;
#X connect 685 0 673 0;
#X connect 686 0 681 0;
#X connect 687 0 716 1;
#X connect 688 0 687 0;
#X connect 689 0 715 1;
#X connect 690 0 689 0;
#X connect 691 0 714 1;
#X connect 692 0 691 0;
#X connect 693 0 713 1;
#X connect 694 0 693 0;
#X connect 695 0 720 1;
#X connect 696 0 695 0;
#X connect 697 0 719 1;
#X connect 698 0 697 0;
#X connect 699 0 718 1;
#X connect 700 0 699 0;
#X connect 701 0 717 1;
#X connect 702 0 701 0;
#X connect 703 0 732 0;
#X connect 704 0 725 0;
#X connect 705 0 728 0;
#X connect 706 0 727 0;
#X connect 707 0 726 0;
#X connect 708 0 736 0;
#X connect 709 0 723 0;
#X connect 710 0 722 0;
#X connect 711 0 721 0;
#X connect 712 0 724 0;
#X connect 713 0 741 0;
#X connect 714 0 738 0;
#X connect 715 0 744 0;
#X connect 716 0 747 0;
#X connect 717 0 750 0;
#X connect 718 0 753 0;
#X connect 719 0 756 0;
#X connect 720 0 759 0;
#X connect 721 0 698 0;
#X connect 722 0 700 0;
#X connect 723 0 702 0;
#X connect 724 0 696 0;
#X connect 725 0 688 0;
#X connect 726 0 690 0;
#X connect 727 0 692 0;
#X connect 728 0 694 0;
#X connect 729 0 445 0;
#X connect 730 0 446 0;
#X connect 731 0 447 0;
#X connect 732 0 448 0;
#X connect 733 0 449 0;
#X connect 734 0 450 0;
#X connect 735 0 451 0;
#X connect 736 0 452 0;
#X connect 737 0 739 0;
#X connect 738 0 737 0;
#X connect 739 0 4 0;
#X connect 740 0 742 0;
#X connect 741 0 740 0;
#X connect 742 0 3 0;
#X connect 743 0 745 0;
#X connect 744 0 743 0;
#X connect 745 0 534 0;
#X connect 746 0 748 0;
#X connect 747 0 746 0;
#X connect 748 0 535 0;
#X connect 749 0 751 0;
#X connect 750 0 749 0;
#X connect 751 0 536 0;
#X connect 752 0 754 0;
#X connect 753 0 752 0;
#X connect 754 0 537 0;
#X connect 755 0 757 0;
#X connect 756 0 755 0;
#X connect 757 0 538 0;
#X connect 758 0 760 0;
#X connect 759 0 758 0;
#X connect 760 0 539 0;
#X connect 762 0 716 0;
#X connect 763 0 715 0;
#X connect 764 0 713 0;
#X connect 765 0 714 0;
#X connect 766 0 717 0;
#X connect 767 0 718 0;
#X connect 768 0 719 0;
#X connect 769 0 720 0;
#X connect 770 0 373 0;
#X connect 771 0 382 0;
#X connect 772 0 390 0;
#X connect 773 0 398 0;
#X connect 774 0 409 0;
#X connect 775 0 418 0;
#X connect 776 0 427 0;
#X connect 777 0 436 0;
#X connect 778 0 489 0;
#X connect 779 0 487 0;
#X connect 780 0 485 0;
#X connect 781 0 458 0;
#X connect 782 0 506 0;
#X connect 783 0 509 0;
#X connect 784 0 512 0;
#X connect 785 0 515 0;
