#N canvas 1486 72 1436 855 10;
#X declare -stdpath extra/list-abs -stdpath extra/moocow -stdpath extra/zexy
;
#X declare -stdpath extra/mrpeach;
#X declare -stdpath extra/list-abs -stdpath extra/moocow -stdpath extra/zexy
;
#X declare -stdpath extra/mrpeach;
#X declare -stdpath extra/list-abs -stdpath extra/moocow -stdpath extra/zexy
;
#X declare -stdpath extra/mrpeach;
#X declare -stdpath extra/list-abs -stdpath extra/moocow -stdpath extra/zexy
;
#X declare -stdpath extra/mrpeach;
#X declare -stdpath extra/list-abs -stdpath extra/moocow -stdpath extra/zexy
;
#X declare -stdpath extra/mrpeach;
#X declare -stdpath extra/list-abs -stdpath extra/moocow -stdpath extra/zexy
;
#X declare -stdpath extra/mrpeach;
#X declare -stdpath extra/list-abs -stdpath extra/moocow -stdpath extra/zexy
;
#X declare -stdpath extra/mrpeach;
#X declare -stdpath extra/list-abs -stdpath extra/moocow -stdpath extra/zexy
;
#X declare -stdpath extra/mrpeach;
#X obj 605 1105 dac~ 1 2;
#X obj 445 899 earplug~ 270 -25;
#X obj 570 1042 *~ 0.125;
#X obj 659 1044 *~ 0.125;
#X obj 775 1005 hsl 128 15 0 1 0 0 empty empty empty -2 -8 0 10 -262144
-1 -1 0 1;
#X floatatom 772 1027 5 0 0 0 - - -;
#X obj 772 1047 sig~;
#X obj 570 1079 *~;
#X obj 659 1078 *~;
#X obj 582 829 earplug~ 0 -25;
#X obj 681 871 earplug~ 45 -25;
#X obj 728 902 earplug~ 90 -25;
#X obj 680 941 earplug~ 135 -25;
#X obj 579 982 earplug~ 180 -25;
#X obj 475 942 earplug~ 225 -25;
#X obj 477 865 earplug~ 315 -25;
#X floatatom 14 28 5 0 0 0 - - -;
#X text 10 2 Fundamental;
#X obj 14 52 * 1;
#X obj 14 92 osc~;
#X obj 14 153 *~;
#X obj 54 72 random 100;
#X obj 54 92 / 100;
#X floatatom 14 72 5 0 0 0 - - -;
#X floatatom 54 113 5 0 0 0 - - -;
#X msg 54 132 \$1 3000;
#X obj 54 153 line~;
#X obj 132 152 *~;
#X obj 172 71 random 100;
#X obj 172 91 / 100;
#X floatatom 132 71 5 0 0 0 - - -;
#X floatatom 172 112 5 0 0 0 - - -;
#X msg 172 131 \$1 3000;
#X obj 172 152 line~;
#X obj 253 91 osc~;
#X obj 253 152 *~;
#X obj 293 71 random 100;
#X obj 293 91 / 100;
#X floatatom 253 71 5 0 0 0 - - -;
#X floatatom 293 112 5 0 0 0 - - -;
#X msg 293 131 \$1 3000;
#X obj 293 152 line~;
#X obj 372 152 *~;
#X obj 412 71 random 100;
#X obj 412 91 / 100;
#X floatatom 372 71 5 0 0 0 - - -;
#X floatatom 412 112 5 0 0 0 - - -;
#X msg 412 131 \$1 3000;
#X obj 412 152 line~;
#X obj 492 91 osc~;
#X obj 492 152 *~;
#X obj 532 71 random 100;
#X obj 532 91 / 100;
#X floatatom 492 71 5 0 0 0 - - -;
#X floatatom 532 112 5 0 0 0 - - -;
#X msg 532 131 \$1 3000;
#X obj 532 152 line~;
#X obj 612 152 *~;
#X obj 652 71 random 100;
#X obj 652 91 / 100;
#X floatatom 612 71 5 0 0 0 - - -;
#X floatatom 652 112 5 0 0 0 - - -;
#X msg 652 131 \$1 3000;
#X obj 652 152 line~;
#X obj 132 51 * 2;
#X obj 253 51 * 3;
#X obj 372 51 * 4;
#X obj 492 51 * 5;
#X obj 612 51 * 6;
#X obj 730 91 osc~;
#X obj 730 152 *~;
#X obj 770 71 random 100;
#X obj 770 91 / 100;
#X floatatom 730 71 5 0 0 0 - - -;
#X floatatom 770 112 5 0 0 0 - - -;
#X msg 770 131 \$1 3000;
#X obj 770 152 line~;
#X obj 730 51 * 7;
#X obj 94 18 bng 15 250 50 0 empty empty empty 17 7 0 10 -262144 -1
-1;
#X floatatom 16 204 5 0 0 0 - - -;
#X text 12 178 Fundamental;
#X obj 16 228 * 1;
#X obj 16 268 osc~;
#X obj 16 329 *~;
#X obj 56 248 random 100;
#X obj 56 268 / 100;
#X floatatom 16 248 5 0 0 0 - - -;
#X floatatom 56 289 5 0 0 0 - - -;
#X msg 56 308 \$1 3000;
#X obj 56 329 line~;
#X obj 134 328 *~;
#X obj 174 247 random 100;
#X obj 174 267 / 100;
#X floatatom 134 247 5 0 0 0 - - -;
#X floatatom 174 288 5 0 0 0 - - -;
#X msg 174 307 \$1 3000;
#X obj 174 328 line~;
#X obj 255 267 osc~;
#X obj 255 328 *~;
#X obj 295 247 random 100;
#X obj 295 267 / 100;
#X floatatom 255 247 5 0 0 0 - - -;
#X floatatom 295 288 5 0 0 0 - - -;
#X msg 295 307 \$1 3000;
#X obj 295 328 line~;
#X obj 374 328 *~;
#X obj 414 247 random 100;
#X obj 414 267 / 100;
#X floatatom 374 247 5 0 0 0 - - -;
#X floatatom 414 288 5 0 0 0 - - -;
#X msg 414 307 \$1 3000;
#X obj 414 328 line~;
#X obj 494 267 osc~;
#X obj 494 328 *~;
#X obj 534 247 random 100;
#X obj 534 267 / 100;
#X floatatom 494 247 5 0 0 0 - - -;
#X floatatom 534 288 5 0 0 0 - - -;
#X msg 534 307 \$1 3000;
#X obj 534 328 line~;
#X obj 614 328 *~;
#X obj 654 247 random 100;
#X obj 654 267 / 100;
#X floatatom 614 247 5 0 0 0 - - -;
#X floatatom 654 288 5 0 0 0 - - -;
#X msg 654 307 \$1 3000;
#X obj 654 328 line~;
#X obj 134 227 * 2;
#X obj 255 227 * 3;
#X obj 374 227 * 4;
#X obj 494 227 * 5;
#X obj 614 227 * 6;
#X obj 732 267 osc~;
#X obj 732 328 *~;
#X obj 772 247 random 100;
#X obj 772 267 / 100;
#X floatatom 732 247 5 0 0 0 - - -;
#X floatatom 772 288 5 0 0 0 - - -;
#X msg 772 307 \$1 3000;
#X obj 772 328 line~;
#X obj 732 227 * 7;
#X obj 95 202 bng 15 250 50 0 empty empty empty 17 7 0 10 -262144 -1
-1;
#X floatatom 17 379 5 0 0 0 - - -;
#X text 13 353 Fundamental;
#X obj 17 403 * 1;
#X obj 17 443 osc~;
#X obj 17 504 *~;
#X obj 57 423 random 100;
#X obj 57 443 / 100;
#X floatatom 17 423 5 0 0 0 - - -;
#X floatatom 57 464 5 0 0 0 - - -;
#X msg 57 483 \$1 3000;
#X obj 57 504 line~;
#X obj 135 503 *~;
#X obj 175 422 random 100;
#X obj 175 442 / 100;
#X floatatom 135 422 5 0 0 0 - - -;
#X floatatom 175 463 5 0 0 0 - - -;
#X msg 175 482 \$1 3000;
#X obj 175 503 line~;
#X obj 256 442 osc~;
#X obj 256 503 *~;
#X obj 296 422 random 100;
#X obj 296 442 / 100;
#X floatatom 256 422 5 0 0 0 - - -;
#X floatatom 296 463 5 0 0 0 - - -;
#X msg 296 482 \$1 3000;
#X obj 296 503 line~;
#X obj 375 503 *~;
#X obj 415 422 random 100;
#X obj 415 442 / 100;
#X floatatom 375 422 5 0 0 0 - - -;
#X floatatom 415 463 5 0 0 0 - - -;
#X msg 415 482 \$1 3000;
#X obj 415 503 line~;
#X obj 495 442 osc~;
#X obj 495 503 *~;
#X obj 535 422 random 100;
#X obj 535 442 / 100;
#X floatatom 495 422 5 0 0 0 - - -;
#X floatatom 535 463 5 0 0 0 - - -;
#X msg 535 482 \$1 3000;
#X obj 535 503 line~;
#X obj 615 503 *~;
#X obj 655 422 random 100;
#X obj 655 442 / 100;
#X floatatom 615 422 5 0 0 0 - - -;
#X floatatom 655 463 5 0 0 0 - - -;
#X msg 655 482 \$1 3000;
#X obj 655 503 line~;
#X obj 135 402 * 2;
#X obj 256 402 * 3;
#X obj 375 402 * 4;
#X obj 495 402 * 5;
#X obj 615 402 * 6;
#X obj 733 442 osc~;
#X obj 733 503 *~;
#X obj 773 422 random 100;
#X obj 773 442 / 100;
#X floatatom 733 422 5 0 0 0 - - -;
#X floatatom 773 463 5 0 0 0 - - -;
#X msg 773 482 \$1 3000;
#X obj 773 503 line~;
#X obj 733 402 * 7;
#X obj 96 377 bng 15 250 50 0 empty empty empty 17 7 0 10 -262144 -1
-1;
#X floatatom 16 560 5 0 0 0 - - -;
#X text 12 534 Fundamental;
#X obj 16 584 * 1;
#X obj 16 624 osc~;
#X obj 16 685 *~;
#X obj 56 604 random 100;
#X obj 56 624 / 100;
#X floatatom 16 604 5 0 0 0 - - -;
#X floatatom 56 645 5 0 0 0 - - -;
#X msg 56 664 \$1 3000;
#X obj 56 685 line~;
#X obj 134 684 *~;
#X obj 174 603 random 100;
#X obj 174 623 / 100;
#X floatatom 134 603 5 0 0 0 - - -;
#X floatatom 174 644 5 0 0 0 - - -;
#X msg 174 663 \$1 3000;
#X obj 174 684 line~;
#X obj 255 623 osc~;
#X obj 255 684 *~;
#X obj 295 603 random 100;
#X obj 295 623 / 100;
#X floatatom 255 603 5 0 0 0 - - -;
#X floatatom 295 644 5 0 0 0 - - -;
#X msg 295 663 \$1 3000;
#X obj 295 684 line~;
#X obj 374 684 *~;
#X obj 414 603 random 100;
#X obj 414 623 / 100;
#X floatatom 374 603 5 0 0 0 - - -;
#X floatatom 414 644 5 0 0 0 - - -;
#X msg 414 663 \$1 3000;
#X obj 414 684 line~;
#X obj 494 623 osc~;
#X obj 494 684 *~;
#X obj 534 603 random 100;
#X obj 534 623 / 100;
#X floatatom 494 603 5 0 0 0 - - -;
#X floatatom 534 644 5 0 0 0 - - -;
#X msg 534 663 \$1 3000;
#X obj 534 684 line~;
#X obj 614 684 *~;
#X obj 654 603 random 100;
#X obj 654 623 / 100;
#X floatatom 614 603 5 0 0 0 - - -;
#X floatatom 654 644 5 0 0 0 - - -;
#X msg 654 663 \$1 3000;
#X obj 654 684 line~;
#X obj 134 583 * 2;
#X obj 255 583 * 3;
#X obj 374 583 * 4;
#X obj 494 583 * 5;
#X obj 614 583 * 6;
#X obj 732 623 osc~;
#X obj 732 684 *~;
#X obj 772 623 / 100;
#X floatatom 732 603 5 0 0 0 - - -;
#X floatatom 772 644 5 0 0 0 - - -;
#X msg 772 663 \$1 3000;
#X obj 772 684 line~;
#X obj 732 583 * 7;
#X obj 95 558 bng 15 250 50 0 empty empty empty 17 7 0 10 -262144 -1
-1;
#X floatatom 1241 39 5 0 0 0 - - -;
#X text 1237 13 Fundamental;
#X obj 1241 63 * 1;
#X obj 1241 103 osc~;
#X obj 1241 164 *~;
#X obj 1281 83 random 100;
#X obj 1281 103 / 100;
#X floatatom 1241 83 5 0 0 0 - - -;
#X floatatom 1281 124 5 0 0 0 - - -;
#X msg 1281 143 \$1 3000;
#X obj 1281 164 line~;
#X obj 1359 163 *~;
#X obj 1399 82 random 100;
#X obj 1399 102 / 100;
#X floatatom 1359 82 5 0 0 0 - - -;
#X floatatom 1399 123 5 0 0 0 - - -;
#X msg 1399 142 \$1 3000;
#X obj 1399 163 line~;
#X obj 1480 102 osc~;
#X obj 1480 163 *~;
#X obj 1520 82 random 100;
#X obj 1520 102 / 100;
#X floatatom 1480 82 5 0 0 0 - - -;
#X floatatom 1520 123 5 0 0 0 - - -;
#X msg 1520 142 \$1 3000;
#X obj 1520 163 line~;
#X obj 1599 163 *~;
#X obj 1639 82 random 100;
#X obj 1639 102 / 100;
#X floatatom 1599 82 5 0 0 0 - - -;
#X floatatom 1639 123 5 0 0 0 - - -;
#X msg 1639 142 \$1 3000;
#X obj 1639 163 line~;
#X obj 1719 102 osc~;
#X obj 1719 163 *~;
#X obj 1759 82 random 100;
#X obj 1759 102 / 100;
#X floatatom 1719 82 5 0 0 0 - - -;
#X floatatom 1759 123 5 0 0 0 - - -;
#X msg 1759 142 \$1 3000;
#X obj 1759 163 line~;
#X obj 1839 163 *~;
#X obj 1879 82 random 100;
#X obj 1879 102 / 100;
#X floatatom 1839 82 5 0 0 0 - - -;
#X floatatom 1879 123 5 0 0 0 - - -;
#X msg 1879 142 \$1 3000;
#X obj 1879 163 line~;
#X obj 1359 62 * 2;
#X obj 1480 62 * 3;
#X obj 1599 62 * 4;
#X obj 1719 62 * 5;
#X obj 1839 62 * 6;
#X obj 1957 102 osc~;
#X obj 1957 163 *~;
#X obj 1997 82 random 100;
#X obj 1997 102 / 100;
#X floatatom 1957 82 5 0 0 0 - - -;
#X floatatom 1997 123 5 0 0 0 - - -;
#X msg 1997 142 \$1 3000;
#X obj 1997 163 line~;
#X obj 1957 62 * 7;
#X obj 1320 37 bng 15 250 50 0 empty empty empty 17 7 0 10 -262144
-1 -1;
#X floatatom 1239 216 5 0 0 0 - - -;
#X text 1235 190 Fundamental;
#X obj 1239 240 * 1;
#X obj 1239 280 osc~;
#X obj 1239 341 *~;
#X obj 1279 260 random 100;
#X obj 1279 280 / 100;
#X floatatom 1239 260 5 0 0 0 - - -;
#X floatatom 1279 301 5 0 0 0 - - -;
#X msg 1279 320 \$1 3000;
#X obj 1279 341 line~;
#X obj 1357 340 *~;
#X obj 1397 259 random 100;
#X obj 1397 279 / 100;
#X floatatom 1357 259 5 0 0 0 - - -;
#X floatatom 1397 300 5 0 0 0 - - -;
#X msg 1397 319 \$1 3000;
#X obj 1397 340 line~;
#X obj 1478 279 osc~;
#X obj 1478 340 *~;
#X obj 1518 259 random 100;
#X obj 1518 279 / 100;
#X floatatom 1478 259 5 0 0 0 - - -;
#X floatatom 1518 300 5 0 0 0 - - -;
#X msg 1518 319 \$1 3000;
#X obj 1518 340 line~;
#X obj 1597 340 *~;
#X obj 1637 259 random 100;
#X obj 1637 279 / 100;
#X floatatom 1597 259 5 0 0 0 - - -;
#X floatatom 1637 300 5 0 0 0 - - -;
#X msg 1637 319 \$1 3000;
#X obj 1637 340 line~;
#X obj 1717 279 osc~;
#X obj 1717 340 *~;
#X obj 1757 259 random 100;
#X obj 1757 279 / 100;
#X floatatom 1717 259 5 0 0 0 - - -;
#X floatatom 1757 300 5 0 0 0 - - -;
#X msg 1757 319 \$1 3000;
#X obj 1757 340 line~;
#X obj 1837 340 *~;
#X obj 1877 259 random 100;
#X obj 1877 279 / 100;
#X floatatom 1837 259 5 0 0 0 - - -;
#X floatatom 1877 300 5 0 0 0 - - -;
#X msg 1877 319 \$1 3000;
#X obj 1877 340 line~;
#X obj 1357 239 * 2;
#X obj 1478 239 * 3;
#X obj 1597 239 * 4;
#X obj 1717 239 * 5;
#X obj 1837 239 * 6;
#X obj 1955 279 osc~;
#X obj 1955 340 *~;
#X obj 1995 259 random 100;
#X obj 1995 279 / 100;
#X floatatom 1955 259 5 0 0 0 - - -;
#X floatatom 1995 300 5 0 0 0 - - -;
#X msg 1995 319 \$1 3000;
#X obj 1995 340 line~;
#X obj 1955 239 * 7;
#X obj 1318 214 bng 15 250 50 0 empty empty empty 17 7 0 10 -262144
-1 -1;
#X floatatom 1238 390 5 0 0 0 - - -;
#X text 1234 364 Fundamental;
#X obj 1238 414 * 1;
#X obj 1238 454 osc~;
#X obj 1238 515 *~;
#X obj 1278 434 random 100;
#X obj 1278 454 / 100;
#X floatatom 1238 434 5 0 0 0 - - -;
#X floatatom 1278 475 5 0 0 0 - - -;
#X msg 1278 494 \$1 3000;
#X obj 1278 515 line~;
#X obj 1356 514 *~;
#X obj 1396 433 random 100;
#X obj 1396 453 / 100;
#X floatatom 1356 433 5 0 0 0 - - -;
#X floatatom 1396 474 5 0 0 0 - - -;
#X msg 1396 493 \$1 3000;
#X obj 1396 514 line~;
#X obj 1477 453 osc~;
#X obj 1477 514 *~;
#X obj 1517 433 random 100;
#X obj 1517 453 / 100;
#X floatatom 1477 433 5 0 0 0 - - -;
#X floatatom 1517 474 5 0 0 0 - - -;
#X msg 1517 493 \$1 3000;
#X obj 1517 514 line~;
#X obj 1596 514 *~;
#X obj 1636 433 random 100;
#X obj 1636 453 / 100;
#X floatatom 1596 433 5 0 0 0 - - -;
#X floatatom 1636 474 5 0 0 0 - - -;
#X msg 1636 493 \$1 3000;
#X obj 1636 514 line~;
#X obj 1716 453 osc~;
#X obj 1716 514 *~;
#X obj 1756 433 random 100;
#X obj 1756 453 / 100;
#X floatatom 1716 433 5 0 0 0 - - -;
#X floatatom 1756 474 5 0 0 0 - - -;
#X msg 1756 493 \$1 3000;
#X obj 1756 514 line~;
#X obj 1836 514 *~;
#X obj 1876 433 random 100;
#X obj 1876 453 / 100;
#X floatatom 1836 433 5 0 0 0 - - -;
#X floatatom 1876 474 5 0 0 0 - - -;
#X msg 1876 493 \$1 3000;
#X obj 1876 514 line~;
#X obj 1356 413 * 2;
#X obj 1477 413 * 3;
#X obj 1596 413 * 4;
#X obj 1716 413 * 5;
#X obj 1836 413 * 6;
#X obj 1954 453 osc~;
#X obj 1954 514 *~;
#X obj 1994 453 / 100;
#X floatatom 1954 433 5 0 0 0 - - -;
#X floatatom 1994 474 5 0 0 0 - - -;
#X msg 1994 493 \$1 3000;
#X obj 1994 514 line~;
#X obj 1954 413 * 7;
#X obj 1317 388 bng 15 250 50 0 empty empty empty 17 7 0 10 -262144
-1 -1;
#X floatatom 1234 566 5 0 0 0 - - -;
#X text 1230 540 Fundamental;
#X obj 1234 590 * 1;
#X obj 1234 630 osc~;
#X obj 1234 691 *~;
#X obj 1274 610 random 100;
#X obj 1274 630 / 100;
#X floatatom 1234 610 5 0 0 0 - - -;
#X floatatom 1274 651 5 0 0 0 - - -;
#X msg 1274 670 \$1 3000;
#X obj 1274 691 line~;
#X obj 1352 690 *~;
#X obj 1392 609 random 100;
#X obj 1392 629 / 100;
#X floatatom 1352 609 5 0 0 0 - - -;
#X floatatom 1392 650 5 0 0 0 - - -;
#X msg 1392 669 \$1 3000;
#X obj 1392 690 line~;
#X obj 1473 629 osc~;
#X obj 1473 690 *~;
#X obj 1513 609 random 100;
#X obj 1513 629 / 100;
#X floatatom 1473 609 5 0 0 0 - - -;
#X floatatom 1513 650 5 0 0 0 - - -;
#X msg 1513 669 \$1 3000;
#X obj 1513 690 line~;
#X obj 1592 690 *~;
#X obj 1632 609 random 100;
#X obj 1632 629 / 100;
#X floatatom 1592 609 5 0 0 0 - - -;
#X floatatom 1632 650 5 0 0 0 - - -;
#X msg 1632 669 \$1 3000;
#X obj 1632 690 line~;
#X obj 1712 629 osc~;
#X obj 1712 690 *~;
#X obj 1752 609 random 100;
#X obj 1752 629 / 100;
#X floatatom 1712 609 5 0 0 0 - - -;
#X floatatom 1752 650 5 0 0 0 - - -;
#X msg 1752 669 \$1 3000;
#X obj 1752 690 line~;
#X obj 1832 690 *~;
#X obj 1872 609 random 100;
#X obj 1872 629 / 100;
#X floatatom 1832 609 5 0 0 0 - - -;
#X floatatom 1872 650 5 0 0 0 - - -;
#X msg 1872 669 \$1 3000;
#X obj 1872 690 line~;
#X obj 1352 589 * 2;
#X obj 1473 589 * 3;
#X obj 1592 589 * 4;
#X obj 1712 589 * 5;
#X obj 1832 589 * 6;
#X obj 1950 629 osc~;
#X obj 1950 690 *~;
#X obj 1990 609 random 100;
#X obj 1990 629 / 100;
#X floatatom 1950 609 5 0 0 0 - - -;
#X floatatom 1990 650 5 0 0 0 - - -;
#X msg 1990 669 \$1 3000;
#X obj 1990 690 line~;
#X obj 1950 589 * 7;
#X obj 1313 564 bng 15 250 50 0 empty empty empty 17 7 0 10 -262144
-1 -1;
#X obj 772 602 random 100;
#X obj -209 24 csv_file;
#X msg -209 -9 read channels_R10_0.csv;
#X obj -239 9 bng 15 250 50 0 empty empty empty 17 7 0 10 -262144 -1
-1;
#X obj -164 47 bng 15 250 50 0 empty empty empty 17 7 0 10 -262144
-1 -1;
#X obj -209 48 t a a;
#X obj -209 72 list;
#X msg -109 7 rewind;
#X obj -205 98 packel 1 2 3;
#X msg -237 -110 loadbang;
#X obj -175 175 autoscale 50 16000;
#X msg -175 74 load -1.2 0.39;
#X obj -196 219 line;
#X obj -210 289 csv_file;
#X obj -153 232 bng 15 250 50 0 empty empty empty 17 7 0 10 -262144
-1 -1;
#X obj -165 312 bng 15 250 50 0 empty empty empty 17 7 0 10 -262144
-1 -1;
#X obj -210 313 t a a;
#X obj -210 337 list;
#X msg -110 272 rewind;
#X obj -210 364 packel 1 2 3;
#X obj -175 430 autoscale 50 16000;
#X obj -152 481 line;
#X obj -208 543 csv_file;
#X obj -238 528 bng 15 250 50 0 empty empty empty 17 7 0 10 -262144
-1 -1;
#X obj -163 566 bng 15 250 50 0 empty empty empty 17 7 0 10 -262144
-1 -1;
#X obj -208 567 t a a;
#X obj -208 591 list;
#X msg -108 526 rewind;
#X obj -208 618 packel 1 2 3;
#X obj -174 686 autoscale 50 16000;
#X obj -174 730 line;
#X obj -205 783 csv_file;
#X obj -235 768 bng 15 250 50 0 empty empty empty 17 7 0 10 -262144
-1 -1;
#X obj -160 806 bng 15 250 50 0 empty empty empty 17 7 0 10 -262144
-1 -1;
#X obj -205 807 t a a;
#X obj -205 831 list;
#X msg -105 766 rewind;
#X obj -205 858 packel 1 2 3;
#X obj -171 928 autoscale 50 16000;
#X obj -171 972 line;
#X msg -210 256 read channels_R10_1.csv;
#X msg -208 510 read channels_R10_2.csv;
#X msg -205 750 read channels_R10_3.csv;
#X obj 550 -117 tgl 15 0 empty empty empty 17 7 0 10 -262144 -1 -1
0 1;
#X msg -160 340 load -1.08 0.28;
#X msg -158 593 load -1.2 0.45;
#X msg -155 833 load -1.18 0.55;
#X obj 1028 26 csv_file;
#X obj 998 11 bng 15 250 50 0 empty empty empty 17 7 0 10 -262144 -1
-1;
#X obj 1073 49 bng 15 250 50 0 empty empty empty 17 7 0 10 -262144
-1 -1;
#X obj 1028 50 t a a;
#X obj 1028 74 list;
#X msg 1128 9 rewind;
#X obj 1028 101 packel 1 2 3;
#X msg 1000 -108 loadbang;
#X obj 1062 159 autoscale 50 16000;
#X obj 1062 203 line;
#X msg 1028 -7 read channels_R10_4.csv;
#X msg 1078 76 load -1.14 0.47;
#X obj 1032 269 csv_file;
#X obj 1002 254 bng 15 250 50 0 empty empty empty 17 7 0 10 -262144
-1 -1;
#X obj 1077 292 bng 15 250 50 0 empty empty empty 17 7 0 10 -262144
-1 -1;
#X obj 1032 293 t a a;
#X obj 1032 317 list;
#X msg 1132 252 rewind;
#X obj 1032 344 packel 1 2 3;
#X obj 1066 416 autoscale 50 16000;
#X obj 1066 460 line;
#X msg 1032 236 read channels_R10_5.csv;
#X msg 1082 319 load -0.99 0.27;
#X obj 1026 524 csv_file;
#X obj 996 509 bng 15 250 50 0 empty empty empty 17 7 0 10 -262144
-1 -1;
#X obj 1071 547 bng 15 250 50 0 empty empty empty 17 7 0 10 -262144
-1 -1;
#X obj 1026 548 t a a;
#X obj 1026 572 list;
#X msg 1126 507 rewind;
#X obj 1026 599 packel 1 2 3;
#X obj 1060 653 autoscale 50 16000;
#X obj 1060 697 line;
#X msg 1026 491 read channels_R10_6.csv;
#X msg 1076 574 load -1.38 0.32;
#X obj 1029 763 csv_file;
#X obj 999 748 bng 15 250 50 0 empty empty empty 17 7 0 10 -262144
-1 -1;
#X obj 1074 786 bng 15 250 50 0 empty empty empty 17 7 0 10 -262144
-1 -1;
#X obj 1029 787 t a a;
#X obj 1029 811 list;
#X msg 1129 746 rewind;
#X obj 1029 838 packel 1 2 3;
#X obj 1061 889 autoscale 50 16000;
#X obj 1061 933 line;
#X msg 1029 730 read channels_R10_7.csv;
#X msg 1079 813 load -1.23 0.27;
#X msg -175 197 \$1 300000;
#X msg -175 452 \$1 300000;
#X msg -174 708 \$1 300000;
#X msg -171 950 \$1 300000;
#X msg 1061 911 \$1 300000;
#X msg 1060 675 \$1 300000;
#X msg 1066 438 \$1 300000;
#X msg 1062 181 \$1 300000;
#X floatatom 849 68 5 0 0 0 - - -;
#X obj 438 195 *~ 0.125;
#X obj 842 100 bp~;
#X floatatom 873 86 5 0 0 0 - - -;
#X obj -98 152 line;
#X msg -121 53 load -2.3 0.47;
#X msg -121 131 \$1 30000;
#X obj 132 91 phasor~;
#X obj 372 91 phasor~;
#X obj 612 91 phasor~;
#X obj 134 267 phasor~;
#X obj 374 267 phasor~;
#X obj 614 267 phasor~;
#X obj 615 442 phasor~;
#X obj 375 442 phasor~;
#X obj 135 442 phasor~;
#X obj 614 623 phasor~;
#X obj 374 623 phasor~;
#X obj 134 623 phasor~;
#X obj 1359 102 phasor~;
#X obj 1599 102 phasor~;
#X obj 1839 102 phasor~;
#X obj 1837 279 phasor~;
#X obj 1597 279 phasor~;
#X obj 1357 279 phasor~;
#X obj 1356 453 phasor~;
#X obj 1596 453 phasor~;
#X obj 1836 453 phasor~;
#X obj 1832 629 phasor~;
#X obj 1592 629 phasor~;
#X obj 1352 629 phasor~;
#X floatatom 845 245 5 0 0 0 - - -;
#X obj 838 277 bp~;
#X floatatom 906 256 5 0 0 0 - - -;
#X floatatom 846 421 5 0 0 0 - - -;
#X obj 839 453 bp~;
#X floatatom 870 439 5 0 0 0 - - -;
#X floatatom 846 605 5 0 0 0 - - -;
#X obj 839 637 bp~;
#X floatatom 870 623 5 0 0 0 - - -;
#X obj 440 368 *~ 0.125;
#X obj 441 541 *~ 0.125;
#X obj 439 724 *~ 0.125;
#X obj -123 408 line;
#X msg -123 386 \$1 30000;
#X obj -123 664 line;
#X msg -123 642 \$1 30000;
#X obj -118 902 line;
#X msg -118 880 \$1 30000;
#X msg -123 313 load -2.39 0.32;
#X msg -123 568 load -2.34 0.47;
#X msg -119 810 load -2.4 0.38;
#X floatatom 2080 79 5 0 0 0 - - -;
#X obj 2073 111 bp~;
#X floatatom 2104 97 5 0 0 0 - - -;
#X floatatom 2076 259 5 0 0 0 - - -;
#X obj 2069 291 bp~;
#X floatatom 2100 277 5 0 0 0 - - -;
#X obj 1994 433 random 100;
#X floatatom 2073 432 5 0 0 0 - - -;
#X obj 2066 464 bp~;
#X floatatom 2097 450 5 0 0 0 - - -;
#X floatatom 2071 606 5 0 0 0 - - -;
#X obj 2064 638 bp~;
#X floatatom 2095 624 5 0 0 0 - - -;
#X obj 1553 200 *~ 0.125;
#X obj 1562 373 *~ 0.125;
#X obj 1564 543 *~ 0.125;
#X obj 1559 746 *~ 0.125;
#X obj 1117 140 line;
#X msg 1117 118 \$1 30000;
#X msg 1117 43 load -2.78 0.35;
#X obj 1115 390 line;
#X msg 1115 368 \$1 30000;
#X msg 1115 294 load -2.25 0.35;
#X obj 1113 639 line;
#X msg 1113 617 \$1 30000;
#X msg 1114 540 load -2.71 0.41;
#X obj 1124 877 line;
#X msg 1124 855 \$1 30000;
#X msg 1120 781 load -2.45 0.27;
#X text -166 -106 Click me 1st;
#X text 913 -108 Click me 2nd;
#X text 76 -106 Don't forget to turn on DSP and set gain to 0.7.;
#X text 583 -115 Toggle me twice to start processing data;
#X text 776 984 Gain;
#X text -117 94 log10(abs(curl(v));
#X text -178 159 log10(s);
#X text -213 119 log10(d);
#X text -205 -29 This is where the raw data is read in;
#X obj 460 -84 metro 30000;
#X obj 550 -85 metro 20000;
#X obj 2073 60 pink~;
#X obj -118 858 autoscale 0.1 100;
#X obj -123 620 autoscale 0.1 100;
#X obj -123 364 autoscale 0.1 100;
#X obj -121 109 autoscale 0.1 100;
#X obj 842 49 noise~;
#X obj 838 226 noise~;
#X obj 839 402 noise~;
#X obj 839 586 noise~;
#X obj 1117 96 autoscale 0.1 100;
#X obj 1115 346 autoscale 0.1 100;
#X obj 1113 595 autoscale 0.1 100;
#X obj 1124 833 autoscale 0.1 100;
#X obj 2064 587 noise~;
#X obj 2066 413 noise~;
#X obj 2069 240 noise~;
#X connect 1 0 2 0;
#X connect 1 1 3 0;
#X connect 2 0 7 0;
#X connect 3 0 8 0;
#X connect 4 0 5 0;
#X connect 5 0 6 0;
#X connect 6 0 7 1;
#X connect 6 0 8 1;
#X connect 7 0 0 0;
#X connect 8 0 0 1;
#X connect 9 0 2 0;
#X connect 9 1 3 0;
#X connect 10 0 2 0;
#X connect 10 1 3 0;
#X connect 11 0 2 0;
#X connect 11 1 3 0;
#X connect 12 0 2 0;
#X connect 12 1 3 0;
#X connect 13 0 2 0;
#X connect 13 1 3 0;
#X connect 14 0 2 0;
#X connect 14 1 3 0;
#X connect 15 0 2 0;
#X connect 15 1 3 0;
#X connect 16 0 18 0;
#X connect 16 0 64 0;
#X connect 16 0 65 0;
#X connect 16 0 66 0;
#X connect 16 0 67 0;
#X connect 16 0 68 0;
#X connect 16 0 77 0;
#X connect 16 0 618 0;
#X connect 18 0 23 0;
#X connect 19 0 20 0;
#X connect 20 0 619 0;
#X connect 21 0 22 0;
#X connect 22 0 24 0;
#X connect 23 0 19 0;
#X connect 24 0 25 0;
#X connect 25 0 26 0;
#X connect 26 0 20 1;
#X connect 27 0 619 0;
#X connect 28 0 29 0;
#X connect 29 0 31 0;
#X connect 30 0 625 0;
#X connect 31 0 32 0;
#X connect 32 0 33 0;
#X connect 33 0 27 1;
#X connect 34 0 35 0;
#X connect 35 0 619 0;
#X connect 36 0 37 0;
#X connect 37 0 39 0;
#X connect 38 0 34 0;
#X connect 39 0 40 0;
#X connect 40 0 41 0;
#X connect 41 0 35 1;
#X connect 42 0 619 0;
#X connect 43 0 44 0;
#X connect 44 0 46 0;
#X connect 45 0 626 0;
#X connect 46 0 47 0;
#X connect 47 0 48 0;
#X connect 48 0 42 1;
#X connect 49 0 50 0;
#X connect 50 0 619 0;
#X connect 51 0 52 0;
#X connect 52 0 54 0;
#X connect 53 0 49 0;
#X connect 54 0 55 0;
#X connect 55 0 56 0;
#X connect 56 0 50 1;
#X connect 57 0 619 0;
#X connect 58 0 59 0;
#X connect 59 0 61 0;
#X connect 60 0 627 0;
#X connect 61 0 62 0;
#X connect 62 0 63 0;
#X connect 63 0 57 1;
#X connect 64 0 30 0;
#X connect 65 0 38 0;
#X connect 66 0 45 0;
#X connect 67 0 53 0;
#X connect 68 0 60 0;
#X connect 69 0 70 0;
#X connect 70 0 619 0;
#X connect 71 0 72 0;
#X connect 72 0 74 0;
#X connect 73 0 69 0;
#X connect 74 0 75 0;
#X connect 75 0 76 0;
#X connect 76 0 70 1;
#X connect 77 0 73 0;
#X connect 78 0 21 0;
#X connect 78 0 28 0;
#X connect 78 0 36 0;
#X connect 78 0 43 0;
#X connect 78 0 51 0;
#X connect 78 0 58 0;
#X connect 78 0 71 0;
#X connect 79 0 81 0;
#X connect 79 0 127 0;
#X connect 79 0 128 0;
#X connect 79 0 129 0;
#X connect 79 0 130 0;
#X connect 79 0 131 0;
#X connect 79 0 140 0;
#X connect 81 0 86 0;
#X connect 82 0 83 0;
#X connect 83 0 658 0;
#X connect 84 0 85 0;
#X connect 85 0 87 0;
#X connect 86 0 82 0;
#X connect 87 0 88 0;
#X connect 88 0 89 0;
#X connect 89 0 83 1;
#X connect 90 0 658 0;
#X connect 91 0 92 0;
#X connect 92 0 94 0;
#X connect 93 0 628 0;
#X connect 94 0 95 0;
#X connect 95 0 96 0;
#X connect 96 0 90 1;
#X connect 97 0 98 0;
#X connect 98 0 658 0;
#X connect 99 0 100 0;
#X connect 100 0 102 0;
#X connect 101 0 97 0;
#X connect 102 0 103 0;
#X connect 103 0 104 0;
#X connect 104 0 98 1;
#X connect 105 0 658 0;
#X connect 106 0 107 0;
#X connect 107 0 109 0;
#X connect 108 0 629 0;
#X connect 109 0 110 0;
#X connect 110 0 111 0;
#X connect 111 0 105 1;
#X connect 112 0 113 0;
#X connect 113 0 658 0;
#X connect 114 0 115 0;
#X connect 115 0 117 0;
#X connect 116 0 112 0;
#X connect 117 0 118 0;
#X connect 118 0 119 0;
#X connect 119 0 113 1;
#X connect 120 0 658 0;
#X connect 121 0 122 0;
#X connect 122 0 124 0;
#X connect 123 0 630 0;
#X connect 124 0 125 0;
#X connect 125 0 126 0;
#X connect 126 0 120 1;
#X connect 127 0 93 0;
#X connect 128 0 101 0;
#X connect 129 0 108 0;
#X connect 130 0 116 0;
#X connect 131 0 123 0;
#X connect 132 0 133 0;
#X connect 133 0 658 0;
#X connect 134 0 135 0;
#X connect 135 0 137 0;
#X connect 136 0 132 0;
#X connect 137 0 138 0;
#X connect 138 0 139 0;
#X connect 139 0 133 1;
#X connect 140 0 136 0;
#X connect 141 0 84 0;
#X connect 141 0 91 0;
#X connect 141 0 99 0;
#X connect 141 0 106 0;
#X connect 141 0 114 0;
#X connect 141 0 121 0;
#X connect 141 0 134 0;
#X connect 142 0 144 0;
#X connect 142 0 190 0;
#X connect 142 0 191 0;
#X connect 142 0 192 0;
#X connect 142 0 193 0;
#X connect 142 0 194 0;
#X connect 142 0 203 0;
#X connect 144 0 149 0;
#X connect 145 0 146 0;
#X connect 146 0 659 0;
#X connect 147 0 148 0;
#X connect 148 0 150 0;
#X connect 149 0 145 0;
#X connect 150 0 151 0;
#X connect 151 0 152 0;
#X connect 152 0 146 1;
#X connect 153 0 659 0;
#X connect 154 0 155 0;
#X connect 155 0 157 0;
#X connect 156 0 633 0;
#X connect 157 0 158 0;
#X connect 158 0 159 0;
#X connect 159 0 153 1;
#X connect 160 0 161 0;
#X connect 161 0 659 0;
#X connect 162 0 163 0;
#X connect 163 0 165 0;
#X connect 164 0 160 0;
#X connect 165 0 166 0;
#X connect 166 0 167 0;
#X connect 167 0 161 1;
#X connect 168 0 659 0;
#X connect 169 0 170 0;
#X connect 170 0 172 0;
#X connect 171 0 632 0;
#X connect 172 0 173 0;
#X connect 173 0 174 0;
#X connect 174 0 168 1;
#X connect 175 0 176 0;
#X connect 176 0 659 0;
#X connect 177 0 178 0;
#X connect 178 0 180 0;
#X connect 179 0 175 0;
#X connect 180 0 181 0;
#X connect 181 0 182 0;
#X connect 182 0 176 1;
#X connect 183 0 659 0;
#X connect 184 0 185 0;
#X connect 185 0 187 0;
#X connect 186 0 631 0;
#X connect 187 0 188 0;
#X connect 188 0 189 0;
#X connect 189 0 183 1;
#X connect 190 0 156 0;
#X connect 191 0 164 0;
#X connect 192 0 171 0;
#X connect 193 0 179 0;
#X connect 194 0 186 0;
#X connect 195 0 196 0;
#X connect 196 0 659 0;
#X connect 197 0 198 0;
#X connect 198 0 200 0;
#X connect 199 0 195 0;
#X connect 200 0 201 0;
#X connect 201 0 202 0;
#X connect 202 0 196 1;
#X connect 203 0 199 0;
#X connect 204 0 147 0;
#X connect 204 0 154 0;
#X connect 204 0 162 0;
#X connect 204 0 169 0;
#X connect 204 0 177 0;
#X connect 204 0 184 0;
#X connect 204 0 197 0;
#X connect 205 0 207 0;
#X connect 205 0 253 0;
#X connect 205 0 254 0;
#X connect 205 0 255 0;
#X connect 205 0 256 0;
#X connect 205 0 257 0;
#X connect 205 0 265 0;
#X connect 207 0 212 0;
#X connect 208 0 209 0;
#X connect 209 0 660 0;
#X connect 210 0 211 0;
#X connect 211 0 213 0;
#X connect 212 0 208 0;
#X connect 213 0 214 0;
#X connect 214 0 215 0;
#X connect 215 0 209 1;
#X connect 216 0 660 0;
#X connect 217 0 218 0;
#X connect 218 0 220 0;
#X connect 219 0 636 0;
#X connect 220 0 221 0;
#X connect 221 0 222 0;
#X connect 222 0 216 1;
#X connect 223 0 224 0;
#X connect 224 0 660 0;
#X connect 225 0 226 0;
#X connect 226 0 228 0;
#X connect 227 0 223 0;
#X connect 228 0 229 0;
#X connect 229 0 230 0;
#X connect 230 0 224 1;
#X connect 231 0 660 0;
#X connect 232 0 233 0;
#X connect 233 0 235 0;
#X connect 234 0 635 0;
#X connect 235 0 236 0;
#X connect 236 0 237 0;
#X connect 237 0 231 1;
#X connect 238 0 239 0;
#X connect 239 0 660 0;
#X connect 240 0 241 0;
#X connect 241 0 243 0;
#X connect 242 0 238 0;
#X connect 243 0 244 0;
#X connect 244 0 245 0;
#X connect 245 0 239 1;
#X connect 246 0 660 0;
#X connect 247 0 248 0;
#X connect 248 0 250 0;
#X connect 249 0 634 0;
#X connect 250 0 251 0;
#X connect 251 0 252 0;
#X connect 252 0 246 1;
#X connect 253 0 219 0;
#X connect 254 0 227 0;
#X connect 255 0 234 0;
#X connect 256 0 242 0;
#X connect 257 0 249 0;
#X connect 258 0 259 0;
#X connect 259 0 660 0;
#X connect 260 0 262 0;
#X connect 261 0 258 0;
#X connect 262 0 263 0;
#X connect 263 0 264 0;
#X connect 264 0 259 1;
#X connect 265 0 261 0;
#X connect 266 0 210 0;
#X connect 266 0 217 0;
#X connect 266 0 225 0;
#X connect 266 0 232 0;
#X connect 266 0 240 0;
#X connect 266 0 247 0;
#X connect 266 0 518 0;
#X connect 267 0 269 0;
#X connect 267 0 315 0;
#X connect 267 0 316 0;
#X connect 267 0 317 0;
#X connect 267 0 318 0;
#X connect 267 0 319 0;
#X connect 267 0 328 0;
#X connect 269 0 274 0;
#X connect 270 0 271 0;
#X connect 271 0 683 0;
#X connect 272 0 273 0;
#X connect 273 0 275 0;
#X connect 274 0 270 0;
#X connect 275 0 276 0;
#X connect 276 0 277 0;
#X connect 277 0 271 1;
#X connect 278 0 683 0;
#X connect 279 0 280 0;
#X connect 280 0 282 0;
#X connect 281 0 637 0;
#X connect 282 0 283 0;
#X connect 283 0 284 0;
#X connect 284 0 278 1;
#X connect 285 0 286 0;
#X connect 286 0 683 0;
#X connect 287 0 288 0;
#X connect 288 0 290 0;
#X connect 289 0 285 0;
#X connect 290 0 291 0;
#X connect 291 0 292 0;
#X connect 292 0 286 1;
#X connect 293 0 683 0;
#X connect 294 0 295 0;
#X connect 295 0 297 0;
#X connect 296 0 638 0;
#X connect 297 0 298 0;
#X connect 298 0 299 0;
#X connect 299 0 293 1;
#X connect 300 0 301 0;
#X connect 301 0 683 0;
#X connect 302 0 303 0;
#X connect 303 0 305 0;
#X connect 304 0 300 0;
#X connect 305 0 306 0;
#X connect 306 0 307 0;
#X connect 307 0 301 1;
#X connect 308 0 683 0;
#X connect 309 0 310 0;
#X connect 310 0 312 0;
#X connect 311 0 639 0;
#X connect 312 0 313 0;
#X connect 313 0 314 0;
#X connect 314 0 308 1;
#X connect 315 0 281 0;
#X connect 316 0 289 0;
#X connect 317 0 296 0;
#X connect 318 0 304 0;
#X connect 319 0 311 0;
#X connect 320 0 321 0;
#X connect 321 0 683 0;
#X connect 322 0 323 0;
#X connect 323 0 325 0;
#X connect 324 0 320 0;
#X connect 325 0 326 0;
#X connect 326 0 327 0;
#X connect 327 0 321 1;
#X connect 328 0 324 0;
#X connect 329 0 272 0;
#X connect 329 0 279 0;
#X connect 329 0 287 0;
#X connect 329 0 294 0;
#X connect 329 0 302 0;
#X connect 329 0 309 0;
#X connect 329 0 322 0;
#X connect 330 0 332 0;
#X connect 330 0 378 0;
#X connect 330 0 379 0;
#X connect 330 0 380 0;
#X connect 330 0 381 0;
#X connect 330 0 382 0;
#X connect 330 0 391 0;
#X connect 332 0 337 0;
#X connect 333 0 334 0;
#X connect 334 0 684 0;
#X connect 335 0 336 0;
#X connect 336 0 338 0;
#X connect 337 0 333 0;
#X connect 338 0 339 0;
#X connect 339 0 340 0;
#X connect 340 0 334 1;
#X connect 341 0 684 0;
#X connect 342 0 343 0;
#X connect 343 0 345 0;
#X connect 344 0 642 0;
#X connect 345 0 346 0;
#X connect 346 0 347 0;
#X connect 347 0 341 1;
#X connect 348 0 349 0;
#X connect 349 0 684 0;
#X connect 350 0 351 0;
#X connect 351 0 353 0;
#X connect 352 0 348 0;
#X connect 353 0 354 0;
#X connect 354 0 355 0;
#X connect 355 0 349 1;
#X connect 356 0 684 0;
#X connect 357 0 358 0;
#X connect 358 0 360 0;
#X connect 359 0 641 0;
#X connect 360 0 361 0;
#X connect 361 0 362 0;
#X connect 362 0 356 1;
#X connect 363 0 364 0;
#X connect 364 0 684 0;
#X connect 365 0 366 0;
#X connect 366 0 368 0;
#X connect 367 0 363 0;
#X connect 368 0 369 0;
#X connect 369 0 370 0;
#X connect 370 0 364 1;
#X connect 371 0 684 0;
#X connect 372 0 373 0;
#X connect 373 0 375 0;
#X connect 374 0 640 0;
#X connect 375 0 376 0;
#X connect 376 0 377 0;
#X connect 377 0 371 1;
#X connect 378 0 344 0;
#X connect 379 0 352 0;
#X connect 380 0 359 0;
#X connect 381 0 367 0;
#X connect 382 0 374 0;
#X connect 383 0 384 0;
#X connect 384 0 684 0;
#X connect 385 0 386 0;
#X connect 386 0 388 0;
#X connect 387 0 383 0;
#X connect 388 0 389 0;
#X connect 389 0 390 0;
#X connect 390 0 384 1;
#X connect 391 0 387 0;
#X connect 392 0 335 0;
#X connect 392 0 342 0;
#X connect 392 0 350 0;
#X connect 392 0 357 0;
#X connect 392 0 365 0;
#X connect 392 0 372 0;
#X connect 392 0 385 0;
#X connect 393 0 395 0;
#X connect 393 0 441 0;
#X connect 393 0 442 0;
#X connect 393 0 443 0;
#X connect 393 0 444 0;
#X connect 393 0 445 0;
#X connect 393 0 453 0;
#X connect 395 0 400 0;
#X connect 396 0 397 0;
#X connect 397 0 685 0;
#X connect 398 0 399 0;
#X connect 399 0 401 0;
#X connect 400 0 396 0;
#X connect 401 0 402 0;
#X connect 402 0 403 0;
#X connect 403 0 397 1;
#X connect 404 0 685 0;
#X connect 405 0 406 0;
#X connect 406 0 408 0;
#X connect 407 0 643 0;
#X connect 408 0 409 0;
#X connect 409 0 410 0;
#X connect 410 0 404 1;
#X connect 411 0 412 0;
#X connect 412 0 685 0;
#X connect 413 0 414 0;
#X connect 414 0 416 0;
#X connect 415 0 411 0;
#X connect 416 0 417 0;
#X connect 417 0 418 0;
#X connect 418 0 412 1;
#X connect 419 0 685 0;
#X connect 420 0 421 0;
#X connect 421 0 423 0;
#X connect 422 0 644 0;
#X connect 423 0 424 0;
#X connect 424 0 425 0;
#X connect 425 0 419 1;
#X connect 426 0 427 0;
#X connect 427 0 685 0;
#X connect 428 0 429 0;
#X connect 429 0 431 0;
#X connect 430 0 426 0;
#X connect 431 0 432 0;
#X connect 432 0 433 0;
#X connect 433 0 427 1;
#X connect 434 0 685 0;
#X connect 435 0 436 0;
#X connect 436 0 438 0;
#X connect 437 0 645 0;
#X connect 438 0 439 0;
#X connect 439 0 440 0;
#X connect 440 0 434 1;
#X connect 441 0 407 0;
#X connect 442 0 415 0;
#X connect 443 0 422 0;
#X connect 444 0 430 0;
#X connect 445 0 437 0;
#X connect 446 0 447 0;
#X connect 447 0 685 0;
#X connect 448 0 450 0;
#X connect 449 0 446 0;
#X connect 450 0 451 0;
#X connect 451 0 452 0;
#X connect 452 0 447 1;
#X connect 453 0 449 0;
#X connect 454 0 398 0;
#X connect 454 0 405 0;
#X connect 454 0 413 0;
#X connect 454 0 420 0;
#X connect 454 0 428 0;
#X connect 454 0 435 0;
#X connect 454 0 676 0;
#X connect 455 0 457 0;
#X connect 455 0 503 0;
#X connect 455 0 504 0;
#X connect 455 0 505 0;
#X connect 455 0 506 0;
#X connect 455 0 507 0;
#X connect 455 0 516 0;
#X connect 457 0 462 0;
#X connect 458 0 459 0;
#X connect 459 0 686 0;
#X connect 460 0 461 0;
#X connect 461 0 463 0;
#X connect 462 0 458 0;
#X connect 463 0 464 0;
#X connect 464 0 465 0;
#X connect 465 0 459 1;
#X connect 466 0 686 0;
#X connect 467 0 468 0;
#X connect 468 0 470 0;
#X connect 469 0 648 0;
#X connect 470 0 471 0;
#X connect 471 0 472 0;
#X connect 472 0 466 1;
#X connect 473 0 474 0;
#X connect 474 0 686 0;
#X connect 475 0 476 0;
#X connect 476 0 478 0;
#X connect 477 0 473 0;
#X connect 478 0 479 0;
#X connect 479 0 480 0;
#X connect 480 0 474 1;
#X connect 481 0 686 0;
#X connect 482 0 483 0;
#X connect 483 0 485 0;
#X connect 484 0 647 0;
#X connect 485 0 486 0;
#X connect 486 0 487 0;
#X connect 487 0 481 1;
#X connect 488 0 489 0;
#X connect 489 0 686 0;
#X connect 490 0 491 0;
#X connect 491 0 493 0;
#X connect 492 0 488 0;
#X connect 493 0 494 0;
#X connect 494 0 495 0;
#X connect 495 0 489 1;
#X connect 496 0 686 0;
#X connect 497 0 498 0;
#X connect 498 0 500 0;
#X connect 499 0 646 0;
#X connect 500 0 501 0;
#X connect 501 0 502 0;
#X connect 502 0 496 1;
#X connect 503 0 469 0;
#X connect 504 0 477 0;
#X connect 505 0 484 0;
#X connect 506 0 492 0;
#X connect 507 0 499 0;
#X connect 508 0 509 0;
#X connect 509 0 686 0;
#X connect 510 0 511 0;
#X connect 511 0 513 0;
#X connect 512 0 508 0;
#X connect 513 0 514 0;
#X connect 514 0 515 0;
#X connect 515 0 509 1;
#X connect 516 0 512 0;
#X connect 517 0 460 0;
#X connect 517 0 467 0;
#X connect 517 0 475 0;
#X connect 517 0 482 0;
#X connect 517 0 490 0;
#X connect 517 0 497 0;
#X connect 517 0 510 0;
#X connect 518 0 260 0;
#X connect 519 0 523 0;
#X connect 519 2 522 0;
#X connect 519 2 525 0;
#X connect 520 0 519 0;
#X connect 521 0 519 0;
#X connect 523 0 524 0;
#X connect 524 0 526 0;
#X connect 525 0 519 0;
#X connect 526 1 528 0;
#X connect 526 2 714 0;
#X connect 527 0 520 0;
#X connect 527 0 558 0;
#X connect 527 0 559 0;
#X connect 527 0 560 0;
#X connect 528 0 610 0;
#X connect 529 0 528 0;
#X connect 530 0 16 0;
#X connect 531 0 534 0;
#X connect 531 2 533 0;
#X connect 531 2 536 0;
#X connect 532 0 531 0;
#X connect 534 0 535 0;
#X connect 535 0 537 0;
#X connect 536 0 531 0;
#X connect 537 1 538 0;
#X connect 537 2 713 0;
#X connect 538 0 611 0;
#X connect 539 0 79 0;
#X connect 539 0 649 0;
#X connect 540 0 543 0;
#X connect 540 2 542 0;
#X connect 540 2 545 0;
#X connect 541 0 540 0;
#X connect 543 0 544 0;
#X connect 544 0 546 0;
#X connect 545 0 540 0;
#X connect 546 1 547 0;
#X connect 546 2 712 0;
#X connect 547 0 612 0;
#X connect 548 0 142 0;
#X connect 548 0 652 0;
#X connect 549 0 552 0;
#X connect 549 2 551 0;
#X connect 549 2 554 0;
#X connect 550 0 549 0;
#X connect 552 0 553 0;
#X connect 553 0 555 0;
#X connect 554 0 549 0;
#X connect 555 1 556 0;
#X connect 555 2 711 0;
#X connect 556 0 613 0;
#X connect 557 0 205 0;
#X connect 557 0 655 0;
#X connect 558 0 531 0;
#X connect 559 0 540 0;
#X connect 560 0 549 0;
#X connect 561 0 708 0;
#X connect 561 0 709 0;
#X connect 562 0 538 0;
#X connect 563 0 547 0;
#X connect 564 0 556 0;
#X connect 565 0 568 0;
#X connect 565 2 567 0;
#X connect 565 2 570 0;
#X connect 566 0 565 0;
#X connect 568 0 569 0;
#X connect 569 0 571 0;
#X connect 570 0 565 0;
#X connect 571 1 573 0;
#X connect 571 2 719 0;
#X connect 572 0 575 0;
#X connect 572 0 586 0;
#X connect 572 0 597 0;
#X connect 572 0 608 0;
#X connect 573 0 617 0;
#X connect 574 0 267 0;
#X connect 574 0 670 0;
#X connect 575 0 565 0;
#X connect 576 0 573 0;
#X connect 577 0 580 0;
#X connect 577 2 579 0;
#X connect 577 2 582 0;
#X connect 578 0 577 0;
#X connect 580 0 581 0;
#X connect 581 0 583 0;
#X connect 582 0 577 0;
#X connect 583 1 584 0;
#X connect 583 2 720 0;
#X connect 584 0 616 0;
#X connect 585 0 330 0;
#X connect 585 0 673 0;
#X connect 586 0 577 0;
#X connect 587 0 584 0;
#X connect 588 0 591 0;
#X connect 588 2 590 0;
#X connect 588 2 593 0;
#X connect 589 0 588 0;
#X connect 591 0 592 0;
#X connect 592 0 594 0;
#X connect 593 0 588 0;
#X connect 594 1 595 0;
#X connect 594 2 721 0;
#X connect 595 0 615 0;
#X connect 596 0 393 0;
#X connect 596 0 677 0;
#X connect 597 0 588 0;
#X connect 598 0 595 0;
#X connect 599 0 602 0;
#X connect 599 2 601 0;
#X connect 599 2 604 0;
#X connect 600 0 599 0;
#X connect 602 0 603 0;
#X connect 603 0 605 0;
#X connect 604 0 599 0;
#X connect 605 1 606 0;
#X connect 605 2 722 0;
#X connect 606 0 614 0;
#X connect 607 0 455 0;
#X connect 607 0 680 0;
#X connect 608 0 599 0;
#X connect 609 0 606 0;
#X connect 610 0 530 0;
#X connect 611 0 539 0;
#X connect 612 0 548 0;
#X connect 613 0 557 0;
#X connect 614 0 607 0;
#X connect 615 0 596 0;
#X connect 616 0 585 0;
#X connect 617 0 574 0;
#X connect 618 0 620 1;
#X connect 619 0 9 0;
#X connect 620 0 619 0;
#X connect 621 0 620 2;
#X connect 622 0 621 0;
#X connect 623 0 714 0;
#X connect 624 0 622 0;
#X connect 625 0 27 0;
#X connect 626 0 42 0;
#X connect 627 0 57 0;
#X connect 628 0 90 0;
#X connect 629 0 105 0;
#X connect 630 0 120 0;
#X connect 631 0 183 0;
#X connect 632 0 168 0;
#X connect 633 0 153 0;
#X connect 634 0 246 0;
#X connect 635 0 231 0;
#X connect 636 0 216 0;
#X connect 637 0 278 0;
#X connect 638 0 293 0;
#X connect 639 0 308 0;
#X connect 640 0 371 0;
#X connect 641 0 356 0;
#X connect 642 0 341 0;
#X connect 643 0 404 0;
#X connect 644 0 419 0;
#X connect 645 0 434 0;
#X connect 646 0 496 0;
#X connect 647 0 481 0;
#X connect 648 0 466 0;
#X connect 649 0 650 1;
#X connect 650 0 658 0;
#X connect 651 0 650 2;
#X connect 652 0 653 1;
#X connect 653 0 659 0;
#X connect 654 0 653 2;
#X connect 655 0 656 1;
#X connect 656 0 660 0;
#X connect 657 0 656 2;
#X connect 658 0 15 0;
#X connect 659 0 1 0;
#X connect 660 0 14 0;
#X connect 661 0 651 0;
#X connect 662 0 661 0;
#X connect 663 0 654 0;
#X connect 664 0 663 0;
#X connect 665 0 657 0;
#X connect 666 0 665 0;
#X connect 667 0 713 0;
#X connect 668 0 712 0;
#X connect 669 0 711 0;
#X connect 670 0 671 1;
#X connect 671 0 683 0;
#X connect 672 0 671 2;
#X connect 673 0 674 1;
#X connect 674 0 684 0;
#X connect 675 0 674 2;
#X connect 676 0 448 0;
#X connect 677 0 678 1;
#X connect 678 0 685 0;
#X connect 679 0 678 2;
#X connect 680 0 681 1;
#X connect 681 0 686 0;
#X connect 682 0 681 2;
#X connect 683 0 10 0;
#X connect 684 0 11 0;
#X connect 685 0 12 0;
#X connect 686 0 13 0;
#X connect 687 0 672 0;
#X connect 688 0 687 0;
#X connect 689 0 719 0;
#X connect 690 0 675 0;
#X connect 691 0 690 0;
#X connect 692 0 720 0;
#X connect 693 0 679 0;
#X connect 694 0 693 0;
#X connect 695 0 721 0;
#X connect 696 0 682 0;
#X connect 697 0 696 0;
#X connect 698 0 722 0;
#X connect 708 0 521 0;
#X connect 708 0 532 0;
#X connect 708 0 541 0;
#X connect 708 0 550 0;
#X connect 708 0 566 0;
#X connect 708 0 578 0;
#X connect 708 0 589 0;
#X connect 708 0 600 0;
#X connect 709 0 78 0;
#X connect 709 0 141 0;
#X connect 709 0 204 0;
#X connect 709 0 266 0;
#X connect 709 0 329 0;
#X connect 709 0 392 0;
#X connect 709 0 454 0;
#X connect 709 0 517 0;
#X connect 710 0 671 0;
#X connect 711 0 666 0;
#X connect 712 0 664 0;
#X connect 713 0 662 0;
#X connect 714 0 624 0;
#X connect 715 0 620 0;
#X connect 716 0 650 0;
#X connect 717 0 653 0;
#X connect 718 0 656 0;
#X connect 719 0 688 0;
#X connect 720 0 691 0;
#X connect 721 0 694 0;
#X connect 722 0 697 0;
#X connect 723 0 681 0;
#X connect 724 0 678 0;
#X connect 725 0 674 0;
