#N canvas 602 289 455 564 10;
#X obj 52 15 hsl 128 15 0 2000 0 0 empty empty carrier_frequency_in_Hz
-2 -6 0 10 -262144 -1 -1 5800 1;
#X obj 83 168 osc~;
#X obj 83 259 *~;
#X obj 64 314 +~;
#X obj 65 365 osc~;
#X obj 56 489 dac~;
#X obj 103 453 tabwrite~ fm;
#X obj 139 420 metro 100;
#N canvas 0 22 450 278 (subpatch) 0;
#X coords 0 1 100 -1 200 140 1;
#X restore 238 351 graph;
#X obj 139 395 tgl 15 0 empty empty Graph_output 17 7 0 10 -262144
-1 -1 1 1;
#X obj 88 112 hsl 128 15 0 2000 0 0 empty empty modulation_frequency_in_Hz
-2 -8 0 10 -262144 -1 -1 3000 1;
#X obj 148 200 hsl 128 15 0 3000 0 0 empty empty modulation_amount_in_Hz
-2 -8 0 10 -262144 -1 -1 4700 1;
#X floatatom 53 38 5 0 0 0 - - -;
#X floatatom 84 132 5 0 0 0 - - -;
#X floatatom 146 219 5 0 0 0 - - -;
#X connect 0 0 12 0;
#X connect 1 0 2 0;
#X connect 2 0 3 1;
#X connect 3 0 4 0;
#X connect 4 0 5 0;
#X connect 4 0 6 0;
#X connect 4 0 5 1;
#X connect 7 0 6 0;
#X connect 9 0 7 0;
#X connect 10 0 13 0;
#X connect 11 0 14 0;
#X connect 12 0 3 0;
#X connect 13 0 1 0;
#X connect 14 0 2 1;
