#N canvas 51 59 1673 843 10;
#X declare -stdpath extra/list-abs -stdpath extra/moocow -stdpath extra/zexy
;
#X declare -stdpath extra/mrpeach;
#X msg -258 -54 read channels_R10_0.csv;
#X obj -73 -41 bng 15 250 50 0 empty empty empty 17 7 0 10 -262144
-1 -1;
#X obj -108 61 bng 15 250 50 0 empty empty empty 17 7 0 10 -262144
-1 -1;
#X obj -199 58 t a a;
#X obj -199 82 list;
#X msg -51 18 rewind;
#X obj -195 108 packel 1 2 3;
#X msg -227 -100 loadbang;
#X msg 2 362 load -1.2 0.39;
#X obj 5 524 line;
#X obj 858 96 line;
#X msg 801 -39 load -2.3 0.47;
#X msg 727 47 \$1 30000;
#X text -156 -96 Click me 1st;
#X text 756 -7 log10(abs(curl(v));
#X text -254 202 log10(d);
#X text -235 -77 This is where the raw data is read in;
#X obj 678 16 autoscale 0.1 100;
#X floatatom 242 106 5 0 0 0 - - -;
#X text 165 109 Fundamental;
#X obj 157 174 * 1;
#X obj 157 214 osc~;
#X obj 162 321 *~;
#X obj 197 194 random 100;
#X obj 197 214 / 100;
#X floatatom 157 194 5 0 0 0 - - -;
#X floatatom 197 235 5 0 0 0 - - -;
#X msg 197 254 \$1 3000;
#X obj 197 275 line~;
#X obj 275 274 *~;
#X obj 315 193 random 100;
#X obj 335 213 / 100;
#X floatatom 275 193 5 0 0 0 - - -;
#X floatatom 315 234 5 0 0 0 - - -;
#X msg 315 253 \$1 3000;
#X obj 315 274 line~;
#X obj 396 213 osc~;
#X obj 396 274 *~;
#X obj 436 193 random 100;
#X obj 436 213 / 100;
#X floatatom 396 193 5 0 0 0 - - -;
#X floatatom 436 234 5 0 0 0 - - -;
#X msg 436 253 \$1 3000;
#X obj 436 274 line~;
#X obj 515 274 *~;
#X obj 555 193 random 100;
#X obj 569 213 / 100;
#X floatatom 515 193 5 0 0 0 - - -;
#X floatatom 555 234 5 0 0 0 - - -;
#X msg 555 253 \$1 3000;
#X obj 555 274 line~;
#X obj 635 213 osc~;
#X obj 635 274 *~;
#X obj 675 193 random 100;
#X obj 675 213 / 100;
#X floatatom 635 193 5 0 0 0 - - -;
#X floatatom 675 234 5 0 0 0 - - -;
#X msg 675 253 \$1 3000;
#X obj 675 274 line~;
#X obj 755 274 *~;
#X obj 795 193 random 100;
#X obj 817 213 / 100;
#X floatatom 755 193 5 0 0 0 - - -;
#X floatatom 795 234 5 0 0 0 - - -;
#X msg 795 253 \$1 3000;
#X obj 795 274 line~;
#X obj 275 173 * 2;
#X obj 396 173 * 3;
#X obj 515 173 * 4;
#X obj 635 173 * 5;
#X obj 755 173 * 6;
#X obj 873 213 osc~;
#X obj 873 274 *~;
#X obj 913 193 random 100;
#X obj 913 213 / 100;
#X floatatom 873 193 5 0 0 0 - - -;
#X floatatom 913 234 5 0 0 0 - - -;
#X msg 913 253 \$1 3000;
#X obj 913 274 line~;
#X obj 873 173 * 7;
#X obj 462 86 bng 15 250 50 0 empty empty empty 17 7 0 10 -262144 -1
-1;
#X floatatom 1000 112 5 0 0 0 - - -;
#X obj 577 394 *~ 0.125;
#X obj 1070 145 bp~;
#X floatatom 1013 68 5 0 0 0 - - -;
#X obj 275 213 phasor~;
#X obj 515 213 phasor~;
#X obj 755 213 phasor~;
#X obj 560 -107 tgl 15 0 empty empty empty 17 7 0 10 -262144 -1 -1
1 1;
#X text 593 -105 Toggle me twice to start processing data;
#X obj 470 -74 metro 30000;
#X text 219 -98 This metro is the rate we step through the .csv;
#X obj 721 374 bng 15 250 50 0 empty empty empty 17 7 0 10 -262144
-1 -1;
#X msg 681 396 0;
#X obj 740 422 bng 15 250 50 0 empty empty empty 17 7 0 10 -262144
-1 -1;
#X msg 699 444 1;
#X text 490 84 Change each harmonic's volume randomly.;
#X text 581 -56 Harmonic randomisation rate;
#X text 100 24 Alternate harmonics are oscillators and phasors;
#X floatatom -223 178 5 0 0 0 - - -;
#X floatatom -157 177 5 0 0 0 - - -;
#X floatatom -57 127 5 0 0 0 - - -;
#X text -38 339 Load gives range of input data;
#X text 28 427 Autoscaled for frequency;
#X text -332 402 Why is the number sometimes registered as a "+"?;
#X obj 560 -75 metro 20000;
#X floatatom -74 427 5 0 0 0 - - -;
#X text 927 19 Curl is used for Q of bandpass filter;
#X text -229 318 log10(s): speed used for frequency and centre of BP
filter;
#X text 1023 190 Bandpass filter applied to noise;
#X text 778 392 Added crude on off switch for playing;
#X text -92 46 Rewind and start again when you finish;
#X text -288 569 Take value (from \$1 \, i.e. frequency) as target
and build to is over time frame of second argument. In patch from Dave
this number is larger than the metro rate on the speed variable. Why?
;
#X obj -199 34 csv_file;
#X floatatom 652 484 5 0 0 0 - - -;
#X obj 640 524 sig~;
#X obj 587 571 dac~;
#X obj 580 506 *~;
#X obj 1086 100 noise~;
#X text 26 216 comment;
#X msg -99 457 \$1 30000;
#X obj -22 402 autoscale 50 1600;
#X connect 0 0 113 0;
#X connect 1 0 113 0;
#X connect 3 0 4 0;
#X connect 4 0 6 0;
#X connect 5 0 113 0;
#X connect 6 0 99 0;
#X connect 6 1 100 0;
#X connect 6 2 101 0;
#X connect 7 0 0 0;
#X connect 8 0 121 0;
#X connect 9 0 18 0;
#X connect 9 0 81 0;
#X connect 10 0 84 0;
#X connect 11 0 17 0;
#X connect 12 0 10 0;
#X connect 17 0 12 0;
#X connect 18 0 20 0;
#X connect 18 0 66 0;
#X connect 18 0 67 0;
#X connect 18 0 68 0;
#X connect 18 0 69 0;
#X connect 18 0 70 0;
#X connect 18 0 79 0;
#X connect 20 0 25 0;
#X connect 21 0 22 0;
#X connect 22 0 82 0;
#X connect 23 0 24 0;
#X connect 24 0 26 0;
#X connect 25 0 21 0;
#X connect 26 0 27 0;
#X connect 27 0 28 0;
#X connect 28 0 22 1;
#X connect 29 0 82 0;
#X connect 30 0 31 0;
#X connect 31 0 33 0;
#X connect 32 0 85 0;
#X connect 33 0 34 0;
#X connect 34 0 35 0;
#X connect 35 0 29 1;
#X connect 36 0 37 0;
#X connect 37 0 82 0;
#X connect 38 0 39 0;
#X connect 39 0 41 0;
#X connect 40 0 36 0;
#X connect 41 0 42 0;
#X connect 42 0 43 0;
#X connect 43 0 37 1;
#X connect 44 0 82 0;
#X connect 45 0 46 0;
#X connect 46 0 48 0;
#X connect 47 0 86 0;
#X connect 48 0 49 0;
#X connect 49 0 50 0;
#X connect 50 0 44 1;
#X connect 51 0 52 0;
#X connect 52 0 82 0;
#X connect 53 0 54 0;
#X connect 54 0 56 0;
#X connect 55 0 51 0;
#X connect 56 0 57 0;
#X connect 57 0 58 0;
#X connect 58 0 52 1;
#X connect 59 0 82 0;
#X connect 60 0 61 0;
#X connect 61 0 63 0;
#X connect 62 0 87 0;
#X connect 63 0 64 0;
#X connect 64 0 65 0;
#X connect 65 0 59 1;
#X connect 66 0 32 0;
#X connect 67 0 40 0;
#X connect 68 0 47 0;
#X connect 69 0 55 0;
#X connect 70 0 62 0;
#X connect 71 0 72 0;
#X connect 72 0 82 0;
#X connect 73 0 74 0;
#X connect 74 0 76 0;
#X connect 75 0 71 0;
#X connect 76 0 77 0;
#X connect 77 0 78 0;
#X connect 78 0 72 1;
#X connect 79 0 75 0;
#X connect 80 0 23 0;
#X connect 80 0 30 0;
#X connect 80 0 38 0;
#X connect 80 0 45 0;
#X connect 80 0 53 0;
#X connect 80 0 60 0;
#X connect 80 0 73 0;
#X connect 81 0 83 1;
#X connect 82 0 117 0;
#X connect 83 0 82 0;
#X connect 84 0 83 2;
#X connect 85 0 29 0;
#X connect 86 0 44 0;
#X connect 87 0 59 0;
#X connect 88 0 90 0;
#X connect 88 0 105 0;
#X connect 90 0 1 0;
#X connect 92 0 93 0;
#X connect 93 0 82 1;
#X connect 94 0 95 0;
#X connect 95 0 82 1;
#X connect 100 0 121 0;
#X connect 101 0 17 0;
#X connect 105 0 80 0;
#X connect 106 0 120 0;
#X connect 113 0 3 0;
#X connect 113 2 2 0;
#X connect 113 2 5 0;
#X connect 114 0 115 0;
#X connect 115 0 117 1;
#X connect 117 0 116 0;
#X connect 117 0 116 1;
#X connect 118 0 83 0;
#X connect 120 0 9 0;
#X connect 121 0 106 0;
