#N canvas 1665 172 1671 767 10;
#X declare -stdpath extra/list-abs -stdpath extra/moocow -stdpath extra/zexy
;
#X declare -stdpath extra/mrpeach;
#X msg -216 -50 read channels_R10_0.csv;
#X obj 14 -23 bng 15 250 50 0 empty empty empty 17 7 0 10 -262144 -1
-1;
#X obj -108 58 bng 15 250 50 0 empty empty empty 17 7 0 10 -262144
-1 -1;
#X obj -199 58 t a a;
#X obj -199 82 list;
#X msg -51 34 rewind;
#X obj -199 106 packel 1 2 3;
#X msg -215 -100 loadbang;
#X msg 2 362 load -1.2 0.39;
#X obj 5 524 line;
#X obj 858 82 line;
#X msg 801 -54 load -2.3 0.47;
#X text -119 -99 Click me 1st;
#X text -293 177 log10(d);
#X text -179 -77 This is where the raw data is read in;
#X floatatom 234 243 5 0 0 0 - - -;
#X text 165 105 Fundamental;
#X floatatom 1057 82 5 0 0 0 - - -;
#X obj 577 403 *~ 0.125;
#X obj 1070 146 bp~;
#X floatatom 1198 58 5 0 0 0 - - -;
#X obj 560 -100 tgl 15 0 empty empty empty 17 7 0 10 -262144 -1 -1
1 1;
#X text 593 -101 Toggle me twice to start processing data;
#X text 219 -101 This metro is the rate we step through the .csv;
#X obj 721 362 bng 15 250 50 0 empty empty empty 17 7 0 10 -262144
-1 -1;
#X msg 681 403 0;
#X obj 740 427 bng 15 250 50 0 empty empty empty 17 7 0 10 -262144
-1 -1;
#X msg 681 427 1;
#X text 593 -80 Harmonic randomisation rate;
#X floatatom -223 178 5 0 0 0 - - -;
#X floatatom -157 178 5 0 0 0 - - -;
#X floatatom -57 127 5 0 0 0 - - -;
#X text -38 339 Load gives range of input data;
#X text -332 402 Why is the number sometimes registered as a "+"?;
#X floatatom -74 427 5 0 0 0 - - -;
#X text -229 318 log10(s): speed used for frequency and centre of BP
filter;
#X text 1023 177 Bandpass filter applied to noise;
#X text 778 402 Added crude on off switch for playing;
#X text -92 57 Rewind and start again when you finish;
#X text -288 569 Take value (from \$1 \, i.e. frequency) as target
and build to is over time frame of second argument. In patch from Dave
this number is larger than the metro rate on the speed variable. Why?
;
#X obj -199 34 csv_file;
#X floatatom 745 506 5 0 0 0 - - -;
#X obj 640 524 sig~;
#X obj 587 570 dac~;
#X obj 580 506 *~;
#X obj 1004 106 noise~;
#X obj 234 266 +~;
#X floatatom 395 178 5 0 0 0 - - -;
#X obj 395 201 osc~;
#X floatatom 437 146 5 0 0 0 - - -;
#X text 323 57 Added FM;
#X obj -269 267 line;
#X obj -63 226 line;
#X msg -10 127 load -2.3 0.47;
#X msg -223 201 load 0 7;
#X text 756 -7 curl scaled for BP;
#X text 927 33 comment;
#X obj 230 340 osc~;
#X text 490 81;
#X text 210 81;
#X text 28 426 P5 Carrier frequency;
#X text 10 201 P6 Modulatinfg frequency;
#X obj 395 225 *~ 140;
#X text -318 201 Modulation index;
#X obj -21 403 autoscale 200 500;
#X obj -63 178 autoscale 280 700;
#X obj -269 243 autoscale 0 10;
#X text 745 528 Gain;
#X obj 678 16 autoscale 1 10;
#X obj 523 362 *~ 1;
#X msg -269 267 \$1 300;
#X msg -63 202 \$1 300;
#X msg -96 457 \$1 300;
#X msg 727 58 \$1 300;
#X obj 384 -65 metro 300;
#X connect 0 0 40 0;
#X connect 1 0 40 0;
#X connect 3 0 4 0;
#X connect 4 0 6 0;
#X connect 5 0 40 0;
#X connect 6 0 29 0;
#X connect 6 1 30 0;
#X connect 6 2 31 0;
#X connect 7 0 0 0;
#X connect 8 0 64 0;
#X connect 9 0 15 0;
#X connect 9 0 17 0;
#X connect 10 0 20 0;
#X connect 11 0 68 0;
#X connect 15 0 46 0;
#X connect 17 0 19 1;
#X connect 18 0 44 0;
#X connect 19 0 69 0;
#X connect 20 0 19 2;
#X connect 21 0 74 0;
#X connect 24 0 25 0;
#X connect 25 0 18 1;
#X connect 26 0 27 0;
#X connect 27 0 18 1;
#X connect 29 0 66 0;
#X connect 30 0 64 0;
#X connect 31 0 65 0;
#X connect 31 0 68 0;
#X connect 34 0 72 0;
#X connect 40 0 3 0;
#X connect 40 2 2 0;
#X connect 40 2 5 0;
#X connect 41 0 42 0;
#X connect 42 0 44 1;
#X connect 44 0 43 0;
#X connect 44 0 43 1;
#X connect 45 0 19 0;
#X connect 46 0 57 0;
#X connect 47 0 48 0;
#X connect 48 0 62 0;
#X connect 49 0 62 1;
#X connect 51 0 49 0;
#X connect 52 0 47 0;
#X connect 53 0 65 0;
#X connect 54 0 66 0;
#X connect 57 0 69 0;
#X connect 62 0 46 1;
#X connect 64 0 34 0;
#X connect 65 0 71 0;
#X connect 66 0 70 0;
#X connect 68 0 73 0;
#X connect 69 0 18 0;
#X connect 70 0 51 0;
#X connect 71 0 52 0;
#X connect 72 0 9 0;
#X connect 73 0 10 0;
#X connect 74 0 1 0;
