#N canvas 26 80 1414 732 10;
#X declare -stdpath extra/list-abs -stdpath extra/moocow -stdpath extra/zexy
;
#X declare -stdpath extra/mrpeach;
#X msg -258 -54 read channels_R10_0.csv;
#X obj -73 -41 bng 15 250 50 0 empty empty empty 17 7 0 10 -262144
-1 -1;
#X obj -108 61 bng 15 250 50 0 empty empty empty 17 7 0 10 -262144
-1 -1;
#X obj -199 58 t a a;
#X obj -199 82 list;
#X msg -51 18 rewind;
#X obj -195 108 packel 1 2 3;
#X msg -227 -100 loadbang;
#X obj 5 524 line;
#X obj 846 75 line;
#X text -156 -96 Click me 1st;
#X text -293 177 log10(d);
#X text -235 -77 This is where the raw data is read in;
#X obj 678 16 autoscale 0.1 100;
#X floatatom 255 104 5 0 0 0 - - -;
#X text 165 109 Fundamental;
#X floatatom 783 96 5 0 0 0 - - -;
#X obj 594 358 bp~;
#X floatatom 816 143 5 0 0 0 - - -;
#X obj 560 -107 tgl 15 0 empty empty empty 17 7 0 10 -262144 -1 -1
1 1;
#X text 593 -105 Toggle me twice to start processing data;
#X text 219 -98 This metro is the rate we step through the .csv;
#X text 96 -17 Alternate harmonics are oscillators and phasors;
#X floatatom -223 178 5 0 0 0 - - -;
#X floatatom -157 177 5 0 0 0 - - -;
#X floatatom -57 127 5 0 0 0 - - -;
#X text 28 427 Autoscaled for frequency;
#X floatatom -76 425 5 0 0 0 - - -;
#X text -229 318 log10(s): speed used for frequency and centre of BP
filter;
#X text 1023 190 Bandpass filter applied to noise;
#X text -92 46 Rewind and start again when you finish;
#X text -288 569 Take value (from \$1 \, i.e. frequency) as target
and build to is over time frame of second argument. In patch from Dave
this number is larger than the metro rate on the speed variable. Why?
;
#X obj -199 34 csv_file;
#X floatatom 652 484 5 0 0 0 - - -;
#X obj 640 524 sig~;
#X obj 587 571 dac~;
#X obj 580 506 *~;
#X obj 590 238 noise~;
#X obj 255 133 +~;
#X floatatom 387 16 5 0 0 0 - - -;
#X obj 388 40 osc~;
#X obj 390 75 *~ 140;
#X floatatom 444 -30 5 0 0 0 - - -;
#X text 323 40 Added FM;
#X obj -273 300 line;
#X obj -70 229 line;
#X text -26 226 Curl scaled for FM;
#X text -318 201 scaled for FM;
#X text 756 -7 curl scaled for BP;
#X text 927 19 comment;
#X text -332 402 comment;
#X obj -270 242 autoscale 50 2000;
#X obj -22 402 autoscale 50 2000;
#X obj -64 170 autoscale 50 2000;
#X text 490 84;
#X obj 470 -74 metro 30000;
#X msg -96 457 \$1 30000;
#X msg -66 201 \$1 30000;
#X msg 727 47 \$1 30000;
#X msg -269 272 \$1 30000;
#X msg -216 212 load 2.1 5.2;
#X msg 2 362 load -1.5 0.5;
#X msg -10 138 load -2.8 0.6;
#X msg 801 -39 load -2.8 0.6;
#X obj 436 231 *~ 0.01;
#X obj 543 301 *~ 0.5;
#X connect 0 0 32 0;
#X connect 1 0 32 0;
#X connect 3 0 4 0;
#X connect 4 0 6 0;
#X connect 5 0 32 0;
#X connect 6 0 23 0;
#X connect 6 1 24 0;
#X connect 6 2 25 0;
#X connect 7 0 0 0;
#X connect 8 0 16 0;
#X connect 8 0 14 0;
#X connect 9 0 18 0;
#X connect 13 0 58 0;
#X connect 14 0 38 0;
#X connect 16 0 17 1;
#X connect 17 0 36 0;
#X connect 18 0 17 2;
#X connect 19 0 55 0;
#X connect 23 0 51 0;
#X connect 24 0 52 0;
#X connect 25 0 13 0;
#X connect 25 0 53 0;
#X connect 27 0 56 0;
#X connect 32 0 3 0;
#X connect 32 2 2 0;
#X connect 32 2 5 0;
#X connect 33 0 34 0;
#X connect 34 0 36 1;
#X connect 36 0 35 0;
#X connect 36 0 35 1;
#X connect 37 0 65 0;
#X connect 38 0 64 0;
#X connect 39 0 40 0;
#X connect 40 0 41 0;
#X connect 41 0 38 1;
#X connect 42 0 41 1;
#X connect 44 0 42 0;
#X connect 45 0 39 0;
#X connect 51 0 59 0;
#X connect 52 0 27 0;
#X connect 53 0 57 0;
#X connect 55 0 1 0;
#X connect 56 0 8 0;
#X connect 57 0 45 0;
#X connect 58 0 9 0;
#X connect 59 0 44 0;
#X connect 60 0 51 0;
#X connect 61 0 52 0;
#X connect 62 0 53 0;
#X connect 63 0 13 0;
#X connect 64 0 65 0;
#X connect 65 0 17 0;
