#N canvas 0 23 1680 1005 10;
#X declare -stdpath extra/list-abs -stdpath extra/moocow -stdpath extra/zexy
;
#X declare -stdpath extra/mrpeach;
#X declare -stdpath extra/list-abs -stdpath extra/moocow -stdpath extra/zexy
;
#X declare -stdpath extra/mrpeach;
#X declare -stdpath extra/list-abs -stdpath extra/moocow -stdpath extra/zexy
;
#X declare -stdpath extra/mrpeach;
#X declare -stdpath extra/list-abs -stdpath extra/moocow -stdpath extra/zexy
;
#X declare -stdpath extra/mrpeach;
#X declare -stdpath extra/list-abs -stdpath extra/moocow -stdpath extra/zexy
;
#X declare -stdpath extra/mrpeach;
#X declare -stdpath extra/list-abs -stdpath extra/moocow -stdpath extra/zexy
;
#X declare -stdpath extra/mrpeach;
#X declare -stdpath extra/list-abs -stdpath extra/moocow -stdpath extra/zexy
;
#X declare -stdpath extra/mrpeach;
#X declare -stdpath extra/list-abs -stdpath extra/moocow -stdpath extra/zexy
;
#X declare -stdpath extra/mrpeach;
#X declare -stdpath extra/list-abs -stdpath extra/moocow -stdpath extra/zexy
;
#X declare -stdpath extra/mrpeach;
#X declare -stdpath extra/list-abs -stdpath extra/moocow -stdpath extra/zexy
;
#X declare -stdpath extra/mrpeach;
#X declare -stdpath extra/list-abs -stdpath extra/moocow -stdpath extra/zexy
;
#X declare -stdpath extra/mrpeach;
#X obj 227 1303 hsl 128 15 0 1 0 0 empty empty empty -2 -8 0 10 -262144
-1 -1 0 1;
#X floatatom 224 1331 5 0 0 0 - - -;
#X obj 525 1234 sig~;
#X obj 411 1345 *~;
#X obj 441 1344 *~;
#X floatatom 96 33 5 0 0 0 - - -;
#X text 92 7 Fundamental;
#X obj 96 57 * 1;
#X obj 96 97 osc~;
#X obj 96 158 *~;
#X obj 136 77 random 100;
#X obj 136 97 / 100;
#X floatatom 96 77 5 0 0 0 - - -;
#X floatatom 136 118 5 0 0 0 - - -;
#X msg 136 137 \$1 3000;
#X obj 136 158 line~;
#X obj 214 157 *~;
#X obj 254 76 random 100;
#X obj 254 96 / 100;
#X floatatom 214 76 5 0 0 0 - - -;
#X floatatom 254 117 5 0 0 0 - - -;
#X msg 254 136 \$1 3000;
#X obj 254 157 line~;
#X obj 335 96 osc~;
#X obj 335 157 *~;
#X obj 375 76 random 100;
#X obj 375 96 / 100;
#X floatatom 335 76 5 0 0 0 - - -;
#X floatatom 375 117 5 0 0 0 - - -;
#X msg 375 136 \$1 3000;
#X obj 375 157 line~;
#X obj 454 157 *~;
#X obj 494 76 random 100;
#X obj 494 96 / 100;
#X floatatom 454 76 5 0 0 0 - - -;
#X floatatom 494 117 5 0 0 0 - - -;
#X msg 494 136 \$1 3000;
#X obj 494 157 line~;
#X obj 574 96 osc~;
#X obj 574 157 *~;
#X obj 614 76 random 100;
#X obj 614 96 / 100;
#X floatatom 574 76 5 0 0 0 - - -;
#X floatatom 614 117 5 0 0 0 - - -;
#X msg 614 136 \$1 3000;
#X obj 614 157 line~;
#X obj 214 56 * 2;
#X obj 335 56 * 3;
#X obj 454 56 * 4;
#X obj 574 56 * 5;
#X obj 176 23 bng 15 250 50 0 empty empty empty 17 7 0 10 -262144 -1
-1;
#X floatatom 98 209 5 0 0 0 - - -;
#X text 94 183 Fundamental;
#X obj 98 233 * 1;
#X obj 98 273 osc~;
#X obj 98 334 *~;
#X obj 138 253 random 100;
#X obj 138 273 / 100;
#X floatatom 98 253 5 0 0 0 - - -;
#X floatatom 138 294 5 0 0 0 - - -;
#X msg 138 313 \$1 3000;
#X obj 138 334 line~;
#X obj 216 333 *~;
#X obj 256 252 random 100;
#X obj 256 272 / 100;
#X floatatom 216 252 5 0 0 0 - - -;
#X floatatom 256 293 5 0 0 0 - - -;
#X msg 256 312 \$1 3000;
#X obj 256 333 line~;
#X obj 337 272 osc~;
#X obj 337 333 *~;
#X obj 377 252 random 100;
#X obj 377 272 / 100;
#X floatatom 337 252 5 0 0 0 - - -;
#X floatatom 377 293 5 0 0 0 - - -;
#X msg 377 312 \$1 3000;
#X obj 377 333 line~;
#X obj 456 333 *~;
#X obj 496 252 random 100;
#X obj 496 272 / 100;
#X floatatom 456 252 5 0 0 0 - - -;
#X floatatom 496 293 5 0 0 0 - - -;
#X msg 496 312 \$1 3000;
#X obj 496 333 line~;
#X obj 576 272 osc~;
#X obj 576 333 *~;
#X obj 616 252 random 100;
#X obj 616 272 / 100;
#X floatatom 576 252 5 0 0 0 - - -;
#X floatatom 616 293 5 0 0 0 - - -;
#X msg 616 312 \$1 3000;
#X obj 616 333 line~;
#X obj 216 232 * 2;
#X obj 337 232 * 3;
#X obj 456 232 * 4;
#X obj 576 232 * 5;
#X obj 177 207 bng 15 250 50 0 empty empty empty 17 7 0 10 -262144
-1 -1;
#X floatatom 99 384 5 0 0 0 - - -;
#X text 95 358 Fundamental;
#X obj 99 408 * 1;
#X obj 99 448 osc~;
#X obj 99 509 *~;
#X obj 139 428 random 100;
#X obj 139 448 / 100;
#X floatatom 99 428 5 0 0 0 - - -;
#X floatatom 139 469 5 0 0 0 - - -;
#X msg 139 488 \$1 3000;
#X obj 139 509 line~;
#X obj 217 508 *~;
#X obj 257 427 random 100;
#X obj 257 447 / 100;
#X floatatom 217 427 5 0 0 0 - - -;
#X floatatom 257 468 5 0 0 0 - - -;
#X msg 257 487 \$1 3000;
#X obj 257 508 line~;
#X obj 338 447 osc~;
#X obj 338 508 *~;
#X obj 378 427 random 100;
#X obj 378 447 / 100;
#X floatatom 338 427 5 0 0 0 - - -;
#X floatatom 378 468 5 0 0 0 - - -;
#X msg 378 487 \$1 3000;
#X obj 378 508 line~;
#X obj 457 508 *~;
#X obj 497 427 random 100;
#X obj 497 447 / 100;
#X floatatom 457 427 5 0 0 0 - - -;
#X floatatom 497 468 5 0 0 0 - - -;
#X msg 497 487 \$1 3000;
#X obj 497 508 line~;
#X obj 577 447 osc~;
#X obj 577 508 *~;
#X obj 617 427 random 100;
#X obj 617 447 / 100;
#X floatatom 577 427 5 0 0 0 - - -;
#X floatatom 617 468 5 0 0 0 - - -;
#X msg 617 487 \$1 3000;
#X obj 617 508 line~;
#X obj 217 407 * 2;
#X obj 338 407 * 3;
#X obj 457 407 * 4;
#X obj 577 407 * 5;
#X obj 178 382 bng 15 250 50 0 empty empty empty 17 7 0 10 -262144
-1 -1;
#X floatatom 98 565 5 0 0 0 - - -;
#X text 94 539 Fundamental;
#X obj 98 589 * 1;
#X obj 98 629 osc~;
#X obj 98 690 *~;
#X obj 138 609 random 100;
#X obj 138 629 / 100;
#X floatatom 98 609 5 0 0 0 - - -;
#X floatatom 138 650 5 0 0 0 - - -;
#X msg 138 669 \$1 3000;
#X obj 138 690 line~;
#X obj 216 689 *~;
#X obj 256 608 random 100;
#X obj 256 628 / 100;
#X floatatom 216 608 5 0 0 0 - - -;
#X floatatom 256 649 5 0 0 0 - - -;
#X msg 256 668 \$1 3000;
#X obj 256 689 line~;
#X obj 337 628 osc~;
#X obj 337 689 *~;
#X obj 377 608 random 100;
#X obj 377 628 / 100;
#X floatatom 337 608 5 0 0 0 - - -;
#X floatatom 377 649 5 0 0 0 - - -;
#X msg 377 668 \$1 3000;
#X obj 377 689 line~;
#X obj 456 689 *~;
#X obj 496 608 random 100;
#X obj 496 628 / 100;
#X floatatom 456 608 5 0 0 0 - - -;
#X floatatom 496 649 5 0 0 0 - - -;
#X msg 496 668 \$1 3000;
#X obj 496 689 line~;
#X obj 576 628 osc~;
#X obj 576 689 *~;
#X obj 616 608 random 100;
#X obj 616 628 / 100;
#X floatatom 576 608 5 0 0 0 - - -;
#X floatatom 616 649 5 0 0 0 - - -;
#X msg 616 668 \$1 3000;
#X obj 616 689 line~;
#X obj 216 588 * 2;
#X obj 337 588 * 3;
#X obj 456 588 * 4;
#X obj 576 588 * 5;
#X obj 177 563 bng 15 250 50 0 empty empty empty 17 7 0 10 -262144
-1 -1;
#X floatatom 1241 39 5 0 0 0 - - -;
#X text 1237 13 Fundamental;
#X obj 1241 63 * 1;
#X obj 1241 103 osc~;
#X obj 1241 164 *~;
#X obj 1281 83 random 100;
#X obj 1281 103 / 100;
#X floatatom 1241 83 5 0 0 0 - - -;
#X floatatom 1281 124 5 0 0 0 - - -;
#X msg 1281 143 \$1 3000;
#X obj 1281 164 line~;
#X obj 1359 163 *~;
#X obj 1399 82 random 100;
#X obj 1399 102 / 100;
#X floatatom 1359 82 5 0 0 0 - - -;
#X floatatom 1399 123 5 0 0 0 - - -;
#X msg 1399 142 \$1 3000;
#X obj 1399 163 line~;
#X obj 1480 102 osc~;
#X obj 1480 163 *~;
#X obj 1520 82 random 100;
#X obj 1520 102 / 100;
#X floatatom 1480 82 5 0 0 0 - - -;
#X floatatom 1520 123 5 0 0 0 - - -;
#X msg 1520 142 \$1 3000;
#X obj 1520 163 line~;
#X obj 1599 163 *~;
#X obj 1639 82 random 100;
#X obj 1639 102 / 100;
#X floatatom 1599 82 5 0 0 0 - - -;
#X floatatom 1639 123 5 0 0 0 - - -;
#X msg 1639 142 \$1 3000;
#X obj 1639 163 line~;
#X obj 1719 102 osc~;
#X obj 1719 163 *~;
#X obj 1759 82 random 100;
#X obj 1759 102 / 100;
#X floatatom 1719 82 5 0 0 0 - - -;
#X floatatom 1759 123 5 0 0 0 - - -;
#X msg 1759 142 \$1 3000;
#X obj 1759 163 line~;
#X obj 1359 62 * 2;
#X obj 1480 62 * 3;
#X obj 1599 62 * 4;
#X obj 1719 62 * 5;
#X obj 1320 37 bng 15 250 50 0 empty empty empty 17 7 0 10 -262144
-1 -1;
#X floatatom 1239 216 5 0 0 0 - - -;
#X text 1235 190 Fundamental;
#X obj 1239 240 * 1;
#X obj 1239 280 osc~;
#X obj 1239 341 *~;
#X obj 1279 260 random 100;
#X obj 1279 280 / 100;
#X floatatom 1239 260 5 0 0 0 - - -;
#X floatatom 1279 301 5 0 0 0 - - -;
#X msg 1279 320 \$1 3000;
#X obj 1279 341 line~;
#X obj 1357 340 *~;
#X obj 1397 259 random 100;
#X obj 1397 279 / 100;
#X floatatom 1357 259 5 0 0 0 - - -;
#X floatatom 1397 300 5 0 0 0 - - -;
#X msg 1397 319 \$1 3000;
#X obj 1397 340 line~;
#X obj 1478 279 osc~;
#X obj 1478 340 *~;
#X obj 1518 259 random 100;
#X obj 1518 279 / 100;
#X floatatom 1478 259 5 0 0 0 - - -;
#X floatatom 1518 300 5 0 0 0 - - -;
#X msg 1518 319 \$1 3000;
#X obj 1518 340 line~;
#X obj 1597 340 *~;
#X obj 1637 259 random 100;
#X obj 1637 279 / 100;
#X floatatom 1597 259 5 0 0 0 - - -;
#X floatatom 1637 300 5 0 0 0 - - -;
#X msg 1637 319 \$1 3000;
#X obj 1637 340 line~;
#X obj 1717 279 osc~;
#X obj 1717 340 *~;
#X obj 1757 259 random 100;
#X obj 1757 279 / 100;
#X floatatom 1717 259 5 0 0 0 - - -;
#X floatatom 1757 300 5 0 0 0 - - -;
#X msg 1757 319 \$1 3000;
#X obj 1757 340 line~;
#X obj 1357 239 * 2;
#X obj 1478 239 * 3;
#X obj 1597 239 * 4;
#X obj 1717 239 * 5;
#X obj 1318 214 bng 15 250 50 0 empty empty empty 17 7 0 10 -262144
-1 -1;
#X floatatom 1238 390 5 0 0 0 - - -;
#X text 1234 364 Fundamental;
#X obj 1238 414 * 1;
#X obj 1238 454 osc~;
#X obj 1238 515 *~;
#X obj 1278 434 random 100;
#X obj 1278 454 / 100;
#X floatatom 1238 434 5 0 0 0 - - -;
#X floatatom 1278 475 5 0 0 0 - - -;
#X msg 1278 494 \$1 3000;
#X obj 1278 515 line~;
#X obj 1356 514 *~;
#X obj 1396 433 random 100;
#X obj 1396 453 / 100;
#X floatatom 1356 433 5 0 0 0 - - -;
#X floatatom 1396 474 5 0 0 0 - - -;
#X msg 1396 493 \$1 3000;
#X obj 1396 514 line~;
#X obj 1477 453 osc~;
#X obj 1477 514 *~;
#X obj 1517 433 random 100;
#X obj 1517 453 / 100;
#X floatatom 1477 433 5 0 0 0 - - -;
#X floatatom 1517 474 5 0 0 0 - - -;
#X msg 1517 493 \$1 3000;
#X obj 1517 514 line~;
#X obj 1596 514 *~;
#X obj 1636 433 random 100;
#X obj 1636 453 / 100;
#X floatatom 1596 433 5 0 0 0 - - -;
#X floatatom 1636 474 5 0 0 0 - - -;
#X msg 1636 493 \$1 3000;
#X obj 1636 514 line~;
#X obj 1716 453 osc~;
#X obj 1716 514 *~;
#X obj 1756 433 random 100;
#X obj 1756 453 / 100;
#X floatatom 1716 433 5 0 0 0 - - -;
#X floatatom 1756 474 5 0 0 0 - - -;
#X msg 1756 493 \$1 3000;
#X obj 1756 514 line~;
#X obj 1356 413 * 2;
#X obj 1477 413 * 3;
#X obj 1596 413 * 4;
#X obj 1716 413 * 5;
#X obj 1317 388 bng 15 250 50 0 empty empty empty 17 7 0 10 -262144
-1 -1;
#X floatatom 1234 566 5 0 0 0 - - -;
#X text 1230 540 Fundamental;
#X obj 1234 590 * 1;
#X obj 1234 630 osc~;
#X obj 1234 691 *~;
#X obj 1274 610 random 100;
#X obj 1274 630 / 100;
#X floatatom 1234 610 5 0 0 0 - - -;
#X floatatom 1274 651 5 0 0 0 - - -;
#X msg 1274 670 \$1 3000;
#X obj 1274 691 line~;
#X obj 1352 690 *~;
#X obj 1392 609 random 100;
#X obj 1392 629 / 100;
#X floatatom 1352 609 5 0 0 0 - - -;
#X floatatom 1392 650 5 0 0 0 - - -;
#X msg 1392 669 \$1 3000;
#X obj 1392 690 line~;
#X obj 1473 629 osc~;
#X obj 1473 690 *~;
#X obj 1513 609 random 100;
#X obj 1513 629 / 100;
#X floatatom 1473 609 5 0 0 0 - - -;
#X floatatom 1513 650 5 0 0 0 - - -;
#X msg 1513 669 \$1 3000;
#X obj 1513 690 line~;
#X obj 1592 690 *~;
#X obj 1632 609 random 100;
#X obj 1632 629 / 100;
#X floatatom 1592 609 5 0 0 0 - - -;
#X floatatom 1632 650 5 0 0 0 - - -;
#X msg 1632 669 \$1 3000;
#X obj 1632 690 line~;
#X obj 1712 629 osc~;
#X obj 1712 690 *~;
#X obj 1752 609 random 100;
#X obj 1752 629 / 100;
#X floatatom 1712 609 5 0 0 0 - - -;
#X floatatom 1752 650 5 0 0 0 - - -;
#X msg 1752 669 \$1 3000;
#X obj 1752 690 line~;
#X obj 1352 589 * 2;
#X obj 1473 589 * 3;
#X obj 1592 589 * 4;
#X obj 1712 589 * 5;
#X obj 1313 564 bng 15 250 50 0 empty empty empty 17 7 0 10 -262144
-1 -1;
#X obj -239 9 bng 15 250 50 0 empty empty empty 17 7 0 10 -262144 -1
-1;
#X obj -164 47 bng 15 250 50 0 empty empty empty 17 7 0 10 -262144
-1 -1;
#X obj -209 48 t a a;
#X obj -209 72 list;
#X msg -109 7 rewind;
#X obj -182 201 line;
#X obj -237 332 bng 15 250 50 0 empty empty empty 17 7 0 10 -262144
-1 -1;
#X obj -164 404 bng 15 250 50 0 empty empty empty 17 7 0 10 -262144
-1 -1;
#X obj -209 405 t a a;
#X obj -209 429 list;
#X msg -109 364 rewind;
#X obj -175 533 line;
#X obj -242 670 bng 15 250 50 0 empty empty empty 17 7 0 10 -262144
-1 -1;
#X obj -167 708 bng 15 250 50 0 empty empty empty 17 7 0 10 -262144
-1 -1;
#X obj -212 709 t a a;
#X obj -212 733 list;
#X msg -112 668 rewind;
#X obj -178 843 line;
#X obj -241 991 bng 15 250 50 0 empty empty empty 17 7 0 10 -262144
-1 -1;
#X obj -166 1029 bng 15 250 50 0 empty empty empty 17 7 0 10 -262144
-1 -1;
#X obj -211 1030 t a a;
#X obj -211 1054 list;
#X msg -111 989 rewind;
#X obj -177 1166 line;
#X obj 919 -121 tgl 15 0 empty empty empty 17 7 0 10 -262144 -1 -1
0 1;
#X obj 998 11 bng 15 250 50 0 empty empty empty 17 7 0 10 -262144 -1
-1;
#X obj 1073 49 bng 15 250 50 0 empty empty empty 17 7 0 10 -262144
-1 -1;
#X obj 1028 50 t a a;
#X obj 1028 74 list;
#X msg 1128 9 rewind;
#X obj 1062 179 line;
#X obj 1003 341 bng 15 250 50 0 empty empty empty 17 7 0 10 -262144
-1 -1;
#X obj 1078 379 bng 15 250 50 0 empty empty empty 17 7 0 10 -262144
-1 -1;
#X obj 1033 380 t a a;
#X obj 1033 404 list;
#X msg 1133 339 rewind;
#X obj 1067 504 line;
#X obj 993 633 bng 15 250 50 0 empty empty empty 17 7 0 10 -262144
-1 -1;
#X obj 1068 671 bng 15 250 50 0 empty empty empty 17 7 0 10 -262144
-1 -1;
#X obj 1023 672 t a a;
#X obj 1023 696 list;
#X msg 1123 631 rewind;
#X obj 1057 796 line;
#X obj 990 924 bng 15 250 50 0 empty empty empty 17 7 0 10 -262144
-1 -1;
#X obj 1065 962 bng 15 250 50 0 empty empty empty 17 7 0 10 -262144
-1 -1;
#X obj 1020 963 t a a;
#X obj 1020 987 list;
#X msg 1120 922 rewind;
#X obj 1054 1088 line;
#X msg -182 179 \$1 300000;
#X msg -175 507 \$1 300000;
#X msg -178 821 \$1 300000;
#X msg -177 1144 \$1 300000;
#X msg 1054 1066 \$1 300000;
#X msg 1057 774 \$1 300000;
#X msg 1067 482 \$1 300000;
#X msg 1062 157 \$1 300000;
#X floatatom 596 172 5 0 0 0 - - -;
#X obj 589 204 bp~;
#X floatatom 620 190 5 0 0 0 - - -;
#X floatatom 592 358 5 0 0 0 - - -;
#X obj 585 390 bp~;
#X floatatom 613 374 5 0 0 0 - - -;
#X floatatom 594 530 5 0 0 0 - - -;
#X obj 587 562 bp~;
#X floatatom 618 548 5 0 0 0 - - -;
#X floatatom 585 727 5 0 0 0 - - -;
#X obj 578 759 bp~;
#X floatatom 609 745 5 0 0 0 - - -;
#X floatatom 1627 184 5 0 0 0 - - -;
#X obj 1620 216 bp~;
#X floatatom 1651 202 5 0 0 0 - - -;
#X floatatom 1623 362 5 0 0 0 - - -;
#X obj 1616 394 bp~;
#X floatatom 1647 380 5 0 0 0 - - -;
#X floatatom 1643 535 5 0 0 0 - - -;
#X obj 1636 567 bp~;
#X floatatom 1667 553 5 0 0 0 - - -;
#X floatatom 1623 719 5 0 0 0 - - -;
#X obj 1616 751 bp~;
#X floatatom 1647 737 5 0 0 0 - - -;
#X text 846 -151 Don't forget to turn on DSP and set gain to 0.7.;
#X text 952 -119 Toggle me twice to start processing data;
#X text 228 1283 Gain;
#X text -121 119 log10(abs(curl(v));
#X text -185 141 log10(s);
#X text -217 119 log10(d);
#X text -205 -29 This is where the raw data is read in;
#X obj 829 -88 metro 30000;
#X obj 470 1343 *~;
#X obj 496 1343 *~;
#X obj 529 1342 *~;
#X obj 559 1340 *~;
#X obj 587 1340 *~;
#X obj 616 1340 *~;
#X obj 694 95 osc~;
#X obj 694 156 *~;
#X obj 734 75 random 100;
#X obj 734 95 / 100;
#X floatatom 694 75 5 0 0 0 - - -;
#X floatatom 734 116 5 0 0 0 - - -;
#X msg 734 135 \$1 3000;
#X obj 734 156 line~;
#X obj 806 93 osc~;
#X obj 806 154 *~;
#X obj 846 73 random 100;
#X obj 846 93 / 100;
#X floatatom 806 73 5 0 0 0 - - -;
#X floatatom 846 114 5 0 0 0 - - -;
#X msg 846 133 \$1 3000;
#X obj 846 154 line~;
#X obj 694 55 * 6;
#X obj 806 53 * 7;
#X obj 692 268 osc~;
#X obj 692 329 *~;
#X obj 732 248 random 100;
#X obj 732 268 / 100;
#X floatatom 692 248 5 0 0 0 - - -;
#X floatatom 732 289 5 0 0 0 - - -;
#X msg 732 308 \$1 3000;
#X obj 732 329 line~;
#X obj 804 266 osc~;
#X obj 804 327 *~;
#X obj 844 246 random 100;
#X obj 844 266 / 100;
#X floatatom 804 246 5 0 0 0 - - -;
#X floatatom 844 287 5 0 0 0 - - -;
#X msg 844 306 \$1 3000;
#X obj 844 327 line~;
#X obj 692 228 * 6;
#X obj 804 226 * 7;
#X obj 695 448 osc~;
#X obj 695 509 *~;
#X obj 735 428 random 100;
#X obj 735 448 / 100;
#X floatatom 695 428 5 0 0 0 - - -;
#X floatatom 735 469 5 0 0 0 - - -;
#X msg 735 488 \$1 3000;
#X obj 735 509 line~;
#X obj 807 446 osc~;
#X obj 807 507 *~;
#X obj 847 426 random 100;
#X obj 847 446 / 100;
#X floatatom 807 426 5 0 0 0 - - -;
#X floatatom 847 467 5 0 0 0 - - -;
#X msg 847 486 \$1 3000;
#X obj 847 507 line~;
#X obj 695 408 * 6;
#X obj 807 406 * 7;
#X obj 693 621 osc~;
#X obj 693 682 *~;
#X obj 733 601 random 100;
#X obj 733 621 / 100;
#X floatatom 693 601 5 0 0 0 - - -;
#X floatatom 733 642 5 0 0 0 - - -;
#X msg 733 661 \$1 3000;
#X obj 733 682 line~;
#X obj 805 619 osc~;
#X obj 805 680 *~;
#X obj 845 599 random 100;
#X obj 845 619 / 100;
#X floatatom 805 599 5 0 0 0 - - -;
#X floatatom 845 640 5 0 0 0 - - -;
#X msg 845 659 \$1 3000;
#X obj 845 680 line~;
#X obj 693 581 * 6;
#X obj 805 579 * 7;
#X obj 1841 101 osc~;
#X obj 1841 162 *~;
#X obj 1881 81 random 100;
#X obj 1881 101 / 100;
#X floatatom 1841 81 5 0 0 0 - - -;
#X floatatom 1881 122 5 0 0 0 - - -;
#X msg 1881 141 \$1 3000;
#X obj 1881 162 line~;
#X obj 1953 99 osc~;
#X obj 1953 160 *~;
#X obj 1993 79 random 100;
#X obj 1993 99 / 100;
#X floatatom 1953 79 5 0 0 0 - - -;
#X floatatom 1993 120 5 0 0 0 - - -;
#X msg 1993 139 \$1 3000;
#X obj 1993 160 line~;
#X obj 1841 61 * 6;
#X obj 1953 59 * 7;
#X obj 1839 274 osc~;
#X obj 1839 335 *~;
#X obj 1879 254 random 100;
#X obj 1879 274 / 100;
#X floatatom 1839 254 5 0 0 0 - - -;
#X floatatom 1879 295 5 0 0 0 - - -;
#X msg 1879 314 \$1 3000;
#X obj 1879 335 line~;
#X obj 1951 272 osc~;
#X obj 1951 333 *~;
#X obj 1991 252 random 100;
#X obj 1991 272 / 100;
#X floatatom 1951 252 5 0 0 0 - - -;
#X floatatom 1991 293 5 0 0 0 - - -;
#X msg 1991 312 \$1 3000;
#X obj 1991 333 line~;
#X obj 1839 234 * 6;
#X obj 1951 232 * 7;
#X obj 1842 454 osc~;
#X obj 1842 515 *~;
#X obj 1882 434 random 100;
#X obj 1882 454 / 100;
#X floatatom 1842 434 5 0 0 0 - - -;
#X floatatom 1882 475 5 0 0 0 - - -;
#X msg 1882 494 \$1 3000;
#X obj 1882 515 line~;
#X obj 1954 452 osc~;
#X obj 1954 513 *~;
#X obj 1994 432 random 100;
#X obj 1994 452 / 100;
#X floatatom 1954 432 5 0 0 0 - - -;
#X floatatom 1994 473 5 0 0 0 - - -;
#X msg 1994 492 \$1 3000;
#X obj 1994 513 line~;
#X obj 1842 414 * 6;
#X obj 1954 412 * 7;
#X obj 1840 627 osc~;
#X obj 1840 688 *~;
#X obj 1880 607 random 100;
#X obj 1880 627 / 100;
#X floatatom 1840 607 5 0 0 0 - - -;
#X floatatom 1880 648 5 0 0 0 - - -;
#X msg 1880 667 \$1 3000;
#X obj 1880 688 line~;
#X obj 1952 625 osc~;
#X obj 1952 686 *~;
#X obj 1992 605 random 100;
#X obj 1992 625 / 100;
#X floatatom 1952 605 5 0 0 0 - - -;
#X floatatom 1992 646 5 0 0 0 - - -;
#X msg 1992 665 \$1 3000;
#X obj 1992 686 line~;
#X obj 1840 587 * 6;
#X obj 1952 585 * 7;
#X obj -212 1239 line;
#X msg -212 1217 \$1 3000;
#X obj -212 912 line;
#X msg -212 890 \$1 3000;
#X obj -209 605 line;
#X msg -209 583 \$1 3000;
#X obj -209 271 line;
#X msg -209 249 \$1 3000;
#X obj 1020 1158 line;
#X msg 1020 1136 \$1 3000;
#X obj 1023 865 line;
#X msg 1023 843 \$1 3000;
#X obj 1033 577 line;
#X msg 1033 555 \$1 3000;
#X obj 1026 247 line;
#X msg 1026 225 \$1 3000;
#X obj 385 1186 *~ 0.1;
#X obj 417 1172 *~ 0.1;
#X obj 447 1160 *~ 0.1;
#X obj 478 1150 *~ 0.1;
#X obj 531 1151 *~ 0.1;
#X obj 561 1162 *~ 0.1;
#X obj 589 1172 *~ 0.1;
#X obj 619 1190 *~ 0.1;
#X obj 1023 821 autoscale 0.5 1;
#X obj 1033 533 autoscale 0.5 1;
#X obj 1029 203 autoscale 0.5 1;
#X obj 1020 1114 autoscale 0.5 1;
#X obj -211 1194 autoscale 0.5 1;
#X obj -212 868 autoscale 0.5 1;
#X obj -209 561 autoscale 0.5 1;
#X obj -61 155 bng 15 250 50 0 empty empty empty 17 7 0 10 -262144
-1 -1;
#X msg -61 175 1;
#X obj -62 199 / \$1;
#X msg -62 224 \$1 30000;
#X obj -62 249 line;
#X obj -55 482 bng 15 250 50 0 empty empty empty 17 7 0 10 -262144
-1 -1;
#X msg -55 502 1;
#X obj -56 526 / \$1;
#X msg -56 551 \$1 30000;
#X obj -56 576 line;
#X obj -43 792 bng 15 250 50 0 empty empty empty 17 7 0 10 -262144
-1 -1;
#X msg -43 812 1;
#X obj -44 836 / \$1;
#X msg -14 861 \$1 30000;
#X obj -44 886 line;
#X obj -41 1111 bng 15 250 50 0 empty empty empty 17 7 0 10 -262144
-1 -1;
#X msg -41 1131 1;
#X obj -42 1155 / \$1;
#X msg -42 1180 \$1 30000;
#X obj -42 1205 line;
#X obj 1182 1053 bng 15 250 50 0 empty empty empty 17 7 0 10 -262144
-1 -1;
#X msg 1182 1073 1;
#X obj 1181 1097 / \$1;
#X msg 1181 1122 \$1 30000;
#X obj 1181 1147 line;
#X obj 1174 755 bng 15 250 50 0 empty empty empty 17 7 0 10 -262144
-1 -1;
#X msg 1174 775 1;
#X obj 1173 799 / \$1;
#X msg 1173 824 \$1 30000;
#X obj 1173 849 line;
#X obj 1186 478 bng 15 250 50 0 empty empty empty 17 7 0 10 -262144
-1 -1;
#X msg 1186 498 1;
#X obj 1185 522 / \$1;
#X msg 1185 547 \$1 30000;
#X obj 1185 572 line;
#X obj 1186 131 bng 15 250 50 0 empty empty empty 17 7 0 10 -262144
-1 -1;
#X msg 1186 151 1;
#X obj 1185 175 / \$1;
#X msg 1185 200 \$1 30000;
#X obj 1185 225 line;
#X obj -125 134 autoscale 0.25 10;
#X obj -122 456 autoscale 0.25 10;
#X obj -127 762 autoscale 0.25 10;
#X obj -109 1081 autoscale 0.25 10;
#X obj 1115 1009 autoscale 0.25 10;
#X obj 1110 719 autoscale 0.25 100;
#X obj 1129 432 autoscale 0.25 10;
#X obj 1117 96 autoscale 0.25 10;
#X obj -182 157 autoscale 20 200;
#X obj -175 485 autoscale 20 200;
#X obj -178 799 autoscale 20 200;
#X obj -177 1122 autoscale 20 200;
#X obj 1054 1044 autoscale 20 200;
#X obj 1057 752 autoscale 20 200;
#X obj 1067 460 autoscale 20 200;
#X obj 1062 135 autoscale 20 200;
#X floatatom 917 202 5 0 0 0 - - -;
#X obj 917 226 * 1;
#X obj 917 292 osc~;
#X obj 917 327 *~;
#X floatatom 917 272 5 0 0 0 - - -;
#X floatatom 922 400 5 0 0 0 - - -;
#X obj 922 424 * 1;
#X obj 922 490 osc~;
#X obj 922 525 *~;
#X floatatom 922 470 5 0 0 0 - - -;
#X floatatom 922 33 5 0 0 0 - - -;
#X obj 922 57 * 1;
#X obj 922 123 osc~;
#X obj 922 158 *~;
#X floatatom 922 103 5 0 0 0 - - -;
#X floatatom 917 563 5 0 0 0 - - -;
#X obj 917 587 * 1;
#X obj 917 653 osc~;
#X obj 917 688 *~;
#X floatatom 917 633 5 0 0 0 - - -;
#X obj 921 79 + 1;
#X obj 916 248 + 2;
#X obj 921 446 + 3;
#X obj 916 609 + 4;
#X floatatom 2072 44 5 0 0 0 - - -;
#X obj 2072 68 * 1;
#X obj 2072 134 osc~;
#X obj 2072 169 *~;
#X floatatom 2072 114 5 0 0 0 - - -;
#X obj 2071 90 + 5;
#X floatatom 2072 211 5 0 0 0 - - -;
#X obj 2072 235 * 1;
#X obj 2072 301 osc~;
#X obj 2072 336 *~;
#X floatatom 2072 281 5 0 0 0 - - -;
#X floatatom 2071 394 5 0 0 0 - - -;
#X obj 2071 418 * 1;
#X obj 2071 484 osc~;
#X obj 2071 519 *~;
#X floatatom 2071 464 5 0 0 0 - - -;
#X floatatom 2065 568 5 0 0 0 - - -;
#X obj 2065 592 * 1;
#X obj 2065 658 osc~;
#X obj 2065 693 *~;
#X floatatom 2065 638 5 0 0 0 - - -;
#X obj 2064 614 + 8;
#X obj 2070 440 + 7;
#X obj 2071 257 + 6;
#X obj 214 96 osc~;
#X obj 454 96 osc~;
#X obj 456 272 osc~;
#X obj 216 272 osc~;
#X obj 457 447 osc~;
#X obj 217 447 osc~;
#X obj 456 628 osc~;
#X obj 216 628 osc~;
#X obj 1352 629 osc~;
#X obj 1592 629 osc~;
#X obj 1596 453 osc~;
#X obj 1356 453 osc~;
#X obj 1357 279 osc~;
#X obj 1597 279 osc~;
#X obj 1599 103 osc~;
#X obj 1359 102 osc~;
#X obj 520 180 *~ 0.125;
#X obj 522 359 *~ 0.125;
#X obj 523 531 *~ 0.125;
#X obj 521 729 *~ 0.125;
#X obj 1559 718 *~ 0.125;
#X obj 1564 539 *~ 0.125;
#X obj 1562 363 *~ 0.125;
#X obj 1565 191 *~ 0.125;
#X obj 919 -89 metro 30000;
#X obj 232 -252 csv_file;
#X obj 232 -228 t a a;
#X obj 232 -204 list;
#X obj -209 227 autoscale 0.5 1;
#X obj 353 -224 bng 15 250 50 0 empty empty empty 17 7 0 10 -262144
-1 -1;
#X obj 277 -223 bng 15 250 50 0 empty empty empty 17 7 0 10 -262144
-1 -1;
#X obj -209 24 csv_file;
#X obj -209 381 csv_file;
#X obj -212 685 csv_file;
#X obj -211 1006 csv_file;
#X obj 1028 26 csv_file;
#X obj 1033 356 csv_file;
#X obj 1023 648 csv_file;
#X obj 1020 939 csv_file;
#X obj 232 -153 pack f f;
#X obj 232 -130 t b l;
#X msg 232 -80 load 2.87 5.22;
#X msg 232 -105 set load \$1 \$2;
#X obj 337 -153 pack f f;
#X obj 337 -130 t b l;
#X msg 337 -80 load -0.741 0.106;
#X msg 337 -105 set load \$1 \$2;
#X obj 437 -152 pack f f;
#X obj 437 -129 t b l;
#X msg 437 -79 load -2.77 0.55;
#X msg 437 -104 set load \$1 \$2;
#X msg 353 -247 rewind;
#X obj -183 -183 loadbang;
#X msg -238 -131 bang;
#X msg 1022 -33 bang;
#X obj -32 -223 t b b;
#X obj -244 1302 bng 15 250 50 0 empty empty empty 17 7 0 10 -262144
-1 -1;
#X obj -169 1340 bng 15 250 50 0 empty empty empty 17 7 0 10 -262144
-1 -1;
#X obj -214 1341 t a a;
#X obj -214 1365 list;
#X msg -114 1300 rewind;
#X obj -180 1477 line;
#X msg -180 1455 \$1 300000;
#X obj -215 1550 line;
#X msg -215 1528 \$1 3000;
#X obj -214 1505 autoscale 0.5 1;
#X obj -44 1422 bng 15 250 50 0 empty empty empty 17 7 0 10 -262144
-1 -1;
#X msg -44 1442 1;
#X obj -45 1466 / \$1;
#X msg -45 1491 \$1 30000;
#X obj -45 1516 line;
#X obj -114 1391 autoscale 0.25 10;
#X obj -180 1433 autoscale 20 200;
#X obj -214 1317 csv_file;
#X obj 988 1208 bng 15 250 50 0 empty empty empty 17 7 0 10 -262144
-1 -1;
#X obj 1063 1246 bng 15 250 50 0 empty empty empty 17 7 0 10 -262144
-1 -1;
#X obj 1018 1247 t a a;
#X obj 1018 1271 list;
#X msg 1118 1206 rewind;
#X obj 1052 1376 line;
#X msg 1052 1354 \$1 300000;
#X obj 1018 1443 line;
#X msg 1018 1421 \$1 3000;
#X obj 1018 1399 autoscale 0.5 1;
#X obj 1180 1337 bng 15 250 50 0 empty empty empty 17 7 0 10 -262144
-1 -1;
#X msg 1180 1357 1;
#X obj 1179 1381 / \$1;
#X msg 1179 1406 \$1 30000;
#X obj 1179 1431 line;
#X obj 1113 1293 autoscale 0.25 10;
#X obj 1052 1332 autoscale 20 200;
#X obj 1018 1223 csv_file;
#X obj 466 1471 dac~ 1 2 3 4 5 6 7 8 9 10;
#X msg -212 652 read channels_S10_R10_LY_3.csv;
#X msg -211 968 read channels_S10_R10_LY_4.csv;
#X msg -214 1279 read channels_S10_R10_LY_5.csv;
#X msg 1028 -7 read channels_S10_R10_LY_6.csv;
#X msg 1033 323 read channels_S10_R10_LY_7.csv;
#X msg 1023 615 read channels_S10_R10_LY_8.csv;
#X msg 1020 906 read channels_S10_R10_LY_9.csv;
#X msg 1018 1190 read channels_S10_R10_LY_10.csv;
#X obj 640 1369 *~;
#X obj 669 1369 *~;
#X obj 642 1201 *~ 0.1;
#X obj 672 1219 *~ 0.1;
#X obj 104 780 * 1;
#X obj 104 820 osc~;
#X obj 104 881 *~;
#X obj 144 800 random 100;
#X obj 144 820 / 100;
#X floatatom 104 800 5 0 0 0 - - -;
#X floatatom 144 841 5 0 0 0 - - -;
#X msg 144 860 \$1 3000;
#X obj 144 881 line~;
#X obj 222 880 *~;
#X obj 262 799 random 100;
#X obj 262 819 / 100;
#X floatatom 222 799 5 0 0 0 - - -;
#X floatatom 262 840 5 0 0 0 - - -;
#X msg 262 859 \$1 3000;
#X obj 262 880 line~;
#X obj 343 819 osc~;
#X obj 343 880 *~;
#X obj 383 799 random 100;
#X obj 383 819 / 100;
#X floatatom 343 799 5 0 0 0 - - -;
#X floatatom 383 840 5 0 0 0 - - -;
#X msg 383 859 \$1 3000;
#X obj 383 880 line~;
#X obj 462 880 *~;
#X obj 502 799 random 100;
#X obj 502 819 / 100;
#X floatatom 462 799 5 0 0 0 - - -;
#X floatatom 502 840 5 0 0 0 - - -;
#X msg 502 859 \$1 3000;
#X obj 502 880 line~;
#X obj 582 819 osc~;
#X obj 582 880 *~;
#X obj 622 799 random 100;
#X obj 622 819 / 100;
#X floatatom 582 799 5 0 0 0 - - -;
#X floatatom 622 840 5 0 0 0 - - -;
#X msg 622 859 \$1 3000;
#X obj 622 880 line~;
#X obj 222 779 * 2;
#X obj 343 779 * 3;
#X obj 462 779 * 4;
#X obj 582 779 * 5;
#X floatatom 503 916 5 0 0 0 - - -;
#X obj 502 945 bp~;
#X floatatom 549 936 5 0 0 0 - - -;
#X obj 699 812 osc~;
#X obj 699 873 *~;
#X obj 739 792 random 100;
#X obj 739 812 / 100;
#X floatatom 699 792 5 0 0 0 - - -;
#X floatatom 739 833 5 0 0 0 - - -;
#X msg 739 852 \$1 3000;
#X obj 739 873 line~;
#X obj 811 810 osc~;
#X obj 811 871 *~;
#X obj 851 790 random 100;
#X obj 851 810 / 100;
#X floatatom 811 790 5 0 0 0 - - -;
#X floatatom 851 831 5 0 0 0 - - -;
#X msg 851 850 \$1 3000;
#X obj 851 871 line~;
#X obj 699 772 * 6;
#X obj 811 770 * 7;
#X obj 923 778 * 1;
#X obj 923 844 osc~;
#X obj 923 879 *~;
#X floatatom 923 824 5 0 0 0 - - -;
#X obj 922 800 + 4;
#X obj 462 819 osc~;
#X obj 222 819 osc~;
#X obj 445 915 *~ 0.125;
#X floatatom 104 751 5 0 0 0 - - -;
#X obj 186 749 bng 15 250 50 0 empty empty empty 17 7 0 10 -262144
-1 -1;
#X text 101 733 Fundamental;
#X floatatom 923 755 5 0 0 0 - - -;
#X obj 1241 791 * 1;
#X obj 1241 831 osc~;
#X obj 1241 892 *~;
#X obj 1281 811 random 100;
#X obj 1281 831 / 100;
#X floatatom 1241 811 5 0 0 0 - - -;
#X floatatom 1281 852 5 0 0 0 - - -;
#X msg 1281 871 \$1 3000;
#X obj 1281 892 line~;
#X obj 1359 891 *~;
#X obj 1399 810 random 100;
#X obj 1399 830 / 100;
#X floatatom 1359 810 5 0 0 0 - - -;
#X floatatom 1399 851 5 0 0 0 - - -;
#X msg 1399 870 \$1 3000;
#X obj 1399 891 line~;
#X obj 1480 830 osc~;
#X obj 1480 891 *~;
#X obj 1520 810 random 100;
#X obj 1520 830 / 100;
#X floatatom 1480 810 5 0 0 0 - - -;
#X floatatom 1520 851 5 0 0 0 - - -;
#X msg 1520 870 \$1 3000;
#X obj 1520 891 line~;
#X obj 1599 891 *~;
#X obj 1639 810 random 100;
#X obj 1639 830 / 100;
#X floatatom 1599 810 5 0 0 0 - - -;
#X floatatom 1639 851 5 0 0 0 - - -;
#X msg 1639 870 \$1 3000;
#X obj 1639 891 line~;
#X obj 1719 830 osc~;
#X obj 1719 891 *~;
#X obj 1759 810 random 100;
#X obj 1759 830 / 100;
#X floatatom 1719 810 5 0 0 0 - - -;
#X floatatom 1759 851 5 0 0 0 - - -;
#X msg 1759 870 \$1 3000;
#X obj 1759 891 line~;
#X obj 1359 790 * 2;
#X obj 1480 790 * 3;
#X obj 1599 790 * 4;
#X obj 1719 790 * 5;
#X floatatom 1643 929 5 0 0 0 - - -;
#X obj 1636 961 bp~;
#X floatatom 1667 947 5 0 0 0 - - -;
#X obj 1836 823 osc~;
#X obj 1836 884 *~;
#X obj 1876 803 random 100;
#X obj 1876 823 / 100;
#X floatatom 1836 803 5 0 0 0 - - -;
#X floatatom 1876 844 5 0 0 0 - - -;
#X msg 1876 863 \$1 3000;
#X obj 1876 884 line~;
#X obj 1948 821 osc~;
#X obj 1948 882 *~;
#X obj 1988 801 random 100;
#X obj 1988 821 / 100;
#X floatatom 1948 801 5 0 0 0 - - -;
#X floatatom 1988 842 5 0 0 0 - - -;
#X msg 1988 861 \$1 3000;
#X obj 1988 882 line~;
#X obj 1836 783 * 6;
#X obj 1948 781 * 7;
#X obj 2060 789 * 1;
#X obj 2060 855 osc~;
#X obj 2060 890 *~;
#X floatatom 2060 835 5 0 0 0 - - -;
#X obj 2059 811 + 4;
#X obj 1599 830 osc~;
#X obj 1359 830 osc~;
#X obj 1579 931 *~ 0.125;
#X floatatom 1242 762 5 0 0 0 - - -;
#X text 1238 736 Fundamental;
#X obj 1321 756 bng 15 250 50 0 empty empty empty 17 7 0 10 -262144
-1 -1;
#X floatatom 2060 763 5 0 0 0 - - -;
#X msg -209 348 read channels_S10_R10_LY_2.csv;
#X floatatom 341 1477 5 0 0 0 - - -;
#X obj 313 1449 bng 15 250 50 0 empty empty empty 17 7 0 10 -262144
-1 -1;
#X obj 314 1425 metro 100;
#X obj 340 1391 tgl 15 0 empty empty empty 17 7 0 10 -262144 -1 -1
0 1;
#X obj 341 1447 snapshot~;
#X obj -209 98 packel 1 2 3 4;
#X msg -209 -14 read blur_channels_S10_R10_LY_1.csv;
#X obj -101 98 line;
#X msg -101 76 \$1 3000;
#X msg 232 -277 read blur_min_max_channels_S10_R10_LY.csv;
#X obj 232 -178 packel 1 2 3 4 5 6 7 8;
#X obj 546 -151 pack f f;
#X obj 546 -128 t b l;
#X msg 546 -79 load -0.556 0.565;
#X msg 546 -103 set load \$1 \$2;
#X obj -101 54 autoscale 0 10;
#X obj -209 456 packel 1 2 3 4;
#X obj -84 433 line;
#X msg -84 411 \$1 3000;
#X obj -84 389 autoscale 0 10;
#X obj -93 736 line;
#X msg -93 714 \$1 3000;
#X obj -93 692 autoscale 0 10;
#X obj -212 760 packel 1 2 3 4;
#X obj -92 1054 line;
#X msg -92 1032 \$1 3000;
#X obj -92 1010 autoscale 0 10;
#X obj -211 1081 packel 1 2 3 4;
#X obj -214 1392 packel 1 2 3 4;
#X obj -96 1369 line;
#X msg -96 1347 \$1 3000;
#X obj -96 1325 autoscale 0 10;
#X obj 1150 72 line;
#X msg 1150 50 \$1 3000;
#X obj 1150 28 autoscale 0 10;
#X obj 1028 101 packel 1 2 3 4;
#X obj 1130 411 line;
#X msg 1130 389 \$1 3000;
#X obj 1130 367 autoscale 0 10;
#X obj 1033 431 packel 1 2 3 4;
#X obj 1139 697 line;
#X msg 1139 675 \$1 3000;
#X obj 1139 653 autoscale 0 10;
#X obj 1023 723 packel 1 2 3 4;
#X obj 1132 989 line;
#X msg 1132 967 \$1 3000;
#X obj 1132 945 autoscale 0 10;
#X obj 1020 1014 packel 1 2 3 4;
#X obj 1128 1272 line;
#X msg 1128 1250 \$1 3000;
#X obj 1128 1228 autoscale 0 10;
#X obj 1018 1297 packel 1 2 3 4;
#X connect 0 0 1 0;
#X connect 1 0 2 0;
#X connect 2 0 3 1;
#X connect 2 0 4 1;
#X connect 2 0 462 1;
#X connect 2 0 463 1;
#X connect 2 0 464 1;
#X connect 2 0 465 1;
#X connect 2 0 466 1;
#X connect 2 0 467 1;
#X connect 2 0 848 1;
#X connect 2 0 849 1;
#X connect 3 0 839 0;
#X connect 4 0 839 1;
#X connect 5 0 7 0;
#X connect 5 0 46 0;
#X connect 5 0 47 0;
#X connect 5 0 48 0;
#X connect 5 0 49 0;
#X connect 5 0 484 0;
#X connect 5 0 485 0;
#X connect 5 0 709 0;
#X connect 7 0 12 0;
#X connect 8 0 9 0;
#X connect 9 0 763 0;
#X connect 10 0 11 0;
#X connect 11 0 13 0;
#X connect 12 0 8 0;
#X connect 13 0 14 0;
#X connect 14 0 15 0;
#X connect 15 0 9 1;
#X connect 16 0 763 0;
#X connect 17 0 18 0;
#X connect 18 0 20 0;
#X connect 19 0 747 0;
#X connect 20 0 21 0;
#X connect 21 0 22 0;
#X connect 22 0 16 1;
#X connect 23 0 24 0;
#X connect 24 0 763 0;
#X connect 25 0 26 0;
#X connect 26 0 28 0;
#X connect 27 0 23 0;
#X connect 28 0 29 0;
#X connect 29 0 30 0;
#X connect 30 0 24 1;
#X connect 31 0 763 0;
#X connect 32 0 33 0;
#X connect 33 0 35 0;
#X connect 34 0 430 0;
#X connect 34 0 748 0;
#X connect 35 0 36 0;
#X connect 36 0 37 0;
#X connect 37 0 31 1;
#X connect 38 0 39 0;
#X connect 39 0 763 0;
#X connect 40 0 41 0;
#X connect 41 0 43 0;
#X connect 42 0 38 0;
#X connect 43 0 44 0;
#X connect 44 0 45 0;
#X connect 45 0 39 1;
#X connect 46 0 19 0;
#X connect 47 0 27 0;
#X connect 48 0 34 0;
#X connect 49 0 42 0;
#X connect 50 0 10 0;
#X connect 50 0 17 0;
#X connect 50 0 25 0;
#X connect 50 0 32 0;
#X connect 50 0 40 0;
#X connect 50 0 470 0;
#X connect 50 0 478 0;
#X connect 51 0 53 0;
#X connect 51 0 92 0;
#X connect 51 0 93 0;
#X connect 51 0 94 0;
#X connect 51 0 95 0;
#X connect 51 0 502 0;
#X connect 51 0 503 0;
#X connect 51 0 699 0;
#X connect 53 0 58 0;
#X connect 54 0 55 0;
#X connect 55 0 764 0;
#X connect 56 0 57 0;
#X connect 57 0 59 0;
#X connect 58 0 54 0;
#X connect 59 0 60 0;
#X connect 60 0 61 0;
#X connect 61 0 55 1;
#X connect 62 0 764 0;
#X connect 63 0 64 0;
#X connect 64 0 66 0;
#X connect 65 0 750 0;
#X connect 66 0 67 0;
#X connect 67 0 68 0;
#X connect 68 0 62 1;
#X connect 69 0 70 0;
#X connect 70 0 764 0;
#X connect 71 0 72 0;
#X connect 72 0 74 0;
#X connect 73 0 69 0;
#X connect 74 0 75 0;
#X connect 75 0 76 0;
#X connect 76 0 70 1;
#X connect 77 0 764 0;
#X connect 78 0 79 0;
#X connect 79 0 81 0;
#X connect 80 0 433 0;
#X connect 80 0 749 0;
#X connect 81 0 82 0;
#X connect 82 0 83 0;
#X connect 83 0 77 1;
#X connect 84 0 85 0;
#X connect 85 0 764 0;
#X connect 86 0 87 0;
#X connect 87 0 89 0;
#X connect 88 0 84 0;
#X connect 89 0 90 0;
#X connect 90 0 91 0;
#X connect 91 0 85 1;
#X connect 92 0 65 0;
#X connect 93 0 73 0;
#X connect 94 0 80 0;
#X connect 95 0 88 0;
#X connect 96 0 56 0;
#X connect 96 0 63 0;
#X connect 96 0 71 0;
#X connect 96 0 78 0;
#X connect 96 0 86 0;
#X connect 96 0 488 0;
#X connect 96 0 496 0;
#X connect 97 0 99 0;
#X connect 97 0 138 0;
#X connect 97 0 139 0;
#X connect 97 0 140 0;
#X connect 97 0 141 0;
#X connect 97 0 520 0;
#X connect 97 0 521 0;
#X connect 97 0 704 0;
#X connect 99 0 104 0;
#X connect 100 0 101 0;
#X connect 101 0 765 0;
#X connect 102 0 103 0;
#X connect 103 0 105 0;
#X connect 104 0 100 0;
#X connect 105 0 106 0;
#X connect 106 0 107 0;
#X connect 107 0 101 1;
#X connect 108 0 765 0;
#X connect 109 0 110 0;
#X connect 110 0 112 0;
#X connect 111 0 752 0;
#X connect 112 0 113 0;
#X connect 113 0 114 0;
#X connect 114 0 108 1;
#X connect 115 0 116 0;
#X connect 116 0 765 0;
#X connect 117 0 118 0;
#X connect 118 0 120 0;
#X connect 119 0 115 0;
#X connect 120 0 121 0;
#X connect 121 0 122 0;
#X connect 122 0 116 1;
#X connect 123 0 765 0;
#X connect 124 0 125 0;
#X connect 125 0 127 0;
#X connect 126 0 751 0;
#X connect 127 0 128 0;
#X connect 128 0 129 0;
#X connect 129 0 123 1;
#X connect 130 0 131 0;
#X connect 131 0 765 0;
#X connect 132 0 133 0;
#X connect 133 0 135 0;
#X connect 134 0 130 0;
#X connect 135 0 136 0;
#X connect 136 0 137 0;
#X connect 137 0 131 1;
#X connect 138 0 111 0;
#X connect 139 0 119 0;
#X connect 140 0 126 0;
#X connect 140 0 436 0;
#X connect 141 0 134 0;
#X connect 142 0 102 0;
#X connect 142 0 109 0;
#X connect 142 0 117 0;
#X connect 142 0 124 0;
#X connect 142 0 132 0;
#X connect 142 0 506 0;
#X connect 142 0 514 0;
#X connect 143 0 145 0;
#X connect 143 0 184 0;
#X connect 143 0 185 0;
#X connect 143 0 186 0;
#X connect 143 0 187 0;
#X connect 143 0 538 0;
#X connect 143 0 539 0;
#X connect 143 0 714 0;
#X connect 145 0 150 0;
#X connect 146 0 147 0;
#X connect 147 0 766 0;
#X connect 148 0 149 0;
#X connect 149 0 151 0;
#X connect 150 0 146 0;
#X connect 151 0 152 0;
#X connect 152 0 153 0;
#X connect 153 0 147 1;
#X connect 154 0 766 0;
#X connect 155 0 156 0;
#X connect 156 0 158 0;
#X connect 157 0 754 0;
#X connect 158 0 159 0;
#X connect 159 0 160 0;
#X connect 160 0 154 1;
#X connect 161 0 162 0;
#X connect 162 0 766 0;
#X connect 163 0 164 0;
#X connect 164 0 166 0;
#X connect 165 0 161 0;
#X connect 166 0 167 0;
#X connect 167 0 168 0;
#X connect 168 0 162 1;
#X connect 169 0 766 0;
#X connect 170 0 171 0;
#X connect 171 0 173 0;
#X connect 172 0 439 0;
#X connect 172 0 753 0;
#X connect 173 0 174 0;
#X connect 174 0 175 0;
#X connect 175 0 169 1;
#X connect 176 0 177 0;
#X connect 177 0 766 0;
#X connect 178 0 179 0;
#X connect 179 0 181 0;
#X connect 180 0 176 0;
#X connect 181 0 182 0;
#X connect 182 0 183 0;
#X connect 183 0 177 1;
#X connect 184 0 157 0;
#X connect 185 0 165 0;
#X connect 186 0 172 0;
#X connect 187 0 180 0;
#X connect 188 0 148 0;
#X connect 188 0 155 0;
#X connect 188 0 163 0;
#X connect 188 0 170 0;
#X connect 188 0 178 0;
#X connect 188 0 524 0;
#X connect 188 0 532 0;
#X connect 189 0 191 0;
#X connect 189 0 230 0;
#X connect 189 0 231 0;
#X connect 189 0 232 0;
#X connect 189 0 233 0;
#X connect 189 0 556 0;
#X connect 189 0 557 0;
#X connect 189 0 723 0;
#X connect 191 0 196 0;
#X connect 192 0 193 0;
#X connect 193 0 770 0;
#X connect 194 0 195 0;
#X connect 195 0 197 0;
#X connect 196 0 192 0;
#X connect 197 0 198 0;
#X connect 198 0 199 0;
#X connect 199 0 193 1;
#X connect 200 0 770 0;
#X connect 201 0 202 0;
#X connect 202 0 204 0;
#X connect 203 0 762 0;
#X connect 204 0 205 0;
#X connect 205 0 206 0;
#X connect 206 0 200 1;
#X connect 207 0 208 0;
#X connect 208 0 770 0;
#X connect 209 0 210 0;
#X connect 210 0 212 0;
#X connect 211 0 207 0;
#X connect 212 0 213 0;
#X connect 213 0 214 0;
#X connect 214 0 208 1;
#X connect 215 0 770 0;
#X connect 216 0 217 0;
#X connect 217 0 219 0;
#X connect 218 0 442 0;
#X connect 218 0 761 0;
#X connect 219 0 220 0;
#X connect 220 0 221 0;
#X connect 221 0 215 1;
#X connect 222 0 223 0;
#X connect 223 0 770 0;
#X connect 224 0 225 0;
#X connect 225 0 227 0;
#X connect 226 0 222 0;
#X connect 227 0 228 0;
#X connect 228 0 229 0;
#X connect 229 0 223 1;
#X connect 230 0 203 0;
#X connect 231 0 211 0;
#X connect 232 0 218 0;
#X connect 233 0 226 0;
#X connect 234 0 194 0;
#X connect 234 0 201 0;
#X connect 234 0 209 0;
#X connect 234 0 216 0;
#X connect 234 0 224 0;
#X connect 234 0 542 0;
#X connect 234 0 550 0;
#X connect 235 0 237 0;
#X connect 235 0 276 0;
#X connect 235 0 277 0;
#X connect 235 0 278 0;
#X connect 235 0 279 0;
#X connect 235 0 574 0;
#X connect 235 0 575 0;
#X connect 235 0 729 0;
#X connect 237 0 242 0;
#X connect 238 0 239 0;
#X connect 239 0 769 0;
#X connect 240 0 241 0;
#X connect 241 0 243 0;
#X connect 242 0 238 0;
#X connect 243 0 244 0;
#X connect 244 0 245 0;
#X connect 245 0 239 1;
#X connect 246 0 769 0;
#X connect 247 0 248 0;
#X connect 248 0 250 0;
#X connect 249 0 759 0;
#X connect 250 0 251 0;
#X connect 251 0 252 0;
#X connect 252 0 246 1;
#X connect 253 0 254 0;
#X connect 254 0 769 0;
#X connect 255 0 256 0;
#X connect 256 0 258 0;
#X connect 257 0 253 0;
#X connect 258 0 259 0;
#X connect 259 0 260 0;
#X connect 260 0 254 1;
#X connect 261 0 769 0;
#X connect 262 0 263 0;
#X connect 263 0 265 0;
#X connect 264 0 445 0;
#X connect 264 0 760 0;
#X connect 265 0 266 0;
#X connect 266 0 267 0;
#X connect 267 0 261 1;
#X connect 268 0 269 0;
#X connect 269 0 769 0;
#X connect 270 0 271 0;
#X connect 271 0 273 0;
#X connect 272 0 268 0;
#X connect 273 0 274 0;
#X connect 274 0 275 0;
#X connect 275 0 269 1;
#X connect 276 0 249 0;
#X connect 277 0 257 0;
#X connect 278 0 264 0;
#X connect 279 0 272 0;
#X connect 280 0 240 0;
#X connect 280 0 247 0;
#X connect 280 0 255 0;
#X connect 280 0 262 0;
#X connect 280 0 270 0;
#X connect 280 0 560 0;
#X connect 280 0 568 0;
#X connect 281 0 283 0;
#X connect 281 0 322 0;
#X connect 281 0 323 0;
#X connect 281 0 324 0;
#X connect 281 0 325 0;
#X connect 281 0 592 0;
#X connect 281 0 593 0;
#X connect 281 0 734 0;
#X connect 283 0 288 0;
#X connect 284 0 285 0;
#X connect 285 0 768 0;
#X connect 286 0 287 0;
#X connect 287 0 289 0;
#X connect 288 0 284 0;
#X connect 289 0 290 0;
#X connect 290 0 291 0;
#X connect 291 0 285 1;
#X connect 292 0 768 0;
#X connect 293 0 294 0;
#X connect 294 0 296 0;
#X connect 295 0 758 0;
#X connect 296 0 297 0;
#X connect 297 0 298 0;
#X connect 298 0 292 1;
#X connect 299 0 300 0;
#X connect 300 0 768 0;
#X connect 301 0 302 0;
#X connect 302 0 304 0;
#X connect 303 0 299 0;
#X connect 304 0 305 0;
#X connect 305 0 306 0;
#X connect 306 0 300 1;
#X connect 307 0 768 0;
#X connect 308 0 309 0;
#X connect 309 0 311 0;
#X connect 310 0 757 0;
#X connect 311 0 312 0;
#X connect 312 0 313 0;
#X connect 313 0 307 1;
#X connect 314 0 315 0;
#X connect 315 0 768 0;
#X connect 316 0 317 0;
#X connect 317 0 319 0;
#X connect 318 0 314 0;
#X connect 319 0 320 0;
#X connect 320 0 321 0;
#X connect 321 0 315 1;
#X connect 322 0 295 0;
#X connect 323 0 303 0;
#X connect 324 0 310 0;
#X connect 324 0 448 0;
#X connect 325 0 318 0;
#X connect 326 0 286 0;
#X connect 326 0 293 0;
#X connect 326 0 301 0;
#X connect 326 0 308 0;
#X connect 326 0 316 0;
#X connect 326 0 578 0;
#X connect 326 0 586 0;
#X connect 327 0 329 0;
#X connect 327 0 368 0;
#X connect 327 0 369 0;
#X connect 327 0 370 0;
#X connect 327 0 371 0;
#X connect 327 0 610 0;
#X connect 327 0 611 0;
#X connect 327 0 739 0;
#X connect 329 0 334 0;
#X connect 330 0 331 0;
#X connect 331 0 767 0;
#X connect 332 0 333 0;
#X connect 333 0 335 0;
#X connect 334 0 330 0;
#X connect 335 0 336 0;
#X connect 336 0 337 0;
#X connect 337 0 331 1;
#X connect 338 0 767 0;
#X connect 339 0 340 0;
#X connect 340 0 342 0;
#X connect 341 0 755 0;
#X connect 342 0 343 0;
#X connect 343 0 344 0;
#X connect 344 0 338 1;
#X connect 345 0 346 0;
#X connect 346 0 767 0;
#X connect 347 0 348 0;
#X connect 348 0 350 0;
#X connect 349 0 345 0;
#X connect 350 0 351 0;
#X connect 351 0 352 0;
#X connect 352 0 346 1;
#X connect 353 0 767 0;
#X connect 354 0 355 0;
#X connect 355 0 357 0;
#X connect 356 0 451 0;
#X connect 356 0 756 0;
#X connect 357 0 358 0;
#X connect 358 0 359 0;
#X connect 359 0 353 1;
#X connect 360 0 361 0;
#X connect 361 0 767 0;
#X connect 362 0 363 0;
#X connect 363 0 365 0;
#X connect 364 0 360 0;
#X connect 365 0 366 0;
#X connect 366 0 367 0;
#X connect 367 0 361 1;
#X connect 368 0 341 0;
#X connect 369 0 349 0;
#X connect 370 0 356 0;
#X connect 371 0 364 0;
#X connect 372 0 332 0;
#X connect 372 0 339 0;
#X connect 372 0 347 0;
#X connect 372 0 354 0;
#X connect 372 0 362 0;
#X connect 372 0 596 0;
#X connect 372 0 604 0;
#X connect 373 0 778 0;
#X connect 375 0 376 0;
#X connect 376 0 1010 0;
#X connect 377 0 778 0;
#X connect 378 0 5 0;
#X connect 379 0 779 0;
#X connect 381 0 382 0;
#X connect 382 0 1021 0;
#X connect 383 0 779 0;
#X connect 384 0 51 0;
#X connect 385 0 780 0;
#X connect 387 0 388 0;
#X connect 388 0 1028 0;
#X connect 389 0 780 0;
#X connect 390 0 97 0;
#X connect 391 0 781 0;
#X connect 393 0 394 0;
#X connect 394 0 1032 0;
#X connect 395 0 781 0;
#X connect 396 0 143 0;
#X connect 397 0 461 0;
#X connect 397 0 771 0;
#X connect 398 0 782 0;
#X connect 400 0 401 0;
#X connect 401 0 1040 0;
#X connect 402 0 782 0;
#X connect 403 0 189 0;
#X connect 404 0 783 0;
#X connect 406 0 407 0;
#X connect 407 0 1044 0;
#X connect 408 0 783 0;
#X connect 409 0 235 0;
#X connect 410 0 784 0;
#X connect 412 0 413 0;
#X connect 413 0 1048 0;
#X connect 414 0 784 0;
#X connect 415 0 281 0;
#X connect 416 0 785 0;
#X connect 418 0 419 0;
#X connect 419 0 1052 0;
#X connect 420 0 785 0;
#X connect 421 0 327 0;
#X connect 422 0 378 0;
#X connect 423 0 384 0;
#X connect 424 0 390 0;
#X connect 425 0 396 0;
#X connect 426 0 421 0;
#X connect 427 0 415 0;
#X connect 428 0 409 0;
#X connect 429 0 403 0;
#X connect 430 0 431 1;
#X connect 431 0 628 0;
#X connect 432 0 431 2;
#X connect 433 0 434 1;
#X connect 434 0 629 0;
#X connect 435 0 434 2;
#X connect 436 0 437 1;
#X connect 437 0 630 0;
#X connect 438 0 437 2;
#X connect 439 0 440 1;
#X connect 440 0 631 0;
#X connect 441 0 440 2;
#X connect 442 0 443 1;
#X connect 443 0 633 0;
#X connect 444 0 443 2;
#X connect 445 0 446 1;
#X connect 446 0 634 0;
#X connect 447 0 446 2;
#X connect 448 0 449 1;
#X connect 449 0 635 0;
#X connect 450 0 449 2;
#X connect 451 0 452 1;
#X connect 452 0 850 0;
#X connect 453 0 452 2;
#X connect 461 0 373 0;
#X connect 461 0 379 0;
#X connect 461 0 385 0;
#X connect 461 0 391 0;
#X connect 461 0 398 0;
#X connect 461 0 404 0;
#X connect 461 0 410 0;
#X connect 461 0 416 0;
#X connect 461 0 803 0;
#X connect 461 0 821 0;
#X connect 462 0 839 2;
#X connect 463 0 839 3;
#X connect 464 0 839 4;
#X connect 465 0 839 5;
#X connect 466 0 839 6;
#X connect 467 0 839 7;
#X connect 468 0 469 0;
#X connect 469 0 763 0;
#X connect 470 0 471 0;
#X connect 471 0 473 0;
#X connect 472 0 468 0;
#X connect 473 0 474 0;
#X connect 474 0 475 0;
#X connect 475 0 469 1;
#X connect 476 0 477 0;
#X connect 477 0 763 0;
#X connect 478 0 479 0;
#X connect 479 0 481 0;
#X connect 480 0 476 0;
#X connect 481 0 482 0;
#X connect 482 0 483 0;
#X connect 483 0 477 1;
#X connect 484 0 472 0;
#X connect 485 0 480 0;
#X connect 486 0 487 0;
#X connect 487 0 764 0;
#X connect 488 0 489 0;
#X connect 489 0 491 0;
#X connect 490 0 486 0;
#X connect 491 0 492 0;
#X connect 492 0 493 0;
#X connect 493 0 487 1;
#X connect 494 0 495 0;
#X connect 495 0 764 0;
#X connect 496 0 497 0;
#X connect 497 0 499 0;
#X connect 498 0 494 0;
#X connect 499 0 500 0;
#X connect 500 0 501 0;
#X connect 501 0 495 1;
#X connect 502 0 490 0;
#X connect 503 0 498 0;
#X connect 504 0 505 0;
#X connect 505 0 765 0;
#X connect 506 0 507 0;
#X connect 507 0 509 0;
#X connect 508 0 504 0;
#X connect 509 0 510 0;
#X connect 510 0 511 0;
#X connect 511 0 505 1;
#X connect 512 0 513 0;
#X connect 513 0 765 0;
#X connect 514 0 515 0;
#X connect 515 0 517 0;
#X connect 516 0 512 0;
#X connect 517 0 518 0;
#X connect 518 0 519 0;
#X connect 519 0 513 1;
#X connect 520 0 508 0;
#X connect 521 0 516 0;
#X connect 522 0 523 0;
#X connect 523 0 766 0;
#X connect 524 0 525 0;
#X connect 525 0 527 0;
#X connect 526 0 522 0;
#X connect 527 0 528 0;
#X connect 528 0 529 0;
#X connect 529 0 523 1;
#X connect 530 0 531 0;
#X connect 531 0 766 0;
#X connect 532 0 533 0;
#X connect 533 0 535 0;
#X connect 534 0 530 0;
#X connect 535 0 536 0;
#X connect 536 0 537 0;
#X connect 537 0 531 1;
#X connect 538 0 526 0;
#X connect 539 0 534 0;
#X connect 540 0 541 0;
#X connect 541 0 770 0;
#X connect 542 0 543 0;
#X connect 543 0 545 0;
#X connect 544 0 540 0;
#X connect 545 0 546 0;
#X connect 546 0 547 0;
#X connect 547 0 541 1;
#X connect 548 0 549 0;
#X connect 550 0 551 0;
#X connect 551 0 553 0;
#X connect 552 0 548 0;
#X connect 553 0 554 0;
#X connect 554 0 555 0;
#X connect 555 0 549 1;
#X connect 556 0 544 0;
#X connect 557 0 552 0;
#X connect 558 0 559 0;
#X connect 559 0 769 0;
#X connect 560 0 561 0;
#X connect 561 0 563 0;
#X connect 562 0 558 0;
#X connect 563 0 564 0;
#X connect 564 0 565 0;
#X connect 565 0 559 1;
#X connect 566 0 567 0;
#X connect 567 0 769 0;
#X connect 568 0 569 0;
#X connect 569 0 571 0;
#X connect 570 0 566 0;
#X connect 571 0 572 0;
#X connect 572 0 573 0;
#X connect 573 0 567 1;
#X connect 574 0 562 0;
#X connect 575 0 570 0;
#X connect 576 0 577 0;
#X connect 577 0 768 0;
#X connect 578 0 579 0;
#X connect 579 0 581 0;
#X connect 580 0 576 0;
#X connect 581 0 582 0;
#X connect 582 0 583 0;
#X connect 583 0 577 1;
#X connect 584 0 585 0;
#X connect 585 0 768 0;
#X connect 586 0 587 0;
#X connect 587 0 589 0;
#X connect 588 0 584 0;
#X connect 589 0 590 0;
#X connect 590 0 591 0;
#X connect 591 0 585 1;
#X connect 592 0 580 0;
#X connect 593 0 588 0;
#X connect 594 0 595 0;
#X connect 595 0 767 0;
#X connect 596 0 597 0;
#X connect 597 0 599 0;
#X connect 598 0 594 0;
#X connect 599 0 600 0;
#X connect 600 0 601 0;
#X connect 601 0 595 1;
#X connect 602 0 603 0;
#X connect 603 0 767 0;
#X connect 604 0 605 0;
#X connect 605 0 607 0;
#X connect 606 0 602 0;
#X connect 607 0 608 0;
#X connect 608 0 609 0;
#X connect 609 0 603 1;
#X connect 610 0 598 0;
#X connect 611 0 606 0;
#X connect 612 0 631 1;
#X connect 613 0 612 0;
#X connect 614 0 630 1;
#X connect 615 0 614 0;
#X connect 616 0 629 1;
#X connect 617 0 616 0;
#X connect 618 0 628 1;
#X connect 619 0 618 0;
#X connect 620 0 850 1;
#X connect 621 0 620 0;
#X connect 622 0 635 1;
#X connect 623 0 622 0;
#X connect 624 0 634 1;
#X connect 625 0 624 0;
#X connect 626 0 633 1;
#X connect 627 0 626 0;
#X connect 628 0 3 0;
#X connect 629 0 4 0;
#X connect 630 0 462 0;
#X connect 631 0 463 0;
#X connect 632 0 464 0;
#X connect 633 0 465 0;
#X connect 634 0 466 0;
#X connect 635 0 467 0;
#X connect 636 0 623 0;
#X connect 637 0 625 0;
#X connect 638 0 627 0;
#X connect 639 0 621 0;
#X connect 640 0 613 0;
#X connect 641 0 615 0;
#X connect 642 0 617 0;
#X connect 643 0 644 0;
#X connect 644 0 645 0;
#X connect 645 0 646 0;
#X connect 646 0 647 0;
#X connect 647 0 432 0;
#X connect 648 0 649 0;
#X connect 649 0 650 0;
#X connect 650 0 651 0;
#X connect 651 0 652 0;
#X connect 652 0 435 0;
#X connect 653 0 654 0;
#X connect 654 0 655 0;
#X connect 655 0 656 0;
#X connect 656 0 657 0;
#X connect 657 0 438 0;
#X connect 658 0 659 0;
#X connect 659 0 660 0;
#X connect 660 0 661 0;
#X connect 661 0 662 0;
#X connect 662 0 441 0;
#X connect 663 0 664 0;
#X connect 664 0 665 0;
#X connect 665 0 666 0;
#X connect 666 0 667 0;
#X connect 667 0 453 0;
#X connect 668 0 669 0;
#X connect 669 0 670 0;
#X connect 670 0 671 0;
#X connect 671 0 672 0;
#X connect 672 0 450 0;
#X connect 673 0 674 0;
#X connect 674 0 675 0;
#X connect 675 0 676 0;
#X connect 676 0 677 0;
#X connect 677 0 447 0;
#X connect 678 0 679 0;
#X connect 679 0 680 0;
#X connect 680 0 681 0;
#X connect 681 0 682 0;
#X connect 682 0 444 0;
#X connect 683 0 643 0;
#X connect 683 0 645 1;
#X connect 684 0 648 0;
#X connect 684 0 650 1;
#X connect 685 0 653 0;
#X connect 685 0 655 1;
#X connect 686 0 658 0;
#X connect 686 0 660 1;
#X connect 687 0 663 0;
#X connect 687 0 665 1;
#X connect 688 0 668 0;
#X connect 688 0 670 1;
#X connect 689 0 673 0;
#X connect 689 0 675 1;
#X connect 690 0 678 0;
#X connect 690 0 680 1;
#X connect 691 0 422 0;
#X connect 692 0 423 0;
#X connect 693 0 424 0;
#X connect 694 0 425 0;
#X connect 695 0 426 0;
#X connect 696 0 427 0;
#X connect 697 0 428 0;
#X connect 698 0 429 0;
#X connect 699 0 700 0;
#X connect 700 0 720 0;
#X connect 701 0 702 0;
#X connect 702 0 764 0;
#X connect 703 0 701 0;
#X connect 704 0 705 0;
#X connect 705 0 721 0;
#X connect 706 0 707 0;
#X connect 707 0 765 0;
#X connect 708 0 706 0;
#X connect 709 0 710 0;
#X connect 710 0 719 0;
#X connect 711 0 712 0;
#X connect 712 0 763 0;
#X connect 713 0 711 0;
#X connect 714 0 715 0;
#X connect 715 0 722 0;
#X connect 716 0 717 0;
#X connect 717 0 766 0;
#X connect 718 0 716 0;
#X connect 719 0 713 0;
#X connect 720 0 703 0;
#X connect 721 0 708 0;
#X connect 722 0 718 0;
#X connect 723 0 724 0;
#X connect 724 0 728 0;
#X connect 725 0 726 0;
#X connect 726 0 770 0;
#X connect 727 0 725 0;
#X connect 728 0 727 0;
#X connect 729 0 730 0;
#X connect 730 0 746 0;
#X connect 731 0 732 0;
#X connect 732 0 769 0;
#X connect 733 0 731 0;
#X connect 734 0 735 0;
#X connect 735 0 745 0;
#X connect 736 0 737 0;
#X connect 737 0 768 0;
#X connect 738 0 736 0;
#X connect 739 0 740 0;
#X connect 740 0 744 0;
#X connect 741 0 742 0;
#X connect 742 0 767 0;
#X connect 743 0 741 0;
#X connect 744 0 743 0;
#X connect 745 0 738 0;
#X connect 746 0 733 0;
#X connect 747 0 16 0;
#X connect 748 0 31 0;
#X connect 749 0 77 0;
#X connect 750 0 62 0;
#X connect 751 0 123 0;
#X connect 752 0 108 0;
#X connect 753 0 169 0;
#X connect 754 0 154 0;
#X connect 755 0 338 0;
#X connect 756 0 353 0;
#X connect 757 0 307 0;
#X connect 758 0 292 0;
#X connect 759 0 246 0;
#X connect 760 0 261 0;
#X connect 761 0 215 0;
#X connect 762 0 200 0;
#X connect 763 0 431 0;
#X connect 764 0 434 0;
#X connect 765 0 437 0;
#X connect 766 0 440 0;
#X connect 767 0 452 0;
#X connect 768 0 449 0;
#X connect 769 0 446 0;
#X connect 770 0 443 0;
#X connect 771 0 50 0;
#X connect 771 0 96 0;
#X connect 771 0 142 0;
#X connect 771 0 188 0;
#X connect 771 0 234 0;
#X connect 771 0 280 0;
#X connect 771 0 326 0;
#X connect 771 0 372 0;
#X connect 771 0 925 0;
#X connect 771 0 1002 0;
#X connect 772 0 773 0;
#X connect 772 2 777 0;
#X connect 773 0 774 0;
#X connect 774 0 1015 0;
#X connect 775 0 619 0;
#X connect 776 0 772 0;
#X connect 777 0 798 0;
#X connect 778 0 375 0;
#X connect 778 2 374 0;
#X connect 778 2 377 0;
#X connect 779 0 381 0;
#X connect 779 2 380 0;
#X connect 779 2 383 0;
#X connect 780 0 387 0;
#X connect 780 2 386 0;
#X connect 780 2 389 0;
#X connect 781 0 393 0;
#X connect 781 2 392 0;
#X connect 781 2 395 0;
#X connect 782 0 400 0;
#X connect 782 2 399 0;
#X connect 782 2 402 0;
#X connect 783 0 406 0;
#X connect 783 2 405 0;
#X connect 783 2 408 0;
#X connect 784 0 412 0;
#X connect 784 2 411 0;
#X connect 784 2 414 0;
#X connect 785 0 418 0;
#X connect 785 2 417 0;
#X connect 785 2 420 0;
#X connect 786 0 787 0;
#X connect 787 0 788 0;
#X connect 787 1 789 0;
#X connect 788 0 775 0;
#X connect 788 0 642 0;
#X connect 788 0 638 0;
#X connect 788 0 637 0;
#X connect 788 0 641 0;
#X connect 788 0 640 0;
#X connect 788 0 636 0;
#X connect 788 0 639 0;
#X connect 788 0 812 0;
#X connect 788 0 830 0;
#X connect 789 0 788 0;
#X connect 790 0 791 0;
#X connect 791 0 792 0;
#X connect 791 1 793 0;
#X connect 792 0 691 0;
#X connect 792 0 692 0;
#X connect 792 0 698 0;
#X connect 792 0 697 0;
#X connect 792 0 693 0;
#X connect 792 0 694 0;
#X connect 792 0 696 0;
#X connect 792 0 695 0;
#X connect 792 0 819 0;
#X connect 792 0 837 0;
#X connect 793 0 792 0;
#X connect 794 0 795 0;
#X connect 795 0 796 0;
#X connect 795 1 797 0;
#X connect 796 0 683 0;
#X connect 796 0 684 0;
#X connect 796 0 690 0;
#X connect 796 0 689 0;
#X connect 796 0 685 0;
#X connect 796 0 686 0;
#X connect 796 0 688 0;
#X connect 796 0 687 0;
#X connect 796 0 818 0;
#X connect 796 0 836 0;
#X connect 797 0 796 0;
#X connect 798 0 772 0;
#X connect 799 0 800 0;
#X connect 799 0 801 0;
#X connect 799 0 802 0;
#X connect 800 0 1011 0;
#X connect 800 0 1004 0;
#X connect 800 0 840 0;
#X connect 800 0 841 0;
#X connect 800 0 842 0;
#X connect 801 0 843 0;
#X connect 801 0 844 0;
#X connect 801 0 845 0;
#X connect 801 0 846 0;
#X connect 801 0 847 0;
#X connect 802 0 776 0;
#X connect 802 1 1014 0;
#X connect 803 0 820 0;
#X connect 805 0 806 0;
#X connect 806 0 1033 0;
#X connect 807 0 820 0;
#X connect 808 0 924 0;
#X connect 809 0 808 0;
#X connect 810 0 632 1;
#X connect 811 0 810 0;
#X connect 812 0 811 0;
#X connect 813 0 814 0;
#X connect 814 0 815 0;
#X connect 815 0 816 0;
#X connect 816 0 817 0;
#X connect 817 0 897 0;
#X connect 818 0 813 0;
#X connect 818 0 815 1;
#X connect 819 0 809 0;
#X connect 820 0 805 0;
#X connect 820 2 804 0;
#X connect 820 2 807 0;
#X connect 821 0 838 0;
#X connect 823 0 824 0;
#X connect 824 0 1056 0;
#X connect 825 0 838 0;
#X connect 826 0 1000 0;
#X connect 827 0 826 0;
#X connect 828 0 851 1;
#X connect 829 0 828 0;
#X connect 830 0 829 0;
#X connect 831 0 832 0;
#X connect 832 0 833 0;
#X connect 833 0 834 0;
#X connect 834 0 835 0;
#X connect 835 0 973 0;
#X connect 836 0 831 0;
#X connect 836 0 833 1;
#X connect 837 0 827 0;
#X connect 838 0 823 0;
#X connect 838 2 822 0;
#X connect 838 2 825 0;
#X connect 840 0 780 0;
#X connect 841 0 781 0;
#X connect 842 0 820 0;
#X connect 843 0 782 0;
#X connect 844 0 783 0;
#X connect 845 0 784 0;
#X connect 846 0 785 0;
#X connect 847 0 838 0;
#X connect 848 0 839 8;
#X connect 849 0 839 9;
#X connect 850 0 848 0;
#X connect 851 0 849 0;
#X connect 852 0 857 0;
#X connect 853 0 854 0;
#X connect 854 0 923 0;
#X connect 855 0 856 0;
#X connect 856 0 858 0;
#X connect 857 0 853 0;
#X connect 858 0 859 0;
#X connect 859 0 860 0;
#X connect 860 0 854 1;
#X connect 861 0 923 0;
#X connect 862 0 863 0;
#X connect 863 0 865 0;
#X connect 864 0 922 0;
#X connect 865 0 866 0;
#X connect 866 0 867 0;
#X connect 867 0 861 1;
#X connect 868 0 869 0;
#X connect 869 0 923 0;
#X connect 870 0 871 0;
#X connect 871 0 873 0;
#X connect 872 0 868 0;
#X connect 873 0 874 0;
#X connect 874 0 875 0;
#X connect 875 0 869 1;
#X connect 876 0 923 0;
#X connect 877 0 878 0;
#X connect 878 0 880 0;
#X connect 879 0 895 0;
#X connect 879 0 921 0;
#X connect 880 0 881 0;
#X connect 881 0 882 0;
#X connect 882 0 876 1;
#X connect 883 0 884 0;
#X connect 884 0 923 0;
#X connect 885 0 886 0;
#X connect 886 0 888 0;
#X connect 887 0 883 0;
#X connect 888 0 889 0;
#X connect 889 0 890 0;
#X connect 890 0 884 1;
#X connect 891 0 864 0;
#X connect 892 0 872 0;
#X connect 893 0 879 0;
#X connect 894 0 887 0;
#X connect 895 0 896 1;
#X connect 896 0 632 0;
#X connect 897 0 896 2;
#X connect 898 0 899 0;
#X connect 899 0 923 0;
#X connect 900 0 901 0;
#X connect 901 0 903 0;
#X connect 902 0 898 0;
#X connect 903 0 904 0;
#X connect 904 0 905 0;
#X connect 905 0 899 1;
#X connect 906 0 907 0;
#X connect 907 0 923 0;
#X connect 908 0 909 0;
#X connect 909 0 911 0;
#X connect 910 0 906 0;
#X connect 911 0 912 0;
#X connect 912 0 913 0;
#X connect 913 0 907 1;
#X connect 914 0 902 0;
#X connect 915 0 910 0;
#X connect 916 0 920 0;
#X connect 917 0 918 0;
#X connect 918 0 923 0;
#X connect 919 0 917 0;
#X connect 920 0 919 0;
#X connect 921 0 876 0;
#X connect 922 0 861 0;
#X connect 923 0 896 0;
#X connect 924 0 852 0;
#X connect 924 0 891 0;
#X connect 924 0 892 0;
#X connect 924 0 893 0;
#X connect 924 0 894 0;
#X connect 924 0 914 0;
#X connect 924 0 915 0;
#X connect 924 0 927 0;
#X connect 925 0 855 0;
#X connect 925 0 862 0;
#X connect 925 0 870 0;
#X connect 925 0 877 0;
#X connect 925 0 885 0;
#X connect 925 0 900 0;
#X connect 925 0 908 0;
#X connect 927 0 916 0;
#X connect 928 0 933 0;
#X connect 929 0 930 0;
#X connect 930 0 999 0;
#X connect 931 0 932 0;
#X connect 932 0 934 0;
#X connect 933 0 929 0;
#X connect 934 0 935 0;
#X connect 935 0 936 0;
#X connect 936 0 930 1;
#X connect 937 0 999 0;
#X connect 938 0 939 0;
#X connect 939 0 941 0;
#X connect 940 0 998 0;
#X connect 941 0 942 0;
#X connect 942 0 943 0;
#X connect 943 0 937 1;
#X connect 944 0 945 0;
#X connect 945 0 999 0;
#X connect 946 0 947 0;
#X connect 947 0 949 0;
#X connect 948 0 944 0;
#X connect 949 0 950 0;
#X connect 950 0 951 0;
#X connect 951 0 945 1;
#X connect 952 0 999 0;
#X connect 953 0 954 0;
#X connect 954 0 956 0;
#X connect 955 0 971 0;
#X connect 955 0 997 0;
#X connect 956 0 957 0;
#X connect 957 0 958 0;
#X connect 958 0 952 1;
#X connect 959 0 960 0;
#X connect 960 0 999 0;
#X connect 961 0 962 0;
#X connect 962 0 964 0;
#X connect 963 0 959 0;
#X connect 964 0 965 0;
#X connect 965 0 966 0;
#X connect 966 0 960 1;
#X connect 967 0 940 0;
#X connect 968 0 948 0;
#X connect 969 0 955 0;
#X connect 970 0 963 0;
#X connect 971 0 972 1;
#X connect 972 0 851 0;
#X connect 973 0 972 2;
#X connect 974 0 975 0;
#X connect 975 0 999 0;
#X connect 976 0 977 0;
#X connect 977 0 979 0;
#X connect 978 0 974 0;
#X connect 979 0 980 0;
#X connect 980 0 981 0;
#X connect 981 0 975 1;
#X connect 982 0 983 0;
#X connect 983 0 999 0;
#X connect 984 0 985 0;
#X connect 985 0 987 0;
#X connect 986 0 982 0;
#X connect 987 0 988 0;
#X connect 988 0 989 0;
#X connect 989 0 983 1;
#X connect 990 0 978 0;
#X connect 991 0 986 0;
#X connect 992 0 996 0;
#X connect 993 0 994 0;
#X connect 994 0 999 0;
#X connect 995 0 993 0;
#X connect 996 0 995 0;
#X connect 997 0 952 0;
#X connect 998 0 937 0;
#X connect 999 0 972 0;
#X connect 1000 0 928 0;
#X connect 1000 0 967 0;
#X connect 1000 0 968 0;
#X connect 1000 0 969 0;
#X connect 1000 0 970 0;
#X connect 1000 0 990 0;
#X connect 1000 0 991 0;
#X connect 1000 0 1003 0;
#X connect 1002 0 931 0;
#X connect 1002 0 938 0;
#X connect 1002 0 946 0;
#X connect 1002 0 953 0;
#X connect 1002 0 961 0;
#X connect 1002 0 976 0;
#X connect 1002 0 984 0;
#X connect 1003 0 992 0;
#X connect 1004 0 779 0;
#X connect 1006 0 1009 0;
#X connect 1007 0 1006 0;
#X connect 1008 0 1007 0;
#X connect 1009 0 1005 0;
#X connect 1010 0 775 0;
#X connect 1010 1 691 0;
#X connect 1010 2 683 0;
#X connect 1010 3 1020 0;
#X connect 1011 0 778 0;
#X connect 1012 0 719 1;
#X connect 1013 0 1012 0;
#X connect 1014 0 772 0;
#X connect 1015 0 786 0;
#X connect 1015 1 786 1;
#X connect 1015 2 790 0;
#X connect 1015 3 790 1;
#X connect 1015 4 794 0;
#X connect 1015 5 794 1;
#X connect 1015 6 1016 0;
#X connect 1015 7 1016 1;
#X connect 1016 0 1017 0;
#X connect 1017 0 1018 0;
#X connect 1017 1 1019 0;
#X connect 1018 0 1020 0;
#X connect 1018 0 1024 0;
#X connect 1018 0 1027 0;
#X connect 1018 0 1039 0;
#X connect 1018 0 1043 0;
#X connect 1018 0 1047 0;
#X connect 1018 0 1051 0;
#X connect 1018 0 1055 0;
#X connect 1018 0 1031 0;
#X connect 1018 0 1036 0;
#X connect 1019 0 1018 0;
#X connect 1020 0 1013 0;
#X connect 1021 0 642 0;
#X connect 1021 1 692 0;
#X connect 1021 2 684 0;
#X connect 1021 3 1024 0;
#X connect 1022 0 720 1;
#X connect 1023 0 1022 0;
#X connect 1024 0 1023 0;
#X connect 1025 0 721 1;
#X connect 1026 0 1025 0;
#X connect 1027 0 1026 0;
#X connect 1028 0 641 0;
#X connect 1028 1 693 0;
#X connect 1028 2 685 0;
#X connect 1028 3 1027 0;
#X connect 1029 0 722 1;
#X connect 1030 0 1029 0;
#X connect 1031 0 1030 0;
#X connect 1032 0 640 0;
#X connect 1032 1 694 0;
#X connect 1032 2 686 0;
#X connect 1032 3 1031 0;
#X connect 1033 0 812 0;
#X connect 1033 1 819 0;
#X connect 1033 2 818 0;
#X connect 1033 3 1036 0;
#X connect 1034 0 920 1;
#X connect 1035 0 1034 0;
#X connect 1036 0 1035 0;
#X connect 1037 0 728 1;
#X connect 1038 0 1037 0;
#X connect 1039 0 1038 0;
#X connect 1040 0 638 0;
#X connect 1040 1 698 0;
#X connect 1040 2 690 0;
#X connect 1040 3 1039 0;
#X connect 1041 0 746 1;
#X connect 1042 0 1041 0;
#X connect 1043 0 1042 0;
#X connect 1044 0 637 0;
#X connect 1044 1 697 0;
#X connect 1044 2 689 0;
#X connect 1044 3 1043 0;
#X connect 1045 0 745 1;
#X connect 1046 0 1045 0;
#X connect 1047 0 1046 0;
#X connect 1048 0 636 0;
#X connect 1048 1 696 0;
#X connect 1048 2 688 0;
#X connect 1048 3 1047 0;
#X connect 1049 0 744 1;
#X connect 1050 0 1049 0;
#X connect 1051 0 1050 0;
#X connect 1052 0 639 0;
#X connect 1052 1 695 0;
#X connect 1052 2 687 0;
#X connect 1052 3 1051 0;
#X connect 1053 0 996 1;
#X connect 1054 0 1053 0;
#X connect 1055 0 1054 0;
#X connect 1056 0 830 0;
#X connect 1056 1 837 0;
#X connect 1056 2 836 0;
#X connect 1056 3 1055 0;
